<svg id="Layer_6" data-name="Layer 6" xmlns="http://www.w3.org/2000/svg" viewBox="0 0 870.25 212.71"><defs><style>.cls-1,.cls-2,.cls-3,.cls-4,.cls-5,.cls-6{fill:#fff;}.cls-1{opacity:0.24;}.cls-2{opacity:0.4;}.cls-3{opacity:0.32;}.cls-4{opacity:0.5;}.cls-5{opacity:0.28;}.cls-6{opacity:0.35;}.cls-7{fill:#734141;}</style></defs><title>Border</title><path class="cls-1" d="M547.51,707.65s.32,21,17,26.44a19,19,0,0,0,17-3.18.77.77,0,0,0-.69-1.35C573.37,731.74,556.2,733.5,547.51,707.65Z" transform="translate(-541.75 -528)"/><path class="cls-1" d="M809.55,719s1.51,14.22,14.42,17.56A21.29,21.29,0,0,0,836.53,734c5-2.77,3.08-2.73-.61-.9C830.81,735.66,817.65,736.32,809.55,719Z" transform="translate(-541.75 -528)"/><path class="cls-2" d="M617,721.71s4,16,27,15c0,0,5-2-1-5S628,731.71,617,721.71Z" transform="translate(-541.75 -528)"/><circle class="cls-3" cx="111.75" cy="203.21" r="2.5"/><path class="cls-2" d="M866,723.71s4,12.76,27,12c0,0,5-1.6-1-4S877,731.68,866,723.71Z" transform="translate(-541.75 -528)"/><ellipse class="cls-3" cx="360.75" cy="203.28" rx="2.5" ry="1.99"/><path class="cls-4" d="M680,717.71s7.8,18.19,25.81,18.29a.48.48,0,0,0,.11-.94A43.18,43.18,0,0,1,680,717.71Z" transform="translate(-541.75 -528)"/><path class="cls-3" d="M759,734.71a18.33,18.33,0,0,0,15,3s4-3-1-4c0,0-13-4-16-4A4.45,4.45,0,0,0,759,734.71Z" transform="translate(-541.75 -528)"/><path class="cls-3" d="M935,731.71a18.33,18.33,0,0,0,15,3s4-3-1-4c0,0-13-4-16-4A4.45,4.45,0,0,0,935,731.71Z" transform="translate(-541.75 -528)"/><path class="cls-5" d="M990,726.71s10,9,24,10c0,0-12-12-21-16S990,726.71,990,726.71Z" transform="translate(-541.75 -528)"/><path class="cls-6" d="M1165,723.71s5,14,28,13c0,0-17-14-25-15S1165,723.71,1165,723.71Z" transform="translate(-541.75 -528)"/><path class="cls-3" d="M1050,723.71s7.82,13.9,24.27,12.54a.44.44,0,0,0,0-.88A46.19,46.19,0,0,1,1050,723.71Z" transform="translate(-541.75 -528)"/><path class="cls-3" d="M1108,725.71s9,11,23,10c0,0,3-2-1-3S1115,729.71,1108,725.71Z" transform="translate(-541.75 -528)"/><ellipse class="cls-3" cx="597.75" cy="203.71" rx="2.5" ry="2"/><path class="cls-3" d="M1227,725.71a36.8,36.8,0,0,0,30.69,11.17.17.17,0,0,0,0-.34C1253.2,735.91,1238,733.3,1227,725.71Z" transform="translate(-541.75 -528)"/><path class="cls-3" d="M1288.11,722.5s9.67,16.09,31.31,14c0,0,5.14-4.18-3.6-4.94S1297.49,729.88,1288.11,722.5Z" transform="translate(-541.75 -528)"/><path class="cls-1" d="M547.51,707.65s.32,21,17,26.44a19,19,0,0,0,17-3.18.77.77,0,0,0-.69-1.35C573.37,731.74,556.2,733.5,547.51,707.65Z" transform="translate(-541.75 -528)"/><path class="cls-1" d="M809.55,719s1.51,14.22,14.42,17.56A21.29,21.29,0,0,0,836.53,734c5-2.77,3.08-2.73-.61-.9C830.81,735.66,817.65,736.32,809.55,719Z" transform="translate(-541.75 -528)"/><path class="cls-2" d="M617,721.71s4,16,27,15c0,0,5-2-1-5S628,731.71,617,721.71Z" transform="translate(-541.75 -528)"/><circle class="cls-3" cx="111.75" cy="203.21" r="2.5"/><path class="cls-2" d="M866,723.71s4,12.76,27,12c0,0,5-1.6-1-4S877,731.68,866,723.71Z" transform="translate(-541.75 -528)"/><ellipse class="cls-3" cx="360.75" cy="203.28" rx="2.5" ry="1.99"/><path class="cls-4" d="M680,717.71s7.8,18.19,25.81,18.29a.48.48,0,0,0,.11-.94A43.18,43.18,0,0,1,680,717.71Z" transform="translate(-541.75 -528)"/><path class="cls-3" d="M759,734.71a18.33,18.33,0,0,0,15,3s4-3-1-4c0,0-13-4-16-4A4.45,4.45,0,0,0,759,734.71Z" transform="translate(-541.75 -528)"/><path class="cls-7" d="M542,558l-.25,70.86A58.44,58.44,0,0,0,545,649c0,.06.06.12.08.18h0c1.73,4.12,4.82,7.13,7.19,10.72a58.92,58.92,0,0,0,5.2,6.65,43.51,43.51,0,0,0,8.6,5.6,51.89,51.89,0,0,1,32.23-83.52H976.88v-.14h378.53a52.22,52.22,0,0,1,43.52,51.3A51.67,51.67,0,0,1,1387.64,672a42.78,42.78,0,0,0,8.6-5.6,58.8,58.8,0,0,0,5.2-6.64c2.38-3.6,5.46-6.61,7.19-10.73v0c0-.07.06-.13.08-.19a58.2,58.2,0,0,0,3.29-20.13V558" transform="translate(-541.75 -528)"/><path class="cls-3" d="M935,731.71a18.33,18.33,0,0,0,15,3s4-3-1-4c0,0-13-4-16-4A4.45,4.45,0,0,0,935,731.71Z" transform="translate(-541.75 -528)"/><path class="cls-5" d="M990,726.71s10,9,24,10c0,0-12-12-21-16S990,726.71,990,726.71Z" transform="translate(-541.75 -528)"/><path class="cls-6" d="M1165,723.71s5,14,28,13c0,0-17-14-25-15S1165,723.71,1165,723.71Z" transform="translate(-541.75 -528)"/><path class="cls-3" d="M1050,723.71s7.82,13.9,24.27,12.54a.44.44,0,0,0,0-.88A46.19,46.19,0,0,1,1050,723.71Z" transform="translate(-541.75 -528)"/><ellipse class="cls-3" cx="597.75" cy="203.71" rx="2.5" ry="2"/><path class="cls-3" d="M1227,725.71a36.8,36.8,0,0,0,30.69,11.17.17.17,0,0,0,0-.34C1253.2,735.91,1238,733.3,1227,725.71Z" transform="translate(-541.75 -528)"/><path class="cls-3" d="M1352,725.71s14,15,32,11C1384,736.71,1372,736.71,1352,725.71Z" transform="translate(-541.75 -528)"/><path class="cls-7" d="M542,709.71l-.25-70.87A58.38,58.38,0,0,1,545,618.72c0-.07.06-.12.08-.19v0c1.73-4.13,4.82-7.13,7.19-10.73a58.92,58.92,0,0,1,5.2-6.65,43.51,43.51,0,0,1,8.6-5.6,51.89,51.89,0,0,0,32.23,83.53H976.88v.14h378.53a52.23,52.23,0,0,0,43.52-51.31,51.69,51.69,0,0,0-11.29-32.22,43.22,43.22,0,0,1,8.6,5.6,58.92,58.92,0,0,1,5.2,6.65c2.38,3.6,5.46,6.6,7.19,10.73v0c0,.06.06.12.08.19A58.1,58.1,0,0,1,1412,639v70.73" transform="translate(-541.75 -528)"/><path class="cls-7" d="M980,561c0-17.67,15.22-32,34-32s34,14.33,34,32" transform="translate(-541.75 -528)"/><path class="cls-7" d="M1041,707.71c0,17.67,15.22,32,34,32s34-14.33,34-32" transform="translate(-541.75 -528)"/><path class="cls-7" d="M1398.93,638.77a52.22,52.22,0,0,0-43.52-51.3H976.88v.14H598.34a51.89,51.89,0,0,0-32.23,83.52,43.51,43.51,0,0,1-8.6-5.6,54.88,54.88,0,0,0,11.25,9.77,44.78,44.78,0,0,0,24.34,7.41H976.88v-.14h383.78a44.75,44.75,0,0,0,24.33-7.41,54.07,54.07,0,0,0,11.25-9.77,42.78,42.78,0,0,1-8.6,5.6,51.67,51.67,0,0,0,11.29-32.22" transform="translate(-541.75 -528)"/><path class="cls-7" d="M608,707.71c0,17.67,15.22,32,34,32s34-14.33,34-32" transform="translate(-541.75 -528)"/><path class="cls-7" d="M1155,707.71c0,17.67,15.22,32,34,32s34-14.33,34-32" transform="translate(-541.75 -528)"/><path class="cls-7" d="M1282,707.71c0,17.67,15.22,32,34,32s34-14.33,34-32" transform="translate(-541.75 -528)"/><path class="cls-7" d="M919,708.71c0,17.67,15.22,32,34,32s34-14.33,34-32" transform="translate(-541.75 -528)"/><path class="cls-7" d="M1097,705.71c0,17.67,15.22,32,34,32s34-14.33,34-32" transform="translate(-541.75 -528)"/><path class="cls-1" d="M547.51,707.65s.32,21,17,26.44a19,19,0,0,0,17-3.18.77.77,0,0,0-.69-1.35C573.37,731.74,556.2,733.5,547.51,707.65Z" transform="translate(-541.75 -528)"/><path class="cls-1" d="M809.55,719s1.51,14.22,14.42,17.56A21.29,21.29,0,0,0,836.53,734c5-2.77,3.08-2.73-.61-.9C830.81,735.66,817.65,736.32,809.55,719Z" transform="translate(-541.75 -528)"/><path class="cls-2" d="M617,721.71s4,16,27,15c0,0,5-2-1-5S628,731.71,617,721.71Z" transform="translate(-541.75 -528)"/><circle class="cls-3" cx="111.75" cy="203.21" r="2.5"/><path class="cls-2" d="M866,723.71s4,12.76,27,12c0,0,5-1.6-1-4S877,731.68,866,723.71Z" transform="translate(-541.75 -528)"/><ellipse class="cls-3" cx="360.75" cy="203.28" rx="2.5" ry="1.99"/><path class="cls-4" d="M680,717.71s7.8,18.19,25.81,18.29a.48.48,0,0,0,.11-.94A43.18,43.18,0,0,1,680,717.71Z" transform="translate(-541.75 -528)"/><path class="cls-3" d="M759,734.71a18.33,18.33,0,0,0,15,3s4-3-1-4c0,0-13-4-16-4A4.45,4.45,0,0,0,759,734.71Z" transform="translate(-541.75 -528)"/><path class="cls-3" d="M935,731.71a18.33,18.33,0,0,0,15,3s4-3-1-4c0,0-13-4-16-4A4.45,4.45,0,0,0,935,731.71Z" transform="translate(-541.75 -528)"/><path class="cls-5" d="M990,726.71s10,9,24,10c0,0-12-12-21-16S990,726.71,990,726.71Z" transform="translate(-541.75 -528)"/><path class="cls-6" d="M1165,723.71s5,14,28,13c0,0-17-14-25-15S1165,723.71,1165,723.71Z" transform="translate(-541.75 -528)"/><path class="cls-3" d="M1050,723.71s7.82,13.9,24.27,12.54a.44.44,0,0,0,0-.88A46.19,46.19,0,0,1,1050,723.71Z" transform="translate(-541.75 -528)"/><path class="cls-3" d="M1108,725.71s9,11,23,10c0,0,3-2-1-3S1115,729.71,1108,725.71Z" transform="translate(-541.75 -528)"/><ellipse class="cls-3" cx="597.75" cy="203.71" rx="2.5" ry="2"/><path class="cls-3" d="M1227,725.71a36.8,36.8,0,0,0,30.69,11.17.17.17,0,0,0,0-.34C1253.2,735.91,1238,733.3,1227,725.71Z" transform="translate(-541.75 -528)"/><path class="cls-3" d="M1288.11,722.5s9.67,16.09,31.31,14c0,0,5.14-4.18-3.6-4.94S1297.49,729.88,1288.11,722.5Z" transform="translate(-541.75 -528)"/><path class="cls-7" d="M542,707.71c0,17.67,15.22,32,34,32s34-14.33,34-32" transform="translate(-541.75 -528)"/><path class="cls-7" d="M1218,707.71c0,17.67,15.22,32,34,32s34-14.33,34-32" transform="translate(-541.75 -528)"/><path class="cls-7" d="M1344,707.71c0,17.67,15.22,32,34,32s34-14.33,34-32" transform="translate(-541.75 -528)"/><path class="cls-7" d="M675,707.71c0,17.67,15.22,32,34,32s34-14.33,34-32" transform="translate(-541.75 -528)"/><path class="cls-7" d="M739,707.71c0,17.67,15.22,32,34,32s34-14.33,34-32" transform="translate(-541.75 -528)"/><path class="cls-7" d="M799,707.71c0,17.67,15.22,32,34,32s34-14.33,34-32" transform="translate(-541.75 -528)"/><path class="cls-7" d="M858,706.71c0,17.67,15.22,32,34,32s34-14.33,34-32" transform="translate(-541.75 -528)"/><path class="cls-7" d="M980,706.71c0,17.67,15.22,32,34,32s34-14.33,34-32" transform="translate(-541.75 -528)"/><path class="cls-1" d="M547.51,707.65s.32,21,17,26.44a19,19,0,0,0,17-3.18.77.77,0,0,0-.69-1.35C573.37,731.74,556.2,733.5,547.51,707.65Z" transform="translate(-541.75 -528)"/><path class="cls-1" d="M809.55,719s1.51,14.22,14.42,17.56A21.29,21.29,0,0,0,836.53,734c5-2.77,3.08-2.73-.61-.9C830.81,735.66,817.65,736.32,809.55,719Z" transform="translate(-541.75 -528)"/><path class="cls-2" d="M617,721.71s4,16,27,15c0,0,5-2-1-5S628,731.71,617,721.71Z" transform="translate(-541.75 -528)"/><circle class="cls-3" cx="111.75" cy="203.21" r="2.5"/><path class="cls-2" d="M866,723.71s4,12.76,27,12c0,0,5-1.6-1-4S877,731.68,866,723.71Z" transform="translate(-541.75 -528)"/><ellipse class="cls-3" cx="360.75" cy="203.28" rx="2.5" ry="1.99"/><path class="cls-4" d="M680,717.71s7.8,18.19,25.81,18.29a.48.48,0,0,0,.11-.94A43.18,43.18,0,0,1,680,717.71Z" transform="translate(-541.75 -528)"/><path class="cls-3" d="M759,734.71a18.33,18.33,0,0,0,15,3s4-3-1-4c0,0-13-4-16-4A4.45,4.45,0,0,0,759,734.71Z" transform="translate(-541.75 -528)"/><path class="cls-3" d="M935,731.71a18.33,18.33,0,0,0,15,3s4-3-1-4c0,0-13-4-16-4A4.45,4.45,0,0,0,935,731.71Z" transform="translate(-541.75 -528)"/><path class="cls-5" d="M990,726.71s10,9,24,10c0,0-12-12-21-16S990,726.71,990,726.71Z" transform="translate(-541.75 -528)"/><path class="cls-6" d="M1165,723.71s5,14,28,13c0,0-17-14-25-15S1165,723.71,1165,723.71Z" transform="translate(-541.75 -528)"/><path class="cls-3" d="M1050,723.71s7.82,13.9,24.27,12.54a.44.44,0,0,0,0-.88A46.19,46.19,0,0,1,1050,723.71Z" transform="translate(-541.75 -528)"/><ellipse class="cls-3" cx="597.75" cy="203.71" rx="2.5" ry="2"/><path class="cls-3" d="M1227,725.71a36.8,36.8,0,0,0,30.69,11.17.17.17,0,0,0,0-.34C1253.2,735.91,1238,733.3,1227,725.71Z" transform="translate(-541.75 -528)"/><path class="cls-3" d="M1352,725.71s14,15,32,11C1384,736.71,1372,736.71,1352,725.71Z" transform="translate(-541.75 -528)"/><path class="cls-7" d="M1041,560c0-17.67,15.22-32,34-32s34,14.33,34,32" transform="translate(-541.75 -528)"/><path class="cls-7" d="M608,560c0-17.67,15.22-32,34-32s34,14.33,34,32" transform="translate(-541.75 -528)"/><path class="cls-7" d="M1154,560c0-17.67,15.22-32,34-32s34,14.33,34,32" transform="translate(-541.75 -528)"/><path class="cls-7" d="M1282,560c0-17.67,15.22-32,34-32s34,14.33,34,32" transform="translate(-541.75 -528)"/><path class="cls-7" d="M919,560c0-17.67,15.22-32,34-32s34,14.33,34,32" transform="translate(-541.75 -528)"/><path class="cls-7" d="M1097,562c0-17.67,15.22-32,34-32s34,14.33,34,32" transform="translate(-541.75 -528)"/><path class="cls-1" d="M547.51,560.05s.32-21,17-26.44a19,19,0,0,1,17,3.18.78.78,0,0,1-.69,1.36C573.37,536,556.2,534.21,547.51,560.05Z" transform="translate(-541.75 -528)"/><path class="cls-1" d="M809.55,548.72s1.51-14.22,14.42-17.56a21.24,21.24,0,0,1,12.56,2.52c5,2.78,3.08,2.74-.61.91C830.81,532.05,817.65,531.38,809.55,548.72Z" transform="translate(-541.75 -528)"/><path class="cls-2" d="M617,546s4-16,27-15c0,0,5,2-1,5S628,536,617,546Z" transform="translate(-541.75 -528)"/><circle class="cls-3" cx="111.75" cy="8.5" r="2.5"/><path class="cls-2" d="M866,544s4-12.76,27-12c0,0,5,1.59-1,4S877,536,866,544Z" transform="translate(-541.75 -528)"/><ellipse class="cls-3" cx="360.75" cy="8.42" rx="2.5" ry="1.99"/><path class="cls-4" d="M680,550s7.8-18.19,25.81-18.29a.47.47,0,0,1,.11.93A43.26,43.26,0,0,0,680,550Z" transform="translate(-541.75 -528)"/><path class="cls-3" d="M759,533a18.33,18.33,0,0,1,15-3s4,3-1,4c0,0-13,4-16,4A4.45,4.45,0,0,1,759,533Z" transform="translate(-541.75 -528)"/><path class="cls-3" d="M935,536a18.33,18.33,0,0,1,15-3s4,3-1,4c0,0-13,4-16,4A4.45,4.45,0,0,1,935,536Z" transform="translate(-541.75 -528)"/><path class="cls-5" d="M990,541s10-9,24-10c0,0-12,12-21,16S990,541,990,541Z" transform="translate(-541.75 -528)"/><path class="cls-6" d="M1165,544s5-14,28-13c0,0-17,14-25,15S1165,544,1165,544Z" transform="translate(-541.75 -528)"/><path class="cls-3" d="M1050,544s7.82-13.9,24.27-12.55a.45.45,0,0,1,0,.89A46,46,0,0,0,1050,544Z" transform="translate(-541.75 -528)"/><path class="cls-3" d="M1108,542s9-11,23-10c0,0,3,2-1,3S1115,538,1108,542Z" transform="translate(-541.75 -528)"/><ellipse class="cls-3" cx="597.75" cy="8" rx="2.5" ry="2"/><path class="cls-3" d="M1227,542a36.8,36.8,0,0,1,30.69-11.17.17.17,0,0,1,0,.34C1253.2,531.8,1238,534.41,1227,542Z" transform="translate(-541.75 -528)"/><path class="cls-3" d="M1288.11,545.2s9.67-16.09,31.31-14c0,0,5.14,4.18-3.6,4.95S1297.49,537.83,1288.11,545.2Z" transform="translate(-541.75 -528)"/><path class="cls-7" d="M542,560c0-17.67,15.22-32,34-32s34,14.33,34,32" transform="translate(-541.75 -528)"/><path class="cls-7" d="M1218,560c0-17.67,15.22-32,34-32s34,14.33,34,32" transform="translate(-541.75 -528)"/><path class="cls-7" d="M1344,560c0-17.67,15.22-32,34-32s34,14.33,34,32" transform="translate(-541.75 -528)"/><path class="cls-7" d="M675,560c0-17.67,15.22-32,34-32s34,14.33,34,32" transform="translate(-541.75 -528)"/><path class="cls-7" d="M739,560c0-17.67,15.22-32,34-32s34,14.33,34,32" transform="translate(-541.75 -528)"/><path class="cls-7" d="M799,560c0-17.67,15.22-32,34-32s34,14.33,34,32" transform="translate(-541.75 -528)"/><path class="cls-7" d="M858,560c0-17.67,15.22-32,34-32s34,14.33,34,32" transform="translate(-541.75 -528)"/><path class="cls-1" d="M547.51,560.05s.32-21,17-26.44a19,19,0,0,1,17,3.18.78.78,0,0,1-.69,1.36C573.37,536,556.2,534.21,547.51,560.05Z" transform="translate(-541.75 -528)"/><path class="cls-1" d="M809.55,548.72s1.51-14.22,14.42-17.56a21.24,21.24,0,0,1,12.56,2.52c5,2.78,3.08,2.74-.61.91C830.81,532.05,817.65,531.38,809.55,548.72Z" transform="translate(-541.75 -528)"/><path class="cls-2" d="M617,546s4-16,27-15c0,0,5,2-1,5S628,536,617,546Z" transform="translate(-541.75 -528)"/><circle class="cls-3" cx="111.75" cy="8.5" r="2.5"/><path class="cls-2" d="M866,544s4-12.76,27-12c0,0,5,1.59-1,4S877,536,866,544Z" transform="translate(-541.75 -528)"/><ellipse class="cls-3" cx="360.75" cy="8.42" rx="2.5" ry="1.99"/><path class="cls-4" d="M680,550s7.8-18.19,25.81-18.29a.47.47,0,0,1,.11.93A43.26,43.26,0,0,0,680,550Z" transform="translate(-541.75 -528)"/><path class="cls-3" d="M759,533a18.33,18.33,0,0,1,15-3s4,3-1,4c0,0-13,4-16,4A4.45,4.45,0,0,1,759,533Z" transform="translate(-541.75 -528)"/><path class="cls-3" d="M935,536a18.33,18.33,0,0,1,15-3s4,3-1,4c0,0-13,4-16,4A4.45,4.45,0,0,1,935,536Z" transform="translate(-541.75 -528)"/><path class="cls-5" d="M990,541s10-9,24-10c0,0-12,12-21,16S990,541,990,541Z" transform="translate(-541.75 -528)"/><path class="cls-6" d="M1165,544s5-14,28-13c0,0-17,14-25,15S1165,544,1165,544Z" transform="translate(-541.75 -528)"/><path class="cls-3" d="M1050,544s7.82-13.9,24.27-12.55a.45.45,0,0,1,0,.89A46,46,0,0,0,1050,544Z" transform="translate(-541.75 -528)"/><ellipse class="cls-3" cx="597.75" cy="8" rx="2.5" ry="2"/><path class="cls-3" d="M1227,542a36.8,36.8,0,0,1,30.69-11.17.17.17,0,0,1,0,.34C1253.2,531.8,1238,534.41,1227,542Z" transform="translate(-541.75 -528)"/><path class="cls-3" d="M1352,542s14-15,32-11C1384,531,1372,531,1352,542Z" transform="translate(-541.75 -528)"/></svg>