<svg id="Layer_4" data-name="Layer 4" xmlns="http://www.w3.org/2000/svg" viewBox="0 0 166.05 164.99"><defs><style>.cls-1{fill:#f0592a;}.cls-2,.cls-5{fill:#ad3c1e;}.cls-2{opacity:0.32;}.cls-3,.cls-4{fill:none;stroke-miterlimit:10;}.cls-3{stroke:#050505;}.cls-4{stroke:#ad3c1e;}.cls-5{opacity:0.43;}</style></defs><title>Collectible2</title><g id="Layer_8" data-name="Layer 8"><path class="cls-1" d="M1028.63,295A16.63,16.63,0,0,0,1012,278.41h-.2a77.09,77.09,0,0,0-95.93-39.08,10.3,10.3,0,0,0-18.12,6.72,10.59,10.59,0,0,0,.34,2.6,77.32,77.32,0,0,0-17.36,16.85,11,11,0,1,0-10.41,18.86,77.05,77.05,0,0,0,1.82,58.95A19.26,19.26,0,1,0,896,373.17a76.57,76.57,0,0,0,38.55,15.09c0,.11,0,.22,0,.34a11.07,11.07,0,0,0,22.13,0,10.52,10.52,0,0,0-.08-1.26,76.69,76.69,0,0,0,36.31-17.63,6.5,6.5,0,0,0,9.6-5.71,6.57,6.57,0,0,0-.86-3.23,76.65,76.65,0,0,0,17.69-49.1c0-.57,0-1.14,0-1.7A16.64,16.64,0,0,0,1028.63,295Z" transform="translate(-862.58 -234.67)"/><path class="cls-2" d="M937.87,257.16l25.79,6.68S938.38,266.17,937.87,257.16Z" transform="translate(-862.58 -234.67)"/><path class="cls-3" d="M947.33,258.92" transform="translate(-862.58 -234.67)"/><path class="cls-3" d="M1084,229.67" transform="translate(-862.58 -234.67)"/><path class="cls-4" d="M963.63,263.92a13.32,13.32,0,0,0-25.76-6.76" transform="translate(-862.58 -234.67)"/><path class="cls-3" d="M958.67,356.87" transform="translate(-862.58 -234.67)"/><path class="cls-5" d="M886.47,343.78c.18.35-36.64-28.38-3.71-61.72C882.76,282.06,867.43,306.07,886.47,343.78Z" transform="translate(-862.58 -234.67)"/></g></svg>