<svg id="Layer_4" data-name="Layer 4" xmlns="http://www.w3.org/2000/svg" viewBox="0 0 47.93 63.78"><defs><style>.cls-1{fill:#f0592a;}.cls-2{fill:#070707;}.cls-3{fill:none;stroke:#070707;stroke-miterlimit:10;}.cls-4{fill:#fffdfd;}</style></defs><title>Collectible</title><g id="Layer_8" data-name="Layer 8"><path class="cls-1" d="M762.45,287.54a26.85,26.85,0,0,1,4.6-14.08s3.17-9.41,2.89-10.59-.67-14.58,5.16-17.91a15.53,15.53,0,0,1,17.5,1.5c4.77,3.85,7.09,6,7.67,7.16s5.92,11,5.92,11,2.83,11.42,3,16.67,1.33,16.25-10,21.67-27.92.75-30.17-2.5C769,300.46,761.25,294.56,762.45,287.54Z" transform="translate(-761.84 -242.3)"/><circle class="cls-2" cx="22.7" cy="18.24" r="1.62"/><ellipse class="cls-2" cx="790.02" cy="261.47" rx="1.68" ry="1.24" transform="translate(-273.73 794.64) rotate(-87.04)"/><path class="cls-3" d="M777,276.92s13.13-8.13,21.63,2.12" transform="translate(-761.84 -242.3)"/></g><g id="Layer_5" data-name="Layer 5"><path class="cls-4" d="M763.35,291.47c-.13-.18-2.13-7.43,1.19-12.43s5.81-21.25,5.68-22.69-.75-19.25,18.82-12.19c-.25.09,9.38,5.8,13.18,11.94s.44,1.19.44,1.19-11.87-17.38-26.25-11.44c0,0-2.56.5-4,6a11.7,11.7,0,0,0-.38,3.43c.1,3.12,0,11.18-3.45,18.36,0,0-7.5,12.69-3.38,21.44Z" transform="translate(-761.84 -242.3)"/></g><g id="Layer_7" data-name="Layer 7"><path class="cls-3" d="M766.31,274.57a8.42,8.42,0,0,0-.56.9c-5.82,11.21-2.42,17.7-2.42,17.7,7,15.16,25.84,12.16,25.84,12.16,17.16-.66,19.5-13.5,19.5-13.5,2-7.36-1.65-24.31-1.65-24.31-6.64-19.64-18.69-23.12-18.69-23.12-20.81-8.25-18.5,18.12-18.5,18.12S768.62,271,766.31,274.57Z" transform="translate(-761.84 -242.3)"/></g></svg>