<svg id="Layer_1" data-name="Layer 1" xmlns="http://www.w3.org/2000/svg" viewBox="0 0 588.69 582.47"><defs><style>.cls-1{fill:#9440ef;}.cls-2{fill:#ad68d4;}.cls-3{fill:#f090c7;}.cls-4{fill:#5e3756;}.cls-5{fill:#f9f7f7;stroke:#020202;stroke-miterlimit:10;stroke-width:0.5px;}.cls-6{fill:#522c50;}.cls-7{fill:#46d5c0;}.cls-8{fill:#298177;}.cls-9{fill:#2faa9a;}.cls-10{opacity:0.64;}.cls-11{fill:#f9f9f9;}.cls-12{fill:#050505;opacity:0.19;}</style></defs><title>Companion(svg)</title><path class="cls-1" d="M608.63,239.62v46.45h26.46V232.84a13.19,13.19,0,0,0-.93-4.8C623.89,238,614.22,239.73,608.63,239.62Z" transform="translate(-340.16 -219.61)"/><path class="cls-2" d="M621.86,219.61a13.23,13.23,0,0,0-13.23,13.23v6.78c5.59.11,15.26-1.58,25.53-11.58A13.2,13.2,0,0,0,621.86,219.61Z" transform="translate(-340.16 -219.61)"/><path class="cls-1" d="M608.63,239.62v46.45h26.46V232.84a13.19,13.19,0,0,0-.93-4.8C623.89,238,614.22,239.73,608.63,239.62Z" transform="translate(-340.16 -219.61)"/><path class="cls-2" d="M621.86,219.61a13.23,13.23,0,0,0-13.23,13.23v6.78c5.59.11,15.26-1.58,25.53-11.58A13.2,13.2,0,0,0,621.86,219.61Z" transform="translate(-340.16 -219.61)"/><path class="cls-1" d="M579.45,778.42l13.83-44.33L618.54,742l-15.85,50.81a13,13,0,0,1-2.32,4.3C593.54,784.47,584.81,780,579.45,778.42Z" transform="translate(-340.16 -219.61)"/><path class="cls-2" d="M586.12,801.47a13.24,13.24,0,0,1-8.69-16.57l2-6.48c5.36,1.56,14.09,6.05,20.92,18.66A13.19,13.19,0,0,1,586.12,801.47Z" transform="translate(-340.16 -219.61)"/><path class="cls-1" d="M691.27,240.69l-12.86,44.63,25.42,7.32,14.74-51.14a13.11,13.11,0,0,0,.44-4.87C706.36,243.4,696.6,242.34,691.27,240.69Z" transform="translate(-340.16 -219.61)"/><path class="cls-2" d="M709.52,225.12a13.23,13.23,0,0,0-16.37,9l-1.88,6.52c5.33,1.65,15.09,2.71,27.74-4.06A13.22,13.22,0,0,0,709.52,225.12Z" transform="translate(-340.16 -219.61)"/><path class="cls-1" d="M782.55,275.19l-27.74,37.26L776,328.25l31.79-42.69a12.92,12.92,0,0,0,2.12-4.41C795.73,283,787,278.62,782.55,275.19Z" transform="translate(-340.16 -219.61)"/><path class="cls-2" d="M805.12,267a13.24,13.24,0,0,0-18.52,2.71l-4.05,5.44c4.41,3.43,13.18,7.85,27.39,6A13.22,13.22,0,0,0,805.12,267Z" transform="translate(-340.16 -219.61)"/><path class="cls-1" d="M847,338.28l-33.15,32.54,18.53,18.88,38-37.28a13.26,13.26,0,0,0,2.77-4C858.78,348.07,850.8,342.35,847,338.28Z" transform="translate(-340.16 -219.61)"/><path class="cls-2" d="M870.52,333.71a13.23,13.23,0,0,0-18.71-.18L847,338.28c3.83,4.07,11.81,9.79,26.15,10.11A13.2,13.2,0,0,0,870.52,333.71Z" transform="translate(-340.16 -219.61)"/><path class="cls-1" d="M847,338.28l-33.15,32.54,18.53,18.88,38-37.28a13.26,13.26,0,0,0,2.77-4C858.78,348.07,850.8,342.35,847,338.28Z" transform="translate(-340.16 -219.61)"/><path class="cls-2" d="M870.52,333.71a13.23,13.23,0,0,0-18.71-.18L847,338.28c3.83,4.07,11.81,9.79,26.15,10.11A13.2,13.2,0,0,0,870.52,333.71Z" transform="translate(-340.16 -219.61)"/><path class="cls-1" d="M904,414.53,859.24,427l7.13,25.48,51.26-14.34A13.3,13.3,0,0,0,922,436C909.6,428.79,905.37,419.93,904,414.53Z" transform="translate(-340.16 -219.61)"/><path class="cls-2" d="M926.81,421.88a13.23,13.23,0,0,0-16.31-9.18L904,414.53c1.4,5.4,5.63,14.26,18,21.46A13.2,13.2,0,0,0,926.81,421.88Z" transform="translate(-340.16 -219.61)"/><path class="cls-1" d="M912.2,504.23,867.11,493.1l-6.35,25.69,51.68,12.75a13.08,13.08,0,0,0,4.89.25C910.07,519.41,910.75,509.62,912.2,504.23Z" transform="translate(-340.16 -219.61)"/><path class="cls-2" d="M928.46,521.87a13.23,13.23,0,0,0-9.68-16l-6.58-1.62c-1.45,5.39-2.13,15.18,5.13,27.56A13.23,13.23,0,0,0,928.46,521.87Z" transform="translate(-340.16 -219.61)"/><path class="cls-1" d="M356.81,519l45.09-11.14,6.34,25.69-51.68,12.76a13,13,0,0,1-4.88.25C358.93,534.18,358.25,524.39,356.81,519Z" transform="translate(-340.16 -219.61)"/><path class="cls-2" d="M340.55,536.64a13.23,13.23,0,0,1,9.67-16l6.59-1.62c1.44,5.39,2.12,15.18-5.13,27.56A13.22,13.22,0,0,1,340.55,536.64Z" transform="translate(-340.16 -219.61)"/><path class="cls-1" d="M375.79,607l40.12-23.4,13.34,22.85-46,26.82a13.17,13.17,0,0,1-4.62,1.62C382.12,621,378.7,611.75,375.79,607Z" transform="translate(-340.16 -219.61)"/><path class="cls-2" d="M365.17,628.49a13.23,13.23,0,0,1,4.76-18.09l5.86-3.42c2.91,4.77,6.33,14,2.86,27.89A13.21,13.21,0,0,1,365.17,628.49Z" transform="translate(-340.16 -219.61)"/><path class="cls-1" d="M904.2,588.52l-40.12-23.41L850.74,588l46,26.82a13.17,13.17,0,0,0,4.62,1.62C897.87,602.49,901.29,593.29,904.2,588.52Z" transform="translate(-340.16 -219.61)"/><path class="cls-2" d="M914.82,610a13.23,13.23,0,0,0-4.76-18.09l-5.86-3.42c-2.91,4.77-6.33,14-2.86,27.89A13.21,13.21,0,0,0,914.82,610Z" transform="translate(-340.16 -219.61)"/><path class="cls-1" d="M864.14,669.29l-35.42-30L811.6,659.41l40.59,34.44a13.11,13.11,0,0,0,4.26,2.4C855.47,681.94,860.44,673.47,864.14,669.29Z" transform="translate(-340.16 -219.61)"/><path class="cls-2" d="M870.84,692.32a13.23,13.23,0,0,0-1.53-18.64l-5.17-4.39c-3.7,4.18-8.67,12.65-7.69,27A13.21,13.21,0,0,0,870.84,692.32Z" transform="translate(-340.16 -219.61)"/><path class="cls-1" d="M803.16,737l-25-39.14-22.29,14.25L784.52,757a13,13,0,0,0,3.37,3.54C791.16,746.58,798.4,740,803.16,737Z" transform="translate(-340.16 -219.61)"/><path class="cls-2" d="M802.79,761a13.23,13.23,0,0,0,4-18.27L803.16,737c-4.76,2.91-12,9.54-15.27,23.5A13.19,13.19,0,0,0,802.79,761Z" transform="translate(-340.16 -219.61)"/><path class="cls-1" d="M803.16,737l-25-39.14-22.29,14.25L784.52,757a13,13,0,0,0,3.37,3.54C791.16,746.58,798.4,740,803.16,737Z" transform="translate(-340.16 -219.61)"/><path class="cls-2" d="M802.79,761a13.23,13.23,0,0,0,4-18.27L803.16,737c-4.76,2.91-12,9.54-15.27,23.5A13.19,13.19,0,0,0,802.79,761Z" transform="translate(-340.16 -219.61)"/><path class="cls-1" d="M736.7,762.88l-25-39.14L689.4,738l28.66,44.86a13,13,0,0,0,3.37,3.54C724.7,772.42,731.94,765.79,736.7,762.88Z" transform="translate(-340.16 -219.61)"/><path class="cls-2" d="M736.33,786.87a13.23,13.23,0,0,0,4-18.27l-3.66-5.72c-4.76,2.91-12,9.54-15.27,23.51A13.21,13.21,0,0,0,736.33,786.87Z" transform="translate(-340.16 -219.61)"/><path class="cls-1" d="M484.67,740.73l25-39.14L532,715.84l-28.66,44.85a13.45,13.45,0,0,1-3.37,3.55C496.68,750.27,489.44,743.64,484.67,740.73Z" transform="translate(-340.16 -219.61)"/><path class="cls-2" d="M485.05,764.72a13.24,13.24,0,0,1-4-18.28l3.65-5.71c4.77,2.91,12,9.54,15.28,23.51A13.21,13.21,0,0,1,485.05,764.72Z" transform="translate(-340.16 -219.61)"/><path class="cls-1" d="M411.61,684.06,447,654l17.12,20.18-40.59,34.44a13,13,0,0,1-4.26,2.4C420.27,696.71,415.3,688.24,411.61,684.06Z" transform="translate(-340.16 -219.61)"/><path class="cls-2" d="M404.91,707.09a13.22,13.22,0,0,1,1.52-18.64l5.18-4.39c3.69,4.18,8.66,12.65,7.68,27A13.2,13.2,0,0,1,404.91,707.09Z" transform="translate(-340.16 -219.61)"/><path class="cls-1" d="M373,425.6l44.73,12.52-7.13,25.48-51.26-14.34a13.2,13.2,0,0,1-4.37-2.19C367.41,439.87,371.64,431,373,425.6Z" transform="translate(-340.16 -219.61)"/><path class="cls-2" d="M350.2,433a13.23,13.23,0,0,1,16.31-9.17L373,425.6c-1.4,5.41-5.63,14.27-18,21.47A13.21,13.21,0,0,1,350.2,433Z" transform="translate(-340.16 -219.61)"/><path class="cls-1" d="M423.92,345.67l33.15,32.53-18.54,18.89-38-37.29a13,13,0,0,1-2.77-4C412.11,355.45,420.08,349.73,423.92,345.67Z" transform="translate(-340.16 -219.61)"/><path class="cls-2" d="M400.37,341.09a13.23,13.23,0,0,1,18.71-.17l4.84,4.75c-3.84,4.06-11.81,9.78-26.15,10.11A13.21,13.21,0,0,1,400.37,341.09Z" transform="translate(-340.16 -219.61)"/><path class="cls-1" d="M482.16,291.81,500,334.7l-24.44,10.16L455.12,295.7a13.06,13.06,0,0,1-1-4.79C467.47,296.21,477,294.06,482.16,291.81Z" transform="translate(-340.16 -219.61)"/><path class="cls-2" d="M462.26,278.41a13.22,13.22,0,0,1,17.29,7.14l2.61,6.26c-5.12,2.25-14.69,4.4-28-.9A13.19,13.19,0,0,1,462.26,278.41Z" transform="translate(-340.16 -219.61)"/><path class="cls-1" d="M551.13,244.38,564,289l-25.43,7.33-14.74-51.15a13.31,13.31,0,0,1-.44-4.87C536,247.09,545.8,246,551.13,244.38Z" transform="translate(-340.16 -219.61)"/><path class="cls-2" d="M532.88,228.81a13.24,13.24,0,0,1,16.38,9.05l1.87,6.52c-5.33,1.65-15.09,2.71-27.74-4.06A13.23,13.23,0,0,1,532.88,228.81Z" transform="translate(-340.16 -219.61)"/><path class="cls-3" d="M880.32,509c-1.6,144-110.21,241.35-246.17,241.35S388,642.31,388,509,498.2,267.68,634.15,267.68,881.8,375.74,880.32,509Z" transform="translate(-340.16 -219.61)"/><path class="cls-4" d="M578.52,400.2c2.25,1.34,4.33,2.84,6.41,4.33,1.59,1.91,3.24,3.78,4.86,5.67l9.76,11.3,9.77,11.3,4.88,5.66c1.16,2.28,2.35,4.55,3.37,7-2.24-1.35-4.31-2.85-6.4-4.34l-4.88-5.65-9.76-11.3-9.77-11.31c-1.63-1.88-3.24-3.78-4.89-5.64C580.69,404.9,579.51,402.63,578.52,400.2Z" transform="translate(-340.16 -219.61)"/><path class="cls-4" d="M578.52,400.2c2.25,1.34,4.33,2.84,6.41,4.33,1.59,1.91,3.24,3.78,4.86,5.67l9.76,11.3,9.77,11.3,4.88,5.66c1.16,2.28,2.35,4.55,3.37,7-2.24-1.35-4.31-2.85-6.4-4.34l-4.88-5.65-9.76-11.3-9.77-11.31c-1.63-1.88-3.24-3.78-4.89-5.64C580.69,404.9,579.51,402.63,578.52,400.2Z" transform="translate(-340.16 -219.61)"/><path class="cls-4" d="M617.57,400.2c-1,2.43-2.18,4.7-3.36,7-1.65,1.86-3.26,3.76-4.89,5.64l-9.77,11.31-9.76,11.3-4.88,5.65c-2.09,1.49-4.16,3-6.39,4.34,1-2.4,2.2-4.67,3.36-7l4.88-5.66,9.77-11.3,9.76-11.3c1.62-1.89,3.27-3.76,4.87-5.67C613.23,403,615.31,401.54,617.57,400.2Z" transform="translate(-340.16 -219.61)"/><path class="cls-4" d="M683.16,401.15c2.26,1.34,4.33,2.84,6.41,4.33,1.59,1.91,3.24,3.78,4.86,5.67l9.77,11.3,9.76,11.3,4.88,5.65c1.17,2.29,2.35,4.56,3.37,7-2.24-1.36-4.31-2.85-6.4-4.34l-4.88-5.65-9.76-11.31-9.76-11.3c-1.64-1.88-3.24-3.78-4.9-5.64C685.33,405.85,684.15,403.58,683.16,401.15Z" transform="translate(-340.16 -219.61)"/><path class="cls-4" d="M683.16,401.15c2.26,1.34,4.33,2.84,6.41,4.33,1.59,1.91,3.24,3.78,4.86,5.67l9.77,11.3,9.76,11.3,4.88,5.65c1.17,2.29,2.35,4.56,3.37,7-2.24-1.36-4.31-2.85-6.4-4.34l-4.88-5.65-9.76-11.31-9.76-11.3c-1.64-1.88-3.24-3.78-4.9-5.64C685.33,405.85,684.15,403.58,683.16,401.15Z" transform="translate(-340.16 -219.61)"/><path class="cls-4" d="M722.21,401.15c-1,2.43-2.18,4.7-3.36,7-1.65,1.86-3.26,3.76-4.89,5.64l-9.76,11.3-9.77,11.31L689.55,442c-2.09,1.49-4.16,3-6.39,4.34,1-2.4,2.2-4.67,3.36-7l4.89-5.65,9.76-11.3,9.76-11.3c1.62-1.89,3.27-3.76,4.87-5.67C717.88,404,720,402.49,722.21,401.15Z" transform="translate(-340.16 -219.61)"/><path class="cls-5" d="M686.91,549.19s17.23-34.77,27.69-19.53v22H762l14.42-20.16C707.22,488,610.58,489.87,549.13,497.06l-.68,8.82S573.68,549.19,686.91,549.19Z" transform="translate(-340.16 -219.61)"/><path class="cls-6" d="M763.05,616.45c29.4-31.78,37.08-67.28,37.08-67.28a176.56,176.56,0,0,0-23.73-17.91L762,551.61H714.6V529.46c-10.46-15.38-27.69,19.71-27.69,19.71-113.23,0-138.46-43.71-138.46-43.71l.68-8.91C513.72,500.73,490,506.69,490,506.69c-1.86,69.67,19.88,109.32,47.65,131.74C558.25,606.61,633.74,514,763.05,616.45Z" transform="translate(-340.16 -219.61)"/><path class="cls-7" d="M714.91,585.15C651,554.89,603,573.77,572.06,598,596.17,610.59,652.42,630.25,714.91,585.15Z" transform="translate(-340.16 -219.61)"/><path class="cls-8" d="M556.21,612.8a186,186,0,0,0-19.21,25c.74.61,1.47,1.25,2.22,1.84,46,35.77,106.83,25.83,106.83,25.83,57.25-1.1,94.18-24,117.67-49.38a277.77,277.77,0,0,0-34.39-23.41C649.07,660,575.31,624.18,556.21,612.8Z" transform="translate(-340.16 -219.61)"/><path class="cls-9" d="M558.23,610.6c17.91,10.79,90.56,46.94,169.83-18.64q-6.69-3.76-13.15-6.81c-62.49,45.1-118.74,25.44-142.85,12.86a165.81,165.81,0,0,0-16.22,14.57l.37.22C556.88,612.07,557.53,611.34,558.23,610.6Z" transform="translate(-340.16 -219.61)"/><path class="cls-9" d="M729.33,592.68l-1.27-.72c-79.27,65.58-151.92,29.43-169.83,18.64-.7.74-1.35,1.47-2,2.2C575.31,624.18,649.07,660,729.33,592.68Z" transform="translate(-340.16 -219.61)"/><g class="cls-10"><path class="cls-11" d="M447.1,402.43a3.74,3.74,0,0,1-3-3.17c-1.31-10.75-1.61-54.11,70.6-89.31,0,0,60.33-33.75,114.62-11.37a9.24,9.24,0,0,1,5.62,7.29c.47,3.58-.59,8.13-7,11.64,0,0-130.14,70.25-152.87,79.07-2.51,1-4.94,2.08-7.38,3.21C463.26,401.87,455.66,404.32,447.1,402.43Z" transform="translate(-340.16 -219.61)"/><path class="cls-11" d="M427,444.37s14.87,19.36,27.63-8.13a19.8,19.8,0,0,0,1.54-12.62c-1.26-5.49-5.34-11.44-17.33-10.63a10.65,10.65,0,0,0-8.23,4.85C426.47,424.33,420,436.93,427,444.37Z" transform="translate(-340.16 -219.61)"/></g><path class="cls-12" d="M818.44,348.39S969.18,626,564,740.4c0,0,245.48,65.64,310.29-177C874.29,563.35,905.78,437.65,818.44,348.39Z" transform="translate(-340.16 -219.61)"/></svg>