<svg xmlns="http://www.w3.org/2000/svg" viewBox="0 0 839.67 694.58"><defs><style>.cls-1{fill:#c10c4d;}.cls-2{fill:#6d9793;}.cls-3{fill:#7db1af;}.cls-4{fill:#f9f9f9;}.cls-11,.cls-25,.cls-31,.cls-37,.cls-46,.cls-5,.cls-56,.cls-60,.cls-62,.cls-64,.cls-7,.cls-71,.cls-74,.cls-82{fill:none;}.cls-5{stroke:#4d3a1d;}.cls-11,.cls-12,.cls-19,.cls-25,.cls-31,.cls-37,.cls-46,.cls-5,.cls-56,.cls-59,.cls-60,.cls-61,.cls-62,.cls-63,.cls-64,.cls-7,.cls-71,.cls-74,.cls-82{stroke-miterlimit:10;}.cls-6{fill:#d56839;}.cls-7{stroke:#f2cb53;}.cls-8{fill:#f2cb53;}.cls-9{fill:#d9683d;}.cls-10{fill:#523c30;}.cls-11,.cls-12,.cls-19{stroke:#503a29;}.cls-11,.cls-12,.cls-37,.cls-64,.cls-74{stroke-width:2px;}.cls-12,.cls-19{fill:#85b1aa;}.cls-13{fill:#f0f2f2;}.cls-14{fill:#9ed9cf;}.cls-15,.cls-59,.cls-61,.cls-63{fill:#fff;}.cls-16{fill:#fdffff;}.cls-17{fill:#eff4f3;}.cls-18{fill:#f2f4f4;}.cls-20{fill:#f7f7f7;}.cls-21{fill:#f8fff8;}.cls-22{fill:#8f3a30;}.cls-23{fill:#c14944;}.cls-24{fill:#d5786e;}.cls-25{stroke:#3e3123;}.cls-26{fill:#7cb3aa;}.cls-27{fill:#8fccd1;}.cls-28{fill:#b8f2f4;}.cls-29,.cls-30{fill:#fafcfc;}.cls-29{opacity:0.93;}.cls-31{stroke:#070707;}.cls-32{fill:#617b84;}.cls-33{fill:#7eb4ac;}.cls-34{fill:#4b7672;}.cls-35{fill:#9dd9d0;}.cls-36{fill:#baece5;}.cls-37,.cls-46,.cls-71{stroke:#523d2b;}.cls-38{fill:#dd6440;}.cls-39{fill:#fcf6ec;}.cls-40{fill:#ead14f;}.cls-41{fill:#8b392f;}.cls-42{fill:#7e519a;}.cls-43{fill:#a871cf;}.cls-44{fill:#613877;}.cls-45{fill:#f9fbff;opacity:0.9;}.cls-47{fill:#7cb4a9;}.cls-48{fill:#9cdacf;opacity:0.68;}.cls-49{fill:#597a7d;}.cls-50{fill:#7f5699;}.cls-51{fill:#633e76;}.cls-52{fill:#84559c;}.cls-53{fill:#fffcf5;}.cls-54{fill:#050505;opacity:0.24;}.cls-55{fill:#a86ecc;}.cls-56,.cls-59{stroke:#543c23;}.cls-57{fill:#633d83;}.cls-58{fill:#825689;}.cls-60,.cls-61,.cls-74{stroke:#5a422c;}.cls-62,.cls-63{stroke:#594032;}.cls-64{stroke:#534122;}.cls-65{fill:#d9776e;}.cls-66{fill:#8a3d35;}.cls-67{fill:#bf443b;}.cls-68{fill:#eaa79d;}.cls-69{fill:#e7a49a;}.cls-70{fill:#9d3933;}.cls-71{stroke-width:3px;}.cls-72{fill:#c66b36;}.cls-73{fill:#fbfbf6;}.cls-75{fill:#62777a;}.cls-76{fill:#c3463f;}.cls-77{fill:#873c33;}.cls-78{fill:#bc493d;}.cls-79{fill:#f7fffc;}.cls-80{fill:#d36b2e;}.cls-81{fill:#fdfffd;}.cls-82{stroke:#5c4233;}.cls-83{fill:#3e3123;}.cls-84,.cls-85{fill:#f9f5ff;}.cls-84{opacity:0.28;}.cls-85{opacity:0.43;}</style></defs><title>FinalHeartBoss</title><g id="Layer_1" data-name="Layer 1"><path class="cls-1" d="M961.2,887.17S551.72,621.38,544.52,454.72c0,0-27.89-154.68,112.5-236.38,0,0,155.69-96.94,304.18,87.15,0,0,132.3-183,314.09-79.52,0,0,161.09,92.59,87.3,285.39C1362.59,511.36,1313.09,651.88,961.2,887.17Z" transform="translate(-542.27 -192.58)"/><g id="Bacteria"><path class="cls-2" d="M750.64,368.65a6.29,6.29,0,0,0-5.48,3.93h-.09l-16.88,1A38.5,38.5,0,0,0,726,365l14.47-4.46c1.86-.58,3.16-2.07,2.9-3.35s-2-1.83-3.83-1.26l-15.46,4.78a41.32,41.32,0,0,0-2.2-3.75l11.24-5.93.07,0c1.17,1.59,3.48,2,5.67.86,2.6-1.38,4-4.44,3.22-6.84s-3.61-3.24-6.22-1.87a6.49,6.49,0,0,0-3.43,5.05l-.07,0-12.14,6.4a44.15,44.15,0,0,0-6-6.42l13.85-11.17c1.93-1.55,3-3.7,2.44-4.8s-2.61-.72-4.53.83l-15.29,12.33a48.2,48.2,0,0,0-5.88-3.65L710.72,330l0-.08c1.79.62,3.87-.43,5-2.72,1.38-2.72.92-6.14-1-7.63s-4.62-.51-6,2.21a7,7,0,0,0-.1,6.27l0,.08-6.28,12.43a52.58,52.58,0,0,0-8.1-2.91l.51-8.57V329c2.7-.32,4.79-2.1,4.93-4.46.17-2.8-2.47-5.33-5.89-5.65s-6.33,1.71-6.5,4.51a5.43,5.43,0,0,0,3.62,5.06v.08l-.49,8.24a53.9,53.9,0,0,0-10.18-1c-1.52,0-3,.08-4.51.2l-1.24-14.63c-.19-2.24-1.43-3.92-2.76-3.75s-2.27,2.14-2.08,4.38l1.24,14.62a52.7,52.7,0,0,0-10.12,2.82l-7.5-16.6,0-.09a8.24,8.24,0,0,0,1.64-8.67c-1.49-3.27-5.24-4.14-8.37-1.94a8.39,8.39,0,0,0-3,9.89,5.16,5.16,0,0,0,6.07,3l0,.09,7.26,16a49.12,49.12,0,0,0-5.21,3l-12.4-13.44c-1.57-1.69-3.4-2.26-4.1-1.28s0,3.16,1.58,4.86l11.42,12.37a46.63,46.63,0,0,0-5.67,5.28s-.07-.08-.11-.11l-15.2-9.72h0a5.9,5.9,0,0,1-2.41-4.32c-.13-1.12-.68-2.11-2.43-3.23a9.82,9.82,0,0,0-2.86-1.27c-4.27,1.61-4.14,6.16-3.84,8.2.22.26.45.53.7.78a11.62,11.62,0,0,0,2.09,1.69c1.35.87,1.92.92,2.36.61a3.43,3.43,0,0,1,3.77-.33l1.06.58.24.15,14.65,9.36a42.4,42.4,0,0,0-4.09,6.38l-17.7-7.59c-2.38-1-5-.77-5.88.55s.35,3.21,2.72,4.23l18.62,8a38.68,38.68,0,0,0-2,8.71l-16-.15h-.1a6.61,6.61,0,0,0-6.45-4.36c-3.71,0-6.73,2.51-6.75,5.68s3,5.78,6.68,5.81a6.74,6.74,0,0,0,6.25-3.56h.1l16,.15c0,.15,0,.31,0,.46a38.33,38.33,0,0,0,1.19,9.44l-17.13,2.23c-2.45.32-4.3,1.6-4.15,2.87s2.28,2,4.72,1.72l18-2.34a40.86,40.86,0,0,0,2.27,4.83l-15.52,8.78c-2.29,1.29-4,3.72-4,5.42s2,2,4.33.74L639.9,402a44.93,44.93,0,0,0,7.43,7.81l-5.06,8.05c-1.33,2.12-1.89,4.85-1.24,6.09s2.24.53,3.57-1.59l6.23-9.91a50.38,50.38,0,0,0,15.1,7l-1.51,5,0,.11c-2.41-.21-4.84,1.76-5.82,5-1.16,3.88.16,8.06,2.95,9.34s6-.81,7.16-4.69a8.87,8.87,0,0,0-1.23-8l0-.11,1.79-5.95a54.26,54.26,0,0,0,11,1.13,54.82,54.82,0,0,0,9.84-.89l.46,2.23,0,.1a7.17,7.17,0,0,0-2.64,7.31c.72,3.49,3.62,5.58,6.49,4.67s4.61-4.46,3.89-7.95a5.77,5.77,0,0,0-4.47-4.82l0-.09-.44-2.17a52,52,0,0,0,10.38-3.82l11,10.87c1.67,1.66,3.83,2.39,4.84,1.64s.46-2.7-1.21-4.35l-10.52-10.43a47.3,47.3,0,0,0,8.93-7.14l10.62,8.53c1.86,1.49,4.16,2,5.13,1.07s.25-2.84-1.61-4.34l-11-8.83a41,41,0,0,0,5.55-9.35L739,399.48l.09,0c.12,2,1.93,4.28,4.54,5.41,3.09,1.34,6.12.6,6.76-1.66s-1.35-5.18-4.45-6.52c-2.36-1-4.67-.83-5.93.32l-.08,0-13.55-5.88a38.1,38.1,0,0,0,2.12-12.55c0-.5,0-1,0-1.49l16.52-1h.09a5.84,5.84,0,0,0,6.06,3.8,6,6,0,0,0,5.82-6A5.7,5.7,0,0,0,750.64,368.65Z" transform="translate(-542.27 -192.58)"/><path class="cls-2" d="M678.8,400.73c0-4-3.51-7.22-7.84-7.22s-7.85,3.23-7.85,7.22a6.53,6.53,0,0,0,.73,3A43.91,43.91,0,0,0,674.18,405c1.08,0,2.16,0,3.22-.12A6.77,6.77,0,0,0,678.8,400.73Z" transform="translate(-542.27 -192.58)"/><path class="cls-2" d="M655.29,384.22c0-4.39-3.83-8-8.56-8a8.61,8.61,0,0,0-7.89,4.84,26.71,26.71,0,0,0,5.29,10.69,9.23,9.23,0,0,0,2.6.37C651.46,392.17,655.29,388.61,655.29,384.22Z" transform="translate(-542.27 -192.58)"/><path class="cls-2" d="M643.18,370.56a4.78,4.78,0,0,0,0-9.52,3.57,3.57,0,0,0-.87.1,28.48,28.48,0,0,0-3,6.69A4.3,4.3,0,0,0,643.18,370.56Z" transform="translate(-542.27 -192.58)"/><path class="cls-2" d="M702.66,355.6a3.91,3.91,0,0,0,3.32-2.14,33.79,33.79,0,0,0-6.9-5.3,6,6,0,0,0-.51,2.38C698.57,353.33,700.4,355.6,702.66,355.6Z" transform="translate(-542.27 -192.58)"/><path class="cls-3" d="M699.36,377.52c0-4.16,3.82-7.54,8.55-7.54a9.12,9.12,0,0,1,6.07,2.23,26.51,26.51,0,0,0-8-18.75,3.91,3.91,0,0,1-3.32,2.14c-2.26,0-4.09-2.27-4.09-5.06a6,6,0,0,1,.51-2.38,42.51,42.51,0,0,0-24.21-5.34c-14.36,1-26.5,8.34-32.56,18.32a3.57,3.57,0,0,1,.87-.1,4.78,4.78,0,0,1,0,9.52,4.3,4.3,0,0,1-3.89-2.73,26,26,0,0,0-1.13,7.56,25.22,25.22,0,0,0,.68,5.72,8.61,8.61,0,0,1,7.89-4.84c4.73,0,8.56,3.56,8.56,8s-3.83,7.95-8.56,7.95a9.23,9.23,0,0,1-2.6-.37,35.78,35.78,0,0,0,19.71,11.94,6.53,6.53,0,0,1-.73-3c0-4,3.51-7.22,7.85-7.22s7.84,3.23,7.84,7.22a6.77,6.77,0,0,1-1.4,4.1c14.93-1,28-9.11,33.6-20.28a9.49,9.49,0,0,1-3.09.52C703.18,385.07,699.36,381.69,699.36,377.52Z" transform="translate(-542.27 -192.58)"/><ellipse class="cls-2" cx="137.4" cy="190.73" rx="3.62" ry="4.49"/><path class="cls-2" d="M714,372.21a9.12,9.12,0,0,0-6.07-2.23c-4.73,0-8.55,3.38-8.55,7.54s3.82,7.55,8.55,7.55a9.49,9.49,0,0,0,3.09-.52,27.32,27.32,0,0,0,3-11.68Z" transform="translate(-542.27 -192.58)"/><path class="cls-4" d="M617.77,343.65s-1.1-10.67,4.37-9c0,0-4.77-2.21-6.41,2C615.73,336.58,614.53,339.49,617.77,343.65Z" transform="translate(-542.27 -192.58)"/><path class="cls-4" d="M635.83,333s-1.13-3.85,2.12-3.47c0,0-1.81-1.31-2.74-.13C635.21,329.43,634.27,330.52,635.83,333Z" transform="translate(-542.27 -192.58)"/><path class="cls-4" d="M645.1,324.09s2.22-12.65,7.41-12.55c0,0-5.11-2.87-8.82,4.14C643.69,315.68,641.24,320.65,645.1,324.09Z" transform="translate(-542.27 -192.58)"/><path class="cls-4" d="M669.65,321.55s2.57-3.15,4.49-1.83c0,0-1-2.58-2.65-2C671.49,317.72,669.65,318.25,669.65,321.55Z" transform="translate(-542.27 -192.58)"/><path class="cls-4" d="M687.69,322s10.37-1.46,10.67,5.48c0,0,4.1-4.14-2.07-7.84,0,0-4.49-2.2-7.91,1.29Z" transform="translate(-542.27 -192.58)"/><path class="cls-4" d="M708.68,322s6.84-2.72,7.86,1.16c0,0-.52-4.78-4.37-4.21C712.17,319,710,319.16,708.68,322Z" transform="translate(-542.27 -192.58)"/><path class="cls-4" d="M727.49,332.46s2.68-.32,2.31,2.8a2.94,2.94,0,0,0,.38-2.63S729.43,331.53,727.49,332.46Z" transform="translate(-542.27 -192.58)"/><path class="cls-4" d="M738.23,342.54s1.75,8.49-1.07,9.95a6.38,6.38,0,0,0,5.17-6.27A3.81,3.81,0,0,0,738.23,342.54Z" transform="translate(-542.27 -192.58)"/><path class="cls-4" d="M741.46,355.78l-2.65,5.32s5.85-1.39,4.39-4.38A2.91,2.91,0,0,0,741.46,355.78Z" transform="translate(-542.27 -192.58)"/><path class="cls-4" d="M750.79,368.65s3.81,6.59,1.34,11.08c0,0,5.72-1.27,4.69-6.91A6,6,0,0,0,750.79,368.65Z" transform="translate(-542.27 -192.58)"/><path class="cls-4" d="M747.81,397.82c-1.93-2.38,1.07,7.44-3.26,7.44,0,0,4.42,1.54,5.86-2C750.41,403.27,751.27,400.39,747.81,397.82Z" transform="translate(-542.27 -192.58)"/><path class="cls-4" d="M728.25,415.65s3.83-1.47,2.66-3.87c0,0,2.63,2,1.87,4C732.78,415.78,731.77,417.63,728.25,415.65Z" transform="translate(-542.27 -192.58)"/><path class="cls-4" d="M715.42,427.41s3.31.67,2.94-3.32c0,0,3,3.15,1,4.47C719.37,428.56,717.93,429.4,715.42,427.41Z" transform="translate(-542.27 -192.58)"/><path class="cls-4" d="M688.43,431.64c0,3.61,8.07-5.35,10.05-2.9,0,0-.3,5.2-4.51,6.16C694,434.9,690.32,435.76,688.43,431.64Z" transform="translate(-542.27 -192.58)"/><path class="cls-4" d="M668.26,435.39c-.74,2.57-8-6.48-10.06-3.93,0,0-.8,5.43,3.61,7.61C661.81,439.07,665.77,440.51,668.26,435.39Z" transform="translate(-542.27 -192.58)"/><path class="cls-4" d="M641.57,419.58s-1.07,5.28,2.24,3.8c0,0-1.44,1.7-2.49.22A5.77,5.77,0,0,1,641.57,419.58Z" transform="translate(-542.27 -192.58)"/><path class="cls-4" d="M618.23,409.08s2.12,3.52,5.13,2.3c0,0-4,2.63-5.39,1.32C618,412.7,616.56,411.71,618.23,409.08Z" transform="translate(-542.27 -192.58)"/><path class="cls-4" d="M613.37,391.12c-1,.36,4.13,3.8,1.87,3.8,0,0-2.74-.09-3.27-1.53C612,393.39,611.38,392.27,613.37,391.12Z" transform="translate(-542.27 -192.58)"/><path class="cls-4" d="M602.87,375.68c.34,4.57,4.81,5.6,4.81,5.6-5.52-3.66-.81-10.71-.81-10.71A6,6,0,0,0,602.87,375.68Z" transform="translate(-542.27 -192.58)"/><path class="cls-4" d="M616.32,352.5s2.08,3.75-1.55,5c0,0-2.6-1.34-2.11-3.39C612.66,354.09,613.2,352.35,616.32,352.5Z" transform="translate(-542.27 -192.58)"/><path class="cls-5" d="M750.64,368.65a6.29,6.29,0,0,0-5.48,3.93h-.09l-16.88,1A38.5,38.5,0,0,0,726,365l14.47-4.46c1.86-.58,3.16-2.07,2.9-3.35s-2-1.83-3.83-1.26l-15.46,4.78a41.32,41.32,0,0,0-2.2-3.75l11.24-5.93.07,0c1.17,1.59,3.48,2,5.67.86,2.6-1.38,4-4.44,3.22-6.84s-3.61-3.24-6.22-1.87a6.49,6.49,0,0,0-3.43,5.05l-.07,0-12.14,6.4a44.15,44.15,0,0,0-6-6.42l13.85-11.17c1.93-1.55,3-3.7,2.44-4.8s-2.61-.72-4.53.83l-15.29,12.33a48.2,48.2,0,0,0-5.88-3.65L710.72,330l0-.08c1.79.62,3.87-.43,5-2.72,1.38-2.72.92-6.14-1-7.63s-4.62-.51-6,2.21a7,7,0,0,0-.1,6.27l0,.08-6.28,12.43a52.58,52.58,0,0,0-8.1-2.91l.51-8.57V329c2.7-.32,4.79-2.1,4.93-4.46.17-2.8-2.47-5.33-5.89-5.65s-6.33,1.71-6.5,4.51a5.43,5.43,0,0,0,3.62,5.06v.08l-.49,8.24a53.9,53.9,0,0,0-10.18-1c-1.52,0-3,.08-4.51.2l-1.24-14.63c-.19-2.24-1.43-3.92-2.76-3.75s-2.27,2.14-2.08,4.38l1.24,14.62a52.7,52.7,0,0,0-10.12,2.82l-7.5-16.6,0-.09a8.24,8.24,0,0,0,1.64-8.67c-1.49-3.27-5.24-4.14-8.37-1.94a8.39,8.39,0,0,0-3,9.89,5.16,5.16,0,0,0,6.07,3l0,.09,7.26,16a49.12,49.12,0,0,0-5.21,3l-12.4-13.44c-1.57-1.69-3.4-2.26-4.1-1.28s0,3.16,1.58,4.86l11.42,12.37a46.63,46.63,0,0,0-5.67,5.28s-.07-.08-.11-.11l-15.2-9.72h0a5.9,5.9,0,0,1-2.41-4.32c-.13-1.12-.68-2.11-2.43-3.23a9.82,9.82,0,0,0-2.86-1.27c-4.27,1.61-4.14,6.16-3.84,8.2.22.26.45.53.7.78a11.62,11.62,0,0,0,2.09,1.69c1.35.87,1.92.92,2.36.61a3.43,3.43,0,0,1,3.77-.33l1.06.58.24.15,14.65,9.36a42.4,42.4,0,0,0-4.09,6.38l-17.7-7.59c-2.38-1-5-.77-5.88.55s.35,3.21,2.72,4.23l18.62,8a38.68,38.68,0,0,0-2,8.71l-16-.15h-.1a6.61,6.61,0,0,0-6.45-4.36c-3.71,0-6.73,2.51-6.75,5.68s3,5.78,6.68,5.81a6.74,6.74,0,0,0,6.25-3.56h.1l16,.15c0,.15,0,.31,0,.46a38.33,38.33,0,0,0,1.19,9.44l-17.13,2.23c-2.45.32-4.3,1.6-4.15,2.87s2.28,2,4.72,1.72l18-2.34a40.86,40.86,0,0,0,2.27,4.83l-15.52,8.78c-2.29,1.29-4,3.72-4,5.42s2,2,4.33.74L639.9,402a44.93,44.93,0,0,0,7.43,7.81l-5.06,8.05c-1.33,2.12-1.89,4.85-1.24,6.09s2.24.53,3.57-1.59l6.23-9.91a50.38,50.38,0,0,0,15.1,7l-1.51,5,0,.11c-2.41-.21-4.84,1.76-5.82,5-1.16,3.88.16,8.06,2.95,9.34s6-.81,7.16-4.69a8.87,8.87,0,0,0-1.23-8l0-.11,1.79-5.95a54.26,54.26,0,0,0,11,1.13,54.82,54.82,0,0,0,9.84-.89l.46,2.23,0,.1a7.17,7.17,0,0,0-2.64,7.31c.72,3.49,3.62,5.58,6.49,4.67s4.61-4.46,3.89-7.95a5.77,5.77,0,0,0-4.47-4.82l0-.09-.44-2.17a52,52,0,0,0,10.38-3.82l11,10.87c1.67,1.66,3.83,2.39,4.84,1.64s.46-2.7-1.21-4.35l-10.52-10.43a47.3,47.3,0,0,0,8.93-7.14l10.62,8.53c1.86,1.49,4.16,2,5.13,1.07s.25-2.84-1.61-4.34l-11-8.83a41,41,0,0,0,5.55-9.35L739,399.48l.09,0c.12,2,1.93,4.28,4.54,5.41,3.09,1.34,6.12.6,6.76-1.66s-1.35-5.18-4.45-6.52c-2.36-1-4.67-.83-5.93.32l-.08,0-13.55-5.88a38.1,38.1,0,0,0,2.12-12.55c0-.5,0-1,0-1.49l16.52-1h.09a5.84,5.84,0,0,0,6.06,3.8,6,6,0,0,0,5.82-6A5.7,5.7,0,0,0,750.64,368.65Z" transform="translate(-542.27 -192.58)"/><g id="Layer_5" data-name="Layer 5"><path class="cls-6" d="M821.62,328.66s-.22-26.93,6.46-32.54c0,0,7.88-10.31,50.33,3.64,0,0,58.91-4.65,64.87,34.05,0,0,7.64,53.58-80.46,54.08a46.2,46.2,0,0,1-9.67-.92C838.46,383.93,800.51,371.7,821.62,328.66Z" transform="translate(-542.27 -192.58)"/><path class="cls-7" d="M931.37,343.22c-.75,19-23.87,35.78-51.4,37.35-27.25,1.55-48.11-12.48-46.82-31.15,1.27-18.46,23.77-34.76,50.49-36.6C910.63,311,932.1,324.47,931.37,343.22Z" transform="translate(-542.27 -192.58)"/><path class="cls-8" d="M931.37,343.22c-.75,19-23.87,35.78-51.4,37.35-27.25,1.55-48.11-12.48-46.82-31.15,1.27-18.46,23.77-34.76,50.49-36.6C910.63,311,932.1,324.47,931.37,343.22Z" transform="translate(-542.27 -192.58)"/><ellipse class="cls-9" cx="307.94" cy="155.61" rx="8.3" ry="6.32"/><ellipse class="cls-9" cx="341.8" cy="145.98" rx="10.21" ry="7.38"/><ellipse class="cls-9" cx="325.76" cy="129.28" rx="3.06" ry="2.5"/><ellipse class="cls-9" cx="353.22" cy="128.25" rx="4.04" ry="2.58"/><ellipse class="cls-9" cx="378.13" cy="144.41" rx="5.51" ry="3.79"/><ellipse class="cls-9" cx="368.02" cy="166.09" rx="7.33" ry="5.15"/><ellipse class="cls-9" cx="340.84" cy="174.53" rx="3.59" ry="2.88"/><ellipse class="cls-9" cx="312.49" cy="172.35" rx="4.55" ry="3.33"/><circle class="cls-10" cx="369.03" cy="124.29" r="2.28"/><circle class="cls-10" cx="375.35" cy="127" r="2.28"/><circle class="cls-10" cx="380.41" cy="131.56" r="2.28"/><circle class="cls-10" cx="384.45" cy="135.4" r="2.28"/><circle class="cls-10" cx="387.58" cy="140.62" r="2.28"/><circle class="cls-10" cx="389.12" cy="145.98" r="2.28"/><circle class="cls-10" cx="389.12" cy="151.34" r="2.28"/><circle class="cls-10" cx="388.41" cy="156.69" r="2.28"/><circle class="cls-10" cx="386.13" cy="162.05" r="2.28"/><circle class="cls-10" cx="382.69" cy="166.74" r="2.28"/><circle class="cls-10" cx="378.55" cy="171.24" r="2.28"/><circle class="cls-10" cx="373.98" cy="175.69" r="2.28"/><circle class="cls-10" cx="368.02" cy="179.02" r="2.28"/><circle class="cls-10" cx="361.66" cy="182.56" r="2.28"/><circle class="cls-10" cx="311.44" cy="184.28" r="2.28"/><circle class="cls-10" cx="304.57" cy="180.84" r="2.28"/><circle class="cls-10" cx="299.64" cy="176.74" r="2.28"/><circle class="cls-10" cx="294.99" cy="172.35" r="2.28"/><circle class="cls-10" cx="292.26" cy="167.81" r="2.28"/><circle class="cls-10" cx="290.82" cy="162.18" r="2.28"/><circle class="cls-10" cx="290.82" cy="157.13" r="2.28"/><circle class="cls-10" cx="291.63" cy="151.34" r="2.28"/><circle class="cls-10" cx="293.91" cy="146.69" r="2.28"/><circle class="cls-10" cx="297.45" cy="141.26" r="2.28"/><circle class="cls-10" cx="301.92" cy="136.32" r="2.28"/><circle class="cls-10" cx="306.02" cy="133.12" r="2.28"/><circle class="cls-10" cx="312.41" cy="129.28" r="2.28"/><circle class="cls-10" cx="318.51" cy="125.96" r="2.28"/><circle class="cls-10" cx="324.98" cy="123.39" r="2.28"/><circle class="cls-10" cx="332.29" cy="122.01" r="2.28"/><circle class="cls-10" cx="339.53" cy="120.6" r="2.28"/><circle class="cls-10" cx="347" cy="120.6" r="2.28"/><circle class="cls-10" cx="354.98" cy="121.11" r="2.28"/><circle class="cls-10" cx="362" cy="122.01" r="2.28"/><path class="cls-11" d="M821.62,328.66s-6.33-41,22.57-36.17l30.93,7.14s51.23-6.74,66.77,28.36c0,0,7.67,21.21-12,40,0,0-18,19.38-60.32,19.87,0,0-33,3.07-49.74-20.31C819.79,367.59,807.06,355.14,821.62,328.66Z" transform="translate(-542.27 -192.58)"/><path class="cls-11" d="M839.72,291.57s3-11.31-11.13-16.57c0,0-23.75-6.57-17.38-17.88" transform="translate(-542.27 -192.58)"/><path class="cls-11" d="M830.17,293.76s-1.35-11.85-17.58-17.65c0,0-30.32-8.15-24.19-25.53" transform="translate(-542.27 -192.58)"/><path class="cls-11" d="M824.78,298.82a54.33,54.33,0,0,1-7.86-2.34,17.88,17.88,0,0,1-8.78-7.24c-3.18-5.12-10.06-13-19.94-10.5" transform="translate(-542.27 -192.58)"/></g><g id="Layer_6" data-name="Layer 6"><ellipse class="cls-12" cx="438.71" cy="264.37" rx="34.8" ry="28.4"/><path class="cls-13" d="M998.46,432.09a40.88,40.88,0,0,0-16.82-3.54c-19.21,0-34.79,12.71-34.79,28.4a23.49,23.49,0,0,0,.24,3.26C954.09,450,969.14,435.1,998.46,432.09Z" transform="translate(-542.27 -192.58)"/><ellipse class="cls-11" cx="438.71" cy="264.37" rx="34.8" ry="28.4"/><ellipse class="cls-14" cx="447.16" cy="262.09" rx="22.26" ry="15.74"/><ellipse class="cls-12" cx="357.56" cy="323.89" rx="41.21" ry="28.05"/><ellipse class="cls-14" cx="356.77" cy="329.59" rx="19.41" ry="12.47"/><path class="cls-15" d="M886.9,489.77c-16.42,3.69-28.28,14.22-28.28,26.63,0,8.25,5.22,15.66,13.54,20.79C870.76,523.47,872.13,503.94,886.9,489.77Z" transform="translate(-542.27 -192.58)"/><ellipse class="cls-11" cx="357.56" cy="323.89" rx="41.21" ry="28.05"/><ellipse class="cls-12" cx="404.56" cy="351.94" rx="24.77" ry="17.04"/><path class="cls-15" d="M924.29,550.33c3.7,6.21,12.56,10.58,22.92,10.58,9.7,0,18.08-3.85,22.15-9.44C948.61,557.86,932.18,553.49,924.29,550.33Z" transform="translate(-542.27 -192.58)"/><ellipse class="cls-11" cx="404.56" cy="352.21" rx="24.77" ry="17.04"/><ellipse class="cls-12" cx="483.81" cy="282.35" rx="32.78" ry="27.93"/><ellipse class="cls-14" cx="480.55" cy="279.65" rx="14.14" ry="10.18"/><path class="cls-15" d="M1056.77,485.82a24.19,24.19,0,0,0,2.09-9.74c0-15.42-14.68-27.92-32.79-27.92a37.64,37.64,0,0,0-12.14,2C1024.51,451.91,1044,458.9,1056.77,485.82Z" transform="translate(-542.27 -192.58)"/><ellipse class="cls-11" cx="483.81" cy="282.35" rx="32.78" ry="27.93"/><ellipse class="cls-14" cx="405.96" cy="351.54" rx="10.4" ry="5.88"/><ellipse class="cls-12" cx="375.25" cy="275.96" rx="57.33" ry="38.34"/><path class="cls-16" d="M860.19,468.31c0,8.09,3.76,15.6,10.16,21.78,3.3-11.39,13.78-30,40.8-59.89C882.49,432.32,860.19,448.57,860.19,468.31Z" transform="translate(-542.27 -192.58)"/><ellipse class="cls-11" cx="375.25" cy="275.96" rx="57.33" ry="38.34"/><ellipse class="cls-14" cx="383.4" cy="265.82" rx="25.51" ry="13.14"/><ellipse class="cls-12" cx="958.67" cy="495.22" rx="47.01" ry="70.06" transform="translate(-110.31 1244.37) rotate(-88.1)"/><path class="cls-17" d="M916.28,457c-15.61,7.37-26.39,22.18-26.81,39.73-.47,19.44,12.39,29,30.43,37C912.81,516.89,901.66,489.85,916.28,457Z" transform="translate(-542.27 -192.58)"/><ellipse class="cls-11" cx="958.63" cy="496.6" rx="47.01" ry="70.06" transform="translate(-111.73 1245.66) rotate(-88.1)"/><ellipse class="cls-14" cx="438.5" cy="301.54" rx="37.71" ry="25.15"/><ellipse class="cls-12" cx="454.93" cy="312.15" rx="56.92" ry="39.79"/><path class="cls-18" d="M992.57,466.91c-28.56,2.13-50.81,19-50.81,39.56A30.07,30.07,0,0,0,947,523.21C949.43,508.82,960,488.89,992.57,466.91Z" transform="translate(-542.27 -192.58)"/><ellipse class="cls-11" cx="455.17" cy="312.41" rx="56.92" ry="39.79"/><ellipse class="cls-14" cx="475.5" cy="312.15" rx="29.72" ry="19.53"/><ellipse class="cls-19" cx="394.2" cy="304.84" rx="32.17" ry="21.84"/><path class="cls-20" d="M932.75,476.55a.45.45,0,0,0-.23-.85c-16.1,1.19-28.64,10.43-28.64,21.68a16.73,16.73,0,0,0,4.29,10.87A.45.45,0,0,0,909,508C910.16,499.26,915,485.18,932.75,476.55Z" transform="translate(-542.27 -192.58)"/><ellipse class="cls-11" cx="393.26" cy="304.84" rx="32.17" ry="21.84"/><ellipse class="cls-14" cx="935.37" cy="495.83" rx="9.41" ry="16.83" transform="translate(-133.45 1221.67) rotate(-88.1)"/></g><g id="Layer_7" data-name="Layer 7"><path class="cls-21" d="M714.29,550.63l-46.5,2.78a22.17,22.17,0,0,1-16.58-13.87c-2.42-13.64,11-19.77,12.51-20.43l-5.53.34s-16.57,6.5-13.78,22.09a24,24,0,0,0,18,15l50.58-3s16.3-2.21,15.89-18.9C728.29,548.71,714.29,550.63,714.29,550.63Z" transform="translate(-542.27 -192.58)"/><path class="cls-22" d="M706.55,516.41l-42.83,2.7c-1.54.66-14.93,6.79-12.51,20.43a22.17,22.17,0,0,0,16.58,13.87l46.5-2.78s14-1.92,14.61-16a29.08,29.08,0,0,0-.25-3.11S726.27,518.58,706.55,516.41Z" transform="translate(-542.27 -192.58)"/><path class="cls-23" d="M700.15,520.58,662.24,523c-1.37.58-13.22,6-11.07,18.09a19.59,19.59,0,0,0,14.66,12.27L707,550.87s12.39-1.7,12.92-14.18a24.84,24.84,0,0,0-.21-2.75S717.6,522.5,700.15,520.58Z" transform="translate(-542.27 -192.58)"/><ellipse class="cls-24" cx="678.82" cy="543.73" rx="4.05" ry="4.19" transform="translate(-733.15 343.2) rotate(-38.17)"/><ellipse class="cls-24" cx="707" cy="540.5" rx="4.6" ry="8.76" transform="translate(-412.79 1025.01) rotate(-86.94)"/><ellipse class="cls-24" cx="683.14" cy="532.68" rx="2.94" ry="1.87" transform="translate(-578.83 -142.04) rotate(-4.13)"/><ellipse class="cls-24" cx="663.87" cy="533.64" rx="2.29" ry="4.16" transform="translate(-530.35 889.19) rotate(-78.85)"/><ellipse class="cls-24" cx="698.33" cy="527.26" rx="3.08" ry="5.18" transform="translate(-586.39 797.74) rotate(-69.01)"/><path class="cls-25" d="M713.62,553.17s18.29-2.47,15.64-22c0,0-2.38-12.93-22.1-15.09l-48.37,3s-16.56,6.5-13.77,22.09a24,24,0,0,0,18,14.95Z" transform="translate(-542.27 -192.58)"/><ellipse class="cls-24" cx="663.87" cy="533.64" rx="2.29" ry="4.16" transform="translate(-530.35 889.19) rotate(-78.85)"/><path class="cls-25" d="M664.49,518.7l-.16.06,42.83-2.69c19.72,2.16,22.1,15.09,22.1,15.09a29.1,29.1,0,0,1,.25,3.1,24.28,24.28,0,0,0-.22-4.41s-2.19-12-20.32-14Z" transform="translate(-542.27 -192.58)"/><path class="cls-21" d="M741.24,545.75l-25.69,26.61c-3.71,10,6.65,21.61,6.65,21.61,13.31,12.64,26.38,9.33,27.84,8.91L747,606s-15,5-30.21-9.46c0,0-11.14-12.59-7.1-23.4l27.9-29s10.32-8.32,27.87,5.56C750.13,538.62,741.24,545.75,741.24,545.75Z" transform="translate(-542.27 -192.58)"/><path class="cls-22" d="M773.84,578.48,750,602.88c-1.46.42-14.53,3.73-27.84-8.91,0,0-10.36-11.65-6.65-21.61l25.69-26.61s8.89-7.13,24.18,4c1,.82,2.09,1.7,3.18,2.68C768.6,552.43,781.17,564.46,773.84,578.48Z" transform="translate(-542.27 -192.58)"/><path class="cls-23" d="M766.27,579.05l-21.07,21.6c-1.28.37-12.85,3.3-24.64-7.88,0,0-9.16-10.32-5.88-19.13l22.74-23.56s7.86-6.31,21.39,3.55c.92.72,1.86,1.5,2.82,2.37C761.63,556,772.76,566.65,766.27,579.05Z" transform="translate(-542.27 -192.58)"/><ellipse class="cls-24" cx="731.24" cy="573.4" rx="3.24" ry="5.55" transform="translate(-716.3 590.56) rotate(-51.15)"/><ellipse class="cls-24" cx="748.45" cy="558.55" rx="6.96" ry="6.13" transform="translate(-604.94 828.81) rotate(-66.44)"/><ellipse class="cls-24" cx="745.1" cy="579.74" rx="2.28" ry="2.55" transform="translate(-553.4 952.29) rotate(-74.66)"/><ellipse class="cls-24" cx="734.66" cy="590.93" rx="2.84" ry="3.56" transform="translate(-593.54 -122.46) rotate(-5.28)"/><ellipse class="cls-24" cx="758.29" cy="574.73" rx="3.4" ry="4.97" transform="translate(-693.37 102.28) rotate(-20.05)"/><path class="cls-25" d="M738.21,544.1s11.57-9.35,31,8.24c0,0,12.58,12,5.24,26l-26.87,27.56s-15,5-30.22-9.47c0,0-11.14-12.59-7.09-23.4Z" transform="translate(-542.27 -192.58)"/><ellipse class="cls-24" cx="734.66" cy="590.93" rx="2.84" ry="3.56" transform="translate(-593.54 -122.46) rotate(-5.28)"/><path class="cls-25" d="M750.85,602.74l-.15,0,23.8-24.4c7.34-14-5.24-26-5.24-26-1.09-1-2.14-1.87-3.18-2.69a55.42,55.42,0,0,1,4.58,3.73s11.69,11.15,5,24Z" transform="translate(-542.27 -192.58)"/><path class="cls-21" d="M733.65,544.1l45.08,6.26c12.66-1.63,17-13.45,17-13.45,3.25-14.22-9.37-21.66-10.83-22.47l5.36.77s15.7,8,12,24.29c0,0-4.76,12.74-18.52,14.5l-49-6.76s-15.72-3.5-14.22-21.1C720.16,541.07,733.65,544.1,733.65,544.1Z" transform="translate(-542.27 -192.58)"/><path class="cls-22" d="M743.44,508.54l41.51,5.9c1.46.81,14.08,8.25,10.83,22.47,0,0-4.39,11.82-17,13.45l-45.08-6.26s-13.49-3-13.16-18a31.56,31.56,0,0,1,.45-3.25S724.11,509.41,743.44,508.54Z" transform="translate(-542.27 -192.58)"/><path class="cls-23" d="M749.4,513.4l36.74,5.23c1.29.71,12.46,7.29,9.58,19.88,0,0-3.88,10.46-15.08,11.91l-39.9-5.55s-12-2.68-11.65-15.89a29,29,0,0,1,.39-2.88S732.29,514.17,749.4,513.4Z" transform="translate(-542.27 -192.58)"/><ellipse class="cls-24" cx="768.63" cy="539.36" rx="4.38" ry="4" transform="matrix(0.19, -0.98, 0.98, 0.19, -450.16, 997.94)"/><ellipse class="cls-24" cx="741.42" cy="533.93" rx="4.86" ry="8.55" transform="translate(-346.92 1073.86) rotate(-89.06)"/><ellipse class="cls-24" cx="765.15" cy="527.38" rx="1.97" ry="2.88" transform="translate(-427.18 998.89) rotate(-80.19)"/><ellipse class="cls-24" cx="783.85" cy="529.77" rx="4.06" ry="2.42" transform="translate(-612.13 -70.55) rotate(-8.52)"/><ellipse class="cls-24" cx="750.73" cy="520.57" rx="5.09" ry="3.24" transform="translate(-676.04 99.4) rotate(-20.25)"/><path class="cls-25" d="M734.15,546.83s-17.65-3.92-13.78-24.35c0,0,3.17-13.48,22.5-14.35l46.87,6.67s15.7,8,12,24.3c0,0-4.76,12.73-18.52,14.49Z" transform="translate(-542.27 -192.58)"/><ellipse class="cls-24" cx="783.85" cy="529.77" rx="4.06" ry="2.42" transform="translate(-612.13 -70.55) rotate(-8.52)"/><path class="cls-25" d="M784.23,514l.15.08-41.51-5.91c-19.33.87-22.5,14.35-22.5,14.35a28.77,28.77,0,0,0-.44,3.26,28.42,28.42,0,0,1,.49-4.64s2.93-12.51,20.71-13.32Z" transform="translate(-542.27 -192.58)"/><path class="cls-21" d="M789.25,535.09l-5.9-33.65c2.4-9.31,16.68-12.06,16.68-12.06,17.11-1.81,25.56,7.85,26.47,9l-.72-4s-9.06-12-28.62-9.86c0,0-15.39,3-18,13.12l6.36,36.58s3.63,11.79,24.71,11.41C792.4,545.21,789.25,535.09,789.25,535.09Z" transform="translate(-542.27 -192.58)"/><path class="cls-22" d="M832.1,529.32l-5.6-31c-.91-1.11-9.36-10.77-26.47-9,0,0-14.28,2.75-16.68,12.06l5.9,33.65s3.15,10.12,21,10.49c1.25,0,2.54-.08,3.91-.19C814.16,545.39,830.38,543.6,832.1,529.32Z" transform="translate(-542.27 -192.58)"/><path class="cls-23" d="M826.5,524.71l-5-27.43c-.81-1-8.28-9.53-23.43-7.92,0,0-12.64,2.43-14.76,10.67l5.23,29.78s2.78,9,18.58,9.29c1.1,0,2.25-.07,3.46-.17C810.62,538.93,825,537.35,826.5,524.71Z" transform="translate(-542.27 -192.58)"/><ellipse class="cls-24" cx="253.88" cy="316.8" rx="5.23" ry="2.97"/><ellipse class="cls-24" cx="259.42" cy="337.18" rx="5.82" ry="6.34"/><ellipse class="cls-24" cx="810.34" cy="512.46" rx="2.06" ry="2.44" transform="translate(-527.07 855.62) rotate(-66.28)"/><ellipse class="cls-24" cx="808.14" cy="498.51" rx="3.22" ry="2.71" transform="translate(-658.07 524.87) rotate(-45)"/><ellipse class="cls-24" cx="817.97" cy="523.43" rx="4.54" ry="3.22" transform="matrix(0.87, -0.5, 0.5, 0.87, -694.39, 286.53)"/><path class="cls-25" d="M786,534.61s4.06,13.23,28.62,11.22c0,0,16.22-1.79,17.94-16.07l-6.33-35s-9.06-12-28.62-9.86c0,0-15.39,3-18,13.11Z" transform="translate(-542.27 -192.58)"/><ellipse class="cls-24" cx="808.14" cy="498.51" rx="3.22" ry="2.71" transform="translate(-658.07 524.87) rotate(-45)"/><path class="cls-25" d="M827.06,498.89l-.09-.11,5.6,31c-1.72,14.28-17.94,16.07-17.94,16.07-1.37.11-2.66.17-3.91.19a53.86,53.86,0,0,0,5.56-.17s15.05-1.65,16.65-14.78Z" transform="translate(-542.27 -192.58)"/></g><g id="Layer_8" data-name="Layer 8"><path class="cls-26" d="M833,748.33l-70.85-55s-17.15-36,27-34.42c0,0,12.56,2.66,18.41,6.7l61.76,47.57s24.08-1.12,36.8,8.65c0,0,20.75,21.33,34,22,0,0-11.11,5.1-21.6-1.45,0,0-21.21-15.65-28.92-16.75L882,724.59s5.67,10.07,14.69,15.71c0,0,23.14,15.53,44.6,14.39,0,0,16.58,1.73,18.74,8.63,0,0-10.13-5.4-22.25,1.59,0,0-17.76,5.28-35.48-3.35L885.19,748l-5.78,3.88s8.6,11.86,26.6,18.78c0,0,57,17.47,56,24.19,0,0-20.95-5.88-38.09-6.32,0,0-36-1-48.45-16.65L861.8,758.5l-8.31-.46s8.94,23.5,22.54,28.2c0,0,25.25,9.07,24.62,20.5,0,0-10.71-10-18.15-11,0,0-24-7.6-28.64-10.93C853.86,784.77,836.88,775.73,833,748.33Z" transform="translate(-542.27 -192.58)"/><rect class="cls-27" x="764.16" y="685.32" width="104.8" height="37.53" rx="9.87" ry="9.87" transform="translate(33.91 -539.56) rotate(36.35)"/><path class="cls-28" d="M851,716.65s-9.48-1.65-7.83-9.18a.77.77,0,0,1,.57-.57,4.06,4.06,0,0,1,2.45.6,2.1,2.1,0,0,1,.93,1.53c.16,1.35,3.48,4.16,4.59,4.8C851.72,713.83,853,716.05,851,716.65Z" transform="translate(-542.27 -192.58)"/><path class="cls-28" d="M821.11,721.24s-.4-2.48,4.32-2.44c.27-.1,4.33.88,5.93-4.72a1.84,1.84,0,0,1,1.66-1.33,2.19,2.19,0,0,1,1.57.53,1.83,1.83,0,0,1,.44,2.11C833.91,718,830,725,821.11,721.24Z" transform="translate(-542.27 -192.58)"/><path class="cls-28" d="M821.13,697.12s-2.8,2.92,2.48,3.29c0,0,8.4-2.73,11.17.21,0,0,3.63-.75,1.14-3.31S821.69,696.12,821.13,697.12Z" transform="translate(-542.27 -192.58)"/><path class="cls-28" d="M767.52,675.19c2.11,1,7.41,4,7.14,8.88a1.61,1.61,0,0,1-2.21,1.42c-2.8-1.15-7.76-4.06-6.07-9.81A.82.82,0,0,1,767.52,675.19Z" transform="translate(-542.27 -192.58)"/><path class="cls-28" d="M840.52,734.81s-.55,3.52,3.91,2.75c0,0,6.82-8.17,15-5.24l5.85,1.53s3.58-.17,1.94-3.16C867.2,730.69,848.57,719.85,840.52,734.81Z" transform="translate(-542.27 -192.58)"/><path class="cls-28" d="M795.2,714.28s-3-2.59,1.16-3.37c0,0,13.42,0,11.3,6.93A17,17,0,0,0,795.2,714.28Z" transform="translate(-542.27 -192.58)"/><path class="cls-28" d="M787.32,703.76s-4.52-11.28.94-13.93c0,0,3.84-4.28-3.13-3.9a2.53,2.53,0,0,0-1.61.71c-2.07,2-7.22,8.29-.26,17.87C783.26,704.51,787.42,708.85,787.32,703.76Z" transform="translate(-542.27 -192.58)"/><path class="cls-28" d="M785.19,667.24s5.3,5.5,11.94,4.78c0,0,5.23.58,2.2,4.09,0,0-12.3.7-15.85-6.29C783.48,669.82,781.88,666.26,785.19,667.24Z" transform="translate(-542.27 -192.58)"/><path class="cls-28" d="M796.77,691.24s6.26,3.42,5.11,8.46c0,0,3.65,3.41,4.63-.9,0,0-2-8.8-7.32-10.1C799.19,688.7,795.1,687.62,796.77,691.24Z" transform="translate(-542.27 -192.58)"/><path class="cls-28" d="M799.19,688.7s-4.53-.27-2.42,2.54c0,0,6.26,3.42,5.11,8.46" transform="translate(-542.27 -192.58)"/><path class="cls-29" d="M764.44,692.92s-9.79-32.84,35.11-31.13c0,0-15.8-6.48-28.48-1.51s-14,16.52-11.16,27.1Z" transform="translate(-542.27 -192.58)"/><path class="cls-30" d="M908.38,735.34s21.74,11.06,27.34,7.48l3.44,1.18a12.29,12.29,0,0,1-9.12,1.77c-4.92-1.19-17.72-5.11-19.73-8l-2-2.84" transform="translate(-542.27 -192.58)"/><path class="cls-30" d="M934.38,754.52s23.58,4,18,6.57L959,762l-7.18-5.16S935.4,753.68,934.38,754.52Z" transform="translate(-542.27 -192.58)"/><path class="cls-30" d="M919.72,788l41.32,6.5-1.16-2.7S924.15,784.59,919.72,788Z" transform="translate(-542.27 -192.58)"/><path class="cls-30" d="M870.88,791.31a65.75,65.75,0,0,1,27.18,8.56l2.55,5.59s-10.86-7.25-14.55-8S870.88,791.31,870.88,791.31Z" transform="translate(-542.27 -192.58)"/><path class="cls-31" d="M873.94,745.88s15.16-13-4.56-32.66c0,0-58.65-47.11-63.71-48.62,0,0-23.38-13.61-41.79.21,0,0-13.5,15.28,0,28.18,0,0,57.78,48.77,69.13,55.34,0,0,2.8,31.81,28.49,39.92,0,0,37.72,11.26,39.68,19.71,0,0-.82-13.16-22.48-20.12,0,0-21-11.09-25.22-29.8l9.29.52s17,24.79,45.73,28.1c0,0,46.51,5.31,53.53,8.2,0,0-1.31-6.76-22.55-12.12,0,0-40-12.29-47.76-20.06l-12.32-10.79,4.55-5.47s14.77,21.34,42.09,20.28c0,0,26-9.27,34-3.38,0,0-5-9.5-23.75-8.65,0,0-36.16-1.5-54.28-30.08,0,0,13.31-1,29,13.86,1,1.32,19.73,11.15,29.23,5.43,0,0-16.31-4.15-19.6-10.14,0,0-13.26-19.37-48.55-20.57l-2.16,0" transform="translate(-542.27 -192.58)"/></g><g id="Layer_9" data-name="Layer 9"><path class="cls-32" d="M1042.49,330.89h0c-14.35-8.9-16.92-25.5-5.7-36.89l38.93-39.54c9.25-9.4,26.5-11.08,38.34-3.74h0c17.47,10.83,20.59,31,7,44.89l-30.09,30.56C1079.24,338,1057.45,340.16,1042.49,330.89Z" transform="translate(-542.27 -192.58)"/><path class="cls-33" d="M1049.44,291c-5.08,4.81-7.81,11-7.25,17.24,1.16,13.21,9.23,15.77,9.23,15.77a26,26,0,0,0,10.21,1.33,26.41,26.41,0,0,0,16.07-6.76l26.41-24.31c5.52-5.08,8.6-11.61,8.3-18.31-.44-10.36-5.79-15.06-11.72-17.06a22.87,22.87,0,0,0-22.22,4.68Z" transform="translate(-542.27 -192.58)"/><path class="cls-34" d="M1076.31,292.28s4.06-2.82-.15-8.94c0,0-3.54-2.38,1.76-3.17,0,0,7.73,8,1.86,14C1079.78,294.21,1077.13,296.73,1076.31,292.28Z" transform="translate(-542.27 -192.58)"/><path class="cls-34" d="M1087.58,294.38s-5.16,2.44-.19,3.49c0,0,4.16-1,6.58.85,0,0,5.28,1.09,2.89-2.57C1096.86,296.15,1091.6,293,1087.58,294.38Z" transform="translate(-542.27 -192.58)"/><path class="cls-34" d="M1072.07,272.54s5-2.8,2.2,2.33c0,0-3,.22-3,6.38,0,0-2.15,3-3.31-1.17C1067.94,280.08,1069.75,273.18,1072.07,272.54Z" transform="translate(-542.27 -192.58)"/><path class="cls-34" d="M1063.4,286.12s-4.34-.43-1.5,2.95c0,0,4.6-.09,4.77,3.55,0,0,3.59,2,2.65-1.65C1069.32,291,1066.44,286.19,1063.4,286.12Z" transform="translate(-542.27 -192.58)"/><path class="cls-34" d="M1057.6,295.86s-.6-3,3.54-1.94c0,0,4.6,7.93-2.15,10.23,0,0-1.41.13-1.29-1.95C1057.7,302.2,1060,298.87,1057.6,295.86Z" transform="translate(-542.27 -192.58)"/><path class="cls-34" d="M1049.76,295.31s3.6-2.58,3.56,1.56c0,0-3.21,3-1.35,6.35,0,0-2.11,3.25-4.2-.81C1047.69,302.28,1048.67,295.7,1049.76,295.31Z" transform="translate(-542.27 -192.58)"/><path class="cls-34" d="M1050.37,310.42c1.78.82,3.41,2.68,3.52,6.71,0,.71-1,1.17-1.7.8-1.75-.87-4.42-2.39-5.71-4.81C1045.47,311.23,1048.12,309.39,1050.37,310.42Z" transform="translate(-542.27 -192.58)"/><path class="cls-34" d="M1057.17,312.49s5.41-.61,5.21,9.5c0,0-1.08,1.62-2.52-.37C1059.86,321.62,1058.85,315.21,1057.17,312.49Z" transform="translate(-542.27 -192.58)"/><path class="cls-34" d="M1070.74,302.94s-4.69,2.08.7,4.07c0,0,6.06-2.51,7.75.54,0,0,3.63,1.81,3-2C1082.22,305.56,1077.18,300.7,1070.74,302.94Z" transform="translate(-542.27 -192.58)"/><path class="cls-34" d="M1070.72,312.3s-5.29-.28-1.62,2.9a4.1,4.1,0,0,1,3.19,3.59s4,1.33,2.63-2.83Z" transform="translate(-542.27 -192.58)"/><ellipse class="cls-35" cx="1094.57" cy="276.97" rx="12.66" ry="14.93" transform="translate(-540.63 367.75) rotate(-28.74)"/><ellipse class="cls-36" cx="1096.88" cy="276.56" rx="7.66" ry="9.02" transform="translate(-539.25 372.24) rotate(-28.91)"/><path class="cls-37" d="M1107.09,246.4s5.47-16.19,14.47-15.89c0,0,4.62,3.63-7.5,18.83Z" transform="translate(-542.27 -192.58)"/><path class="cls-37" d="M1121.25,257.5s10.6-12.75,17.36-10.21c0,0,2.09,4.34-13.2,14.55Z" transform="translate(-542.27 -192.58)"/><path class="cls-37" d="M1125.37,263.81s15.21-9.37,20.58-5.24c0,0,.21,4.64-18.4,10.4Z" transform="translate(-542.27 -192.58)"/><path class="cls-37" d="M1129.1,272.78s17.3-6.72,21.49-1.81c0,0-1,4.58-20.68,7.21Z" transform="translate(-542.27 -192.58)"/><path class="cls-37" d="M1131.87,278.31s19.23.64,20,6.54c0,0-3.61,3.66-22.51-1.49Z" transform="translate(-542.27 -192.58)"/><path class="cls-37" d="M1116,251.15s9.43-13.32,16.4-11.17c0,0,2.47,4.21-11.86,15.26Z" transform="translate(-542.27 -192.58)"/><path class="cls-37" d="M1042.65,331.51h0c-14.35-8.9-16.92-25.51-5.7-36.9l38.92-39.53c9.26-9.4,26.51-11.08,38.35-3.74h0c17.47,10.83,20.59,31,7,44.89l-30.09,30.56C1079.4,338.65,1057.6,340.78,1042.65,331.51Z" transform="translate(-542.27 -192.58)"/><path class="cls-37" d="M1131.77,285s16.72,7.57,14,13.09c0,0-5.33,1.93-19.14-9.53Z" transform="translate(-542.27 -192.58)"/><path class="cls-37" d="M1128.21,292.75s18.58,8.85,15.46,15.37c0,0-6,2.31-21.27-11.13Z" transform="translate(-542.27 -192.58)"/><path class="cls-37" d="M1122.77,297.89s17.27,10.39,13.28,16.61c0,0-6.24,1.79-19.63-12.89Z" transform="translate(-542.27 -192.58)"/><path class="cls-37" d="M1117.26,304.14S1133,316,1128.17,321.8c0,0-6.45,1.23-17.74-14.52Z" transform="translate(-542.27 -192.58)"/><path class="cls-37" d="M1110.94,310.24s15.73,11.83,10.91,17.66c0,0-6.45,1.24-17.74-14.51Z" transform="translate(-542.27 -192.58)"/><path class="cls-37" d="M1104.64,316.43s15.74,11.84,10.91,17.67c0,0-6.44,1.23-17.74-14.52Z" transform="translate(-542.27 -192.58)"/><path class="cls-37" d="M1097.75,323.33s15.73,11.83,10.91,17.66c0,0-6.45,1.24-17.74-14.52Z" transform="translate(-542.27 -192.58)"/><path class="cls-37" d="M1092.41,329.71s14.42,12.84,9,18.33c0,0-6.56.8-16.14-15.65Z" transform="translate(-542.27 -192.58)"/><path class="cls-37" d="M1084.68,335s14.42,12.84,9,18.33c0,0-6.56.8-16.14-15.65Z" transform="translate(-542.27 -192.58)"/><path class="cls-37" d="M1079,336.41s13.52,18.34,5.62,22.69c0,0-8-1.1-14.77-21.92Z" transform="translate(-542.27 -192.58)"/><path class="cls-37" d="M1074.57,338.08s6.82,19.4-1.67,21.8c0,0-6.92-2.59-6.9-22.92Z" transform="translate(-542.27 -192.58)"/><path class="cls-37" d="M1066.8,339.93s4.66,21.08-4.15,22.43c0,0-6.66-3.62-4.34-24.75Z" transform="translate(-542.27 -192.58)"/><path class="cls-37" d="M1059.29,340.4s1.51,21.37-7.44,21.89c0,0-6.08-4.22-.64-25Z" transform="translate(-542.27 -192.58)"/><path class="cls-37" d="M1052.92,338.54s-6.61,20.75-15.35,19.12c0,0-4.21-5.46,8.79-24Z" transform="translate(-542.27 -192.58)"/><path class="cls-37" d="M1044.75,334.44s-8.4,14.44-15.58,12.58c0,0-2.82-4.27,10.69-16.61Z" transform="translate(-542.27 -192.58)"/><path class="cls-37" d="M1038.34,328.26s-10.79,12.12-17.56,9.55c0,0-2.06-4.23,13.42-13.81Z" transform="translate(-542.27 -192.58)"/><path class="cls-37" d="M1032.46,321.88s-14.47,7.61-19.18,3.58c0,0,0-4.21,17.46-8.37Z" transform="translate(-542.27 -192.58)"/><path class="cls-37" d="M1030,313.48s-16.31,4.73-19.71-.05c0,0,1.28-4.08,19.43-4.92Z" transform="translate(-542.27 -192.58)"/><path class="cls-37" d="M1027.23,307.59s-17-2.92-16.63-8.41c0,0,3.83-2.9,19.74,4.09Z" transform="translate(-542.27 -192.58)"/><path class="cls-37" d="M1030,300.78s-18.29-6.25-16.88-13.1c0,0,4.79-3.08,21.14,8.14Z" transform="translate(-542.27 -192.58)"/><path class="cls-37" d="M1034.84,294.41s-19.1-7.7-17.75-15.94c0,0,4.93-3.66,22.1,10Z" transform="translate(-542.27 -192.58)"/><path class="cls-37" d="M1038.33,288.87s-18.67-12.22-14.69-21.17c0,0,6.53-3.16,21.26,15.36Z" transform="translate(-542.27 -192.58)"/><path class="cls-37" d="M1045.29,282.33s-18.67-12.22-14.69-21.18c0,0,6.53-3.15,21.26,15.37Z" transform="translate(-542.27 -192.58)"/><path class="cls-37" d="M1052.38,275.44s-18.66-12.22-14.68-21.17c0,0,6.52-3.16,21.26,15.36Z" transform="translate(-542.27 -192.58)"/><path class="cls-37" d="M1059.29,270.53s-18.67-12.22-14.69-21.18c0,0,6.52-3.15,21.26,15.37Z" transform="translate(-542.27 -192.58)"/><path class="cls-37" d="M1065.79,262.82s-18.67-12.23-14.69-21.18c0,0,6.52-3.16,21.26,15.36Z" transform="translate(-542.27 -192.58)"/><path class="cls-37" d="M1071.82,257.29s-17-11.27-13.35-19.56c0,0,6-2.93,19.36,14.18Z" transform="translate(-542.27 -192.58)"/><path class="cls-37" d="M1077.08,251.81s-15.27-12.74-10.47-20.71c0,0,6.32-2.41,17.2,15.85Z" transform="translate(-542.27 -192.58)"/><path class="cls-37" d="M1080.89,250.24s-11.45-17.11-3.4-24.51c0,0,7.61-1.13,12.34,20.86Z" transform="translate(-542.27 -192.58)"/><path class="cls-37" d="M1089.1,247s-4.89-18.69,5.32-24c0,0,7.61.54,4.43,22.45Z" transform="translate(-542.27 -192.58)"/><path class="cls-37" d="M1098.52,245.35s1.62-18,12.44-20.5c0,0,6.61,2.25-3.23,21.33Z" transform="translate(-542.27 -192.58)"/><path class="cls-37" d="M1098.52,245.35s1.62-18,12.44-20.5c0,0,6.61,2.25-3.23,21.33Z" transform="translate(-542.27 -192.58)"/></g><g id="Layer_10" data-name="Layer 10"><path class="cls-38" d="M1055,390.72a46.43,46.43,0,0,0-20.61-.5c-20.09,4.13-5.45,13.25,2.39,17.07a29.37,29.37,0,0,0,8.15,2.5c50.76,8.28,50.93,41.22,49.33,57.09-.51,5,1,9.48,3.91,11.58,9.07,6.62,15.35-1.6,18.48-8A25.18,25.18,0,0,0,1119,458C1115.53,409.31,1075.58,396,1055,390.72Z" transform="translate(-542.27 -192.58)"/><path class="cls-39" d="M1039.26,386.87a26.82,26.82,0,0,0-16.78,3.89c-11.84,7.53-1,14.78,5,17.89a18.87,18.87,0,0,0,6.45,1.92c55.28,6.55,54,45.89,51.48,60.62a12.23,12.23,0,0,0,4.15,11.27c10.64,9.11,20,4.83,25.71.2a17.25,17.25,0,0,0,6.23-12C1127.07,400.58,1061.72,388.84,1039.26,386.87Zm77.38,83.57c-3.13,6.42-9.41,14.64-18.48,8-2.89-2.1-4.42-6.57-3.91-11.58,1.6-15.87,1.43-48.81-49.33-57.09a29.37,29.37,0,0,1-8.15-2.5c-7.84-3.82-22.48-12.94-2.39-17.07a46.43,46.43,0,0,1,20.61.5c20.59,5.25,60.54,18.59,64,67.25A25.18,25.18,0,0,1,1116.64,470.44Z" transform="translate(-542.27 -192.58)"/><path class="cls-37" d="M1085.41,471.19c2.5-14.73,3.8-54.07-51.48-60.62" transform="translate(-542.27 -192.58)"/><path class="cls-40" d="M1065.3,393.3c17,4.54,50.15,16.06,53,58.08a22.5,22.5,0,0,1-2,10.77c-2.59,5.55-7.79,12.65-15.31,6.93-2.39-1.82-3.66-5.68-3.24-10,1.33-13.7,1.19-42.15-40.86-49.3a23.48,23.48,0,0,1-6.75-2.16c-6.49-3.3-18.62-11.18-2-14.74a37,37,0,0,1,17.08.43" transform="translate(-542.27 -192.58)"/><path class="cls-37" d="M1027.48,408.65c-6-3.11-16.84-10.36-5-17.89a26.82,26.82,0,0,1,16.78-3.89c22.46,2,87.81,13.71,82.24,83.84a17.25,17.25,0,0,1-6.23,12c-5.66,4.63-15.07,8.91-25.71-.2a12.23,12.23,0,0,1-4.15-11.27c2.5-14.73,3.8-54.07-51.48-60.62A18.87,18.87,0,0,1,1027.48,408.65Z" transform="translate(-542.27 -192.58)"/><path class="cls-37" d="M1027.48,408.65c-6-3.11-16.84-10.36-5-17.89a26.82,26.82,0,0,1,16.78-3.89c22.46,2,87.81,13.71,82.24,83.84a17.25,17.25,0,0,1-6.23,12c-5.66,4.63-15.07,8.91-25.71-.2a12.23,12.23,0,0,1-4.15-11.27c2.5-14.73,3.8-54.07-51.48-60.62A18.87,18.87,0,0,1,1027.48,408.65Z" transform="translate(-542.27 -192.58)"/><path class="cls-41" d="M1106,467.46s1.06-5.25-2.87-2.85c0,0-1.69,3.5-4.74,3.64,0,0-4.15,2.58.43,3.88C1098.79,472.13,1104.69,471.15,1106,467.46Z" transform="translate(-542.27 -192.58)"/><path class="cls-41" d="M1103.52,423.21s-4,2.73-.26,7.58c0,0,3.38.36,5,5.33,0,0,4,5,3.06-3.26C1111.35,432.86,1107.29,422.06,1103.52,423.21Z" transform="translate(-542.27 -192.58)"/><path class="cls-41" d="M1112.68,461.36s-5.26-1.05-2.84,2.87c0,0,3.5,1.68,3.65,4.72,0,0,2.6,4.15,3.88-.44C1117.37,468.51,1116.37,462.62,1112.68,461.36Z" transform="translate(-542.27 -192.58)"/><path class="cls-41" d="M1099.52,452.08s-2,5,2.3,3.32c0,0,2.29-3.13,5.32-2.71,0,0,4.55-1.78.28-3.89C1107.42,448.8,1101.45,448.68,1099.52,452.08Z" transform="translate(-542.27 -192.58)"/><path class="cls-41" d="M1102.71,442.76s5.36.08,2.27-3.34c0,0-3.75-1-4.44-4,0,0-3.31-3.6-3.74,1.13C1096.8,436.57,1098.85,442.19,1102.71,442.76Z" transform="translate(-542.27 -192.58)"/><path class="cls-41" d="M1082.81,426.91s4.46,2.1,3.44-2.05c0,0-2.68-2.31-1.9-5.16,0,0-1.11-4.39-3.65-.43C1080.7,419.27,1079.84,424.93,1082.81,426.91Z" transform="translate(-542.27 -192.58)"/><path class="cls-41" d="M1088.68,411.89s-4.62,1.73-.93,3.89c0,0,3.52-.3,5,2.24,0,0,3.93,2.27,2.86-2.31C1095.63,415.71,1092.17,411.14,1088.68,411.89Z" transform="translate(-542.27 -192.58)"/><path class="cls-41" d="M1069,413.8s-1.31,4.7,2.32,2.64c0,0,1.73-3.1,4.42-3.15,0,0,3.84-2.22-.1-3.5C1075.63,409.79,1070.38,410.51,1069,413.8Z" transform="translate(-542.27 -192.58)"/><path class="cls-41" d="M1071.37,397s-5.43-3.56-3.23,1.4c0,0,3.54,3.32,3.43,6.33,0,0,2.38,5.26,4.11,1.46C1075.68,406.17,1075.15,400,1071.37,397Z" transform="translate(-542.27 -192.58)"/><path class="cls-41" d="M1045.73,402.51s-7.8-4.49-.38-4c0,0,6.28,2.55,9.86,1.31,0,0,7.89.58,4.4,3.85C1059.61,403.69,1051.8,405.41,1045.73,402.51Z" transform="translate(-542.27 -192.58)"/><path class="cls-41" d="M1039.78,390.19s-6.34,1.42-1.25,3.29c0,0,4.85-.23,6.94,1.94,0,0,5.43,2,3.91-1.94C1049.38,393.48,1044.57,389.58,1039.78,390.19Z" transform="translate(-542.27 -192.58)"/></g><g id="Layer_11" data-name="Layer 11"><path class="cls-42" d="M1039.46,768.09a55.7,55.7,0,0,1-24.84-2.06c-22.47-7.52-1.54-16.54,9.26-20.1a41.66,41.66,0,0,1,10.69-1.93c63.8-3.34,76.37-42.69,80.41-61.86,1.27-6,4.78-11.19,9-13.34,13.34-6.74,17.76,3.89,19.09,12a30,30,0,0,1-1.86,15.21C1118.81,753.68,1066,764.47,1039.46,768.09Z" transform="translate(-542.27 -192.58)"/><path class="cls-39" d="M1149,681.08c1.3-5.61.24-11.09-3-15.09-5-6.26-14.68-12.59-30.82-3.07-4.92,2.9-8.46,7.8-9.19,12.93-2.54,17.92-15.75,65.11-84.31,65.81a26,26,0,0,0-8.43,1.45c-8.39,2.94-24,10.21-12.7,20.74,4.76,4.42,11.39,6.67,18.6,6.81C1046.79,771.21,1129.33,765.59,1149,681.08Zm-7.78,14.9c-22.42,57.7-75.19,68.49-101.77,72.11a55.7,55.7,0,0,1-24.84-2.06c-22.47-7.52-1.54-16.54,9.26-20.1a41.66,41.66,0,0,1,10.69-1.93c63.8-3.34,76.37-42.69,80.41-61.86,1.27-6,4.78-11.19,9-13.34,13.34-6.74,17.76,3.89,19.09,12A30,30,0,0,1,1141.23,696Z" transform="translate(-542.27 -192.58)"/><path class="cls-37" d="M1106,675.85c-2.54,17.92-15.75,65.11-84.31,65.81" transform="translate(-542.27 -192.58)"/><path class="cls-43" d="M1052.74,766.33c22.1-3.22,66-12.71,85.2-62.57a26.8,26.8,0,0,0,1.71-13.11c-1-7-4.57-16.13-15.71-10.26-3.54,1.87-6.5,6.31-7.63,11.54-3.55,16.55-14.4,50.53-67.36,53.65a33.68,33.68,0,0,0-8.89,1.7c-9,3.11-26.45,11-7.9,17.37a44.24,44.24,0,0,0,20.58,1.68" transform="translate(-542.27 -192.58)"/><path class="cls-37" d="M1013.29,743.11c-8.39,2.94-24,10.21-12.7,20.74,4.76,4.42,11.39,6.67,18.6,6.81,27.6.55,110.14-5.07,129.82-89.58,1.3-5.61.24-11.09-3-15.09-5-6.26-14.68-12.59-30.82-3.07-4.92,2.9-8.46,7.8-9.19,12.93-2.54,17.92-15.75,65.11-84.31,65.81A26,26,0,0,0,1013.29,743.11Z" transform="translate(-542.27 -192.58)"/><path class="cls-37" d="M1013.29,743.11c-8.39,2.94-24,10.21-12.7,20.74,4.76,4.42,11.39,6.67,18.6,6.81,27.6.55,110.14-5.07,129.82-89.58,1.3-5.61.24-11.09-3-15.09-5-6.26-14.68-12.59-30.82-3.07-4.92,2.9-8.46,7.8-9.19,12.93-2.54,17.92-15.75,65.11-84.31,65.81A26,26,0,0,0,1013.29,743.11Z" transform="translate(-542.27 -192.58)"/><path class="cls-44" d="M1129.21,683s-.7,6.42-4.49,3c0,0-.71-4.4-4.3-5,0,0-4-3.63,2-4.59C1122.39,676.45,1129.07,678.38,1129.21,683Z" transform="translate(-542.27 -192.58)"/><path class="cls-44" d="M1109.68,735.52s-3.81-3.79,2.53-9.09c0,0,4.17,0,8-5.72,0,0,6.62-5.48,2.43,4.29C1122.66,725,1113.75,737.38,1109.68,735.52Z" transform="translate(-542.27 -192.58)"/><path class="cls-44" d="M1134.94,691.12s-6.68.56-2.31-3.81c0,0,4.81-1.55,6.13-5.17,0,0,4.67-4.61,4.48,1C1143.24,683.17,1139.83,690.08,1134.94,691.12Z" transform="translate(-542.27 -192.58)"/><path class="cls-44" d="M1115.73,700.51s-.53-6.21,4-3.68c0,0,1.57,4,5.34,3.92,0,0,4.78,2.73-1.11,4.69C1124,705.44,1116.76,704.81,1115.73,700.51Z" transform="translate(-542.27 -192.58)"/><path class="cls-44" d="M1116,712.05s6.44.6,1.46,4.29c0,0-4.86.72-6.81,4.18,0,0-5.3,3.88-4-1.84C1106.65,718.68,1111.21,712.24,1116,712.05Z" transform="translate(-542.27 -192.58)"/><path class="cls-44" d="M1086.29,728.43s6.13-1.94,3.35,2.89c0,0-4.06,2.41-4.2,5.92,0,0-3,5.11-4.53,0C1080.91,737.29,1082,730.41,1086.29,728.43Z" transform="translate(-542.27 -192.58)"/><path class="cls-44" d="M1087.68,747.13s-4.87-2.66.35-4.77c0,0,4.1.82,6.85-2,0,0,5.55-2.19,2.54,3.14C1097.42,743.47,1091.57,748.48,1087.68,747.13Z" transform="translate(-542.27 -192.58)"/><path class="cls-44" d="M1064.86,742.32s.2-5.79,3.76-2.86c0,0,.91,3.93,4.1,4.33,0,0,3.75,3.15-1.43,4.18C1071.29,748,1065.29,746.42,1064.86,742.32Z" transform="translate(-542.27 -192.58)"/><path class="cls-44" d="M1061.39,762.72s-7.84,3.56-3.34-2.09c0,0,5.47-3.51,6.47-7.12,0,0,4.82-6,5.47-1.21C1070,752.3,1067,759.6,1061.39,762.72Z" transform="translate(-542.27 -192.58)"/><path class="cls-44" d="M1032.81,752.81s-11,4.35-2,4.7c0,0,8.46-2.23,12.27-.29,0,0,9.65.33,6.72-4C1049.85,753.19,1041.15,750.12,1032.81,752.81Z" transform="translate(-542.27 -192.58)"/><path class="cls-44" d="M1021.06,766.77s-7-2.53-.25-4.1c0,0,5.7.9,9-1.43,0,0,7.23-1.63,3.94,2.83C1033.77,764.07,1026.56,768.11,1021.06,766.77Z" transform="translate(-542.27 -192.58)"/></g><g id="Layer_12" data-name="Layer 12"><path class="cls-45" d="M1184.43,607.13s-7.8,11.55-3.52,21.83a10.14,10.14,0,0,0,2.89,3.9c3.74,3.12,13.16,8.1,30.45.68l-2.69,3.94s-17.67,5.06-20.39,3.75-13.61-5.78-15.36-8.79-3.18-7.87-2.9-9.88S1177.26,608.86,1184.43,607.13Z" transform="translate(-542.27 -192.58)"/><ellipse class="cls-46" cx="1199.94" cy="620.45" rx="26.42" ry="19.38" transform="translate(-658.84 125.21) rotate(-14.4)"/><ellipse class="cls-47" cx="1198.94" cy="619.44" rx="15.26" ry="11.7" transform="translate(-658.62 124.93) rotate(-14.4)"/><circle class="cls-48" cx="663.07" cy="435.92" r="3.53"/><circle class="cls-48" cx="673.69" cy="417.57" r="3.69"/><circle class="cls-48" cx="671.27" cy="428.99" r="5.69"/><ellipse class="cls-49" cx="1199.94" cy="620.45" rx="26.42" ry="19.38" transform="translate(-658.84 125.21) rotate(-14.4)"/><ellipse class="cls-49" cx="1232.06" cy="586.87" rx="21" ry="24.82" transform="translate(-56.34 1536.95) rotate(-82.33)"/><path class="cls-45" d="M1223.58,567.4s-11,8.62-11.17,20.66a12.18,12.18,0,0,0,1.06,5.06c2.09,4.59,8.39,13.28,26.12,12.51l-3.79,2.93s-17.19-1.76-19-4.13-9.64-11.12-10-14.84.17-9.18,1.17-11.1S1216.73,566.37,1223.58,567.4Z" transform="translate(-542.27 -192.58)"/><ellipse class="cls-49" cx="1199.94" cy="620.45" rx="26.42" ry="19.38" transform="translate(-658.84 125.21) rotate(-14.4)"/><path class="cls-45" d="M1184.43,607.13s-7.8,11.55-3.52,21.83a10.14,10.14,0,0,0,2.89,3.9c3.74,3.12,13.16,8.1,30.45.68l-2.69,3.94s-17.67,5.06-20.39,3.75-13.61-5.78-15.36-8.79-3.18-7.87-2.9-9.88S1177.26,608.86,1184.43,607.13Z" transform="translate(-542.27 -192.58)"/><ellipse class="cls-47" cx="1198.94" cy="619.44" rx="15.26" ry="11.7" transform="translate(-658.62 124.93) rotate(-14.4)"/><circle class="cls-48" cx="663.07" cy="435.92" r="3.53"/><circle class="cls-48" cx="671.91" cy="419.38" r="3.69"/><circle class="cls-48" cx="671.27" cy="428.99" r="5.69"/><ellipse class="cls-46" cx="1232.06" cy="586.87" rx="21" ry="24.82" transform="translate(-56.34 1536.95) rotate(-82.33)"/><ellipse class="cls-47" cx="1231.57" cy="585.46" rx="12.67" ry="14.33" transform="translate(-55.37 1535.24) rotate(-82.33)"/><ellipse class="cls-48" cx="1233.74" cy="597.09" rx="3.83" ry="3.32" transform="translate(-65.01 1547.47) rotate(-82.33)"/><ellipse class="cls-48" cx="1243.41" cy="593.28" rx="6.17" ry="5.35" transform="translate(-52.85 1553.76) rotate(-82.33)"/><ellipse class="cls-49" cx="1277.33" cy="570.55" rx="23.3" ry="23.73" transform="matrix(0.51, -0.86, 0.86, 0.51, -409.43, 1182.48)"/><path class="cls-45" d="M1278.84,548s-13.46,4.53-18.85,16.29a14.31,14.31,0,0,0-1.29,5.33c-.18,5.25,1.53,16,17.42,21.57l-4.61,1.53s-14.3-7.85-14.89-10.84-3.58-14.33-2.3-18.13,4.17-8.93,5.89-10.46S1273.29,544.53,1278.84,548Z" transform="translate(-542.27 -192.58)"/><ellipse class="cls-46" cx="1277.33" cy="570.55" rx="23.3" ry="23.73" transform="matrix(0.51, -0.86, 0.86, 0.51, -409.43, 1182.48)"/><ellipse class="cls-47" cx="1277.53" cy="568.95" rx="14.06" ry="13.71" transform="translate(-407.96 1181.87) rotate(-59.17)"/><ellipse class="cls-48" cx="1284.52" cy="581.09" rx="6.85" ry="5.12" transform="translate(-414.98 1193.79) rotate(-59.17)"/><ellipse class="cls-46" cx="1199.94" cy="620.45" rx="26.42" ry="19.38" transform="translate(-658.84 125.21) rotate(-14.4)"/></g><g id="Layer_13" data-name="Layer 13"><path class="cls-50" d="M1207,350.75l-5.44-5.33-12.63,1.45-.89-4.54s18.51-15.19,28-9c0,0-.57,4.42-2.85,4.66s-4.2,6.3,3.8,7.81l3.76-1.83,1.38,2.08-14,7.14Z" transform="translate(-542.27 -192.58)"/><path class="cls-15" d="M1188.49,343.82a8.21,8.21,0,0,1,3.22-3.86c5.11-3.2,17.11-10.73,22.88-6.73,0,0,1.82-2.32-.19-3.77s-12.45-1.32-20,4.42-6.35,9.38-6.35,9.38Z" transform="translate(-542.27 -192.58)"/><ellipse class="cls-51" cx="1201.01" cy="338.85" rx="6.13" ry="2.48" transform="translate(-567.16 379.54) rotate(-26.53)"/><path class="cls-15" d="M1211.33,338.85a6.38,6.38,0,0,0,4.84,8l4.52-2.1-7.48-6.72Z" transform="translate(-542.27 -192.58)"/><path class="cls-52" d="M1188,371l-17.46-4s-8.25,5.44-10.68,5.68-10.19-1.78-6.52-7.4,11.73-18.45,22-16.75l.36,7.26s-4.84,6.12,16.17,6.54l.42,3.49Z" transform="translate(-542.27 -192.58)"/><path class="cls-53" d="M1154.2,362.88s5-21.33,19.73-15.76v1.69S1168.19,348.67,1154.2,362.88Z" transform="translate(-542.27 -192.58)"/><polygon class="cls-15" points="756.75 172.51 757.89 176.69 770.43 174.93 768.73 170.21 756.75 172.51"/><path class="cls-53" d="M1174.72,356.54s0,7.83,14.41,6l2.55-.88Z" transform="translate(-542.27 -192.58)"/><ellipse class="cls-51" cx="1165.96" cy="359.95" rx="4.43" ry="3.11" transform="translate(-271.01 997.14) rotate(-60)"/><path class="cls-15" d="M1312.14,358s1.76-6,11.27-1.54,6.3,21.85,6.3,21.85l-4.33,4.36-6.09-9.56Z" transform="translate(-542.27 -192.58)"/><path class="cls-15" d="M1177.6,384.59s-1.66,5.21,9.72,3.24l1.72-2.61-4.11-1.93Z" transform="translate(-542.27 -192.58)"/><path class="cls-15" d="M1165.48,385.28s1.8-9.41,9.71-5.08l-1.18,3.4-6.75,2.14Z" transform="translate(-542.27 -192.58)"/><path class="cls-52" d="M1188,392.37l-7.77,1.61s-1.61,10.82-8,7.19c0,0-14.58-22.16,4-19.83l2.1,3.29s-.61,5.37,9.24,1.61l.69,4.78Z" transform="translate(-542.27 -192.58)"/><ellipse class="cls-51" cx="1173.93" cy="390.48" rx="2.79" ry="4.63" transform="translate(-592.13 16.45) rotate(-9.96)"/><path class="cls-15" d="M1227.27,325.59s-10-5.13,3.59-9.17,32.05,2.58,32.05,2.58-.77,7.51-1,7.65S1227.27,325.59,1227.27,325.59Z" transform="translate(-542.27 -192.58)"/><path class="cls-50" d="M1237,340.15c-.16-.56,0-13,0-13l-10.71-2.07s15.23-10.3,36.62,0c0,0-9.2,4.41-9.69,3.12s.33,11.94.33,11.94l-.89,4.27s-13.89-.35-14.69,0S1237,340.15,1237,340.15Z" transform="translate(-542.27 -192.58)"/><path class="cls-15" d="M1278.93,415.54l-.45.09-3,.55s1.58,10.73,9.81,7.64Z" transform="translate(-542.27 -192.58)"/><path class="cls-50" d="M1298.71,368.3s15.86.85,13.14-4.29l.31-6.42s17.67,2.78,12.16,24.4c0,0-10.48-4.45-11.2-6.49s-7.61,2.52-7.61,2.52Z" transform="translate(-542.27 -192.58)"/><ellipse class="cls-51" cx="701.85" cy="130.97" rx="5.95" ry="2.3"/><path class="cls-15" d="M1277.75,330.84s-5.4-8.77,21-.7c0,0,8.29,10.07,7,12.3s-10.12,2.48-10.12,2.48l-15.82-9.1Z" transform="translate(-542.27 -192.58)"/><path class="cls-15" d="M1293.62,422.67s9.22.29,6.22,5.32-3.6,3.25-3.6,3.25Z" transform="translate(-542.27 -192.58)"/><path class="cls-50" d="M1271.06,346l10.48-9.14-3.86-5s18-1.65,23.09,11.95l-7.83-1.38-7.71,8.18-3.59,4.87-13-6.22Z" transform="translate(-542.27 -192.58)"/><ellipse class="cls-51" cx="1289.97" cy="336.29" rx="1.67" ry="5.22" transform="translate(-73.39 1193.9) rotate(-66.59)"/><ellipse class="cls-51" cx="1319.4" cy="368.95" rx="3.22" ry="5.73" transform="translate(-586.65 45.84) rotate(-10.16)"/><polygon class="cls-15" points="758.99 202.31 756.62 205.63 761.65 207.87 765.01 207.65 765.25 204.48 760.07 202.72 759.06 202.15 758.99 202.31"/><path class="cls-50" d="M1263.7,417.64l13.7-4.4s-4.48,11.19,7.87,10.58,9.53-1.27,9.53-1.27,3.64,7.51,0,9.66-15.74,10.15-25,7-4.78-8-4.78-8l6.24-4.59-5.66-6.17Z" transform="translate(-542.27 -192.58)"/><path class="cls-15" d="M1311.48,393.71s-3.23,18-8.79,19.17,11.08-1,11.08-1,7.77-9.11,7.76-13-5-7-5-7Z" transform="translate(-542.27 -192.58)"/><path class="cls-50" d="M1299.15,396.37s-.56,4.65,9,1.74l5.45-4.4s10,8.72-10.05,20c0,0-4.37-3.6-3.75-5.87a7.38,7.38,0,0,0,.44-3l-4.52-2.23,1.33-5.29Z" transform="translate(-542.27 -192.58)"/><path class="cls-50" d="M1237.48,423l.37,5.33,5,2.9s7.29,2.49,1.79,5c-4.32,2-20.65,1.56-28.15-2.48a3.2,3.2,0,0,1,.59-5.83c2.78-.95,6.16-1.8,7.77-1.1,3,1.31.93-6.05.93-6.05l2-2.49,9.68.89Z" transform="translate(-542.27 -192.58)"/><ellipse class="cls-51" cx="1309.3" cy="403.04" rx="4.82" ry="2.22" transform="translate(-329.81 1031.21) rotate(-53.92)"/><ellipse class="cls-51" cx="1282.64" cy="430.46" rx="7.62" ry="3.35" transform="translate(-612.28 209.61) rotate(-17.35)"/><ellipse class="cls-51" cx="1229.76" cy="432.53" rx="2.04" ry="4.88" transform="translate(172.11 1437.35) rotate(-86.09)"/><path class="cls-54" d="M1217.86,426.58s2.73,9.28,22.66,12c0,0-28.92-2.13-26.75-11.29Z" transform="translate(-542.27 -192.58)"/><path class="cls-50" d="M1199.42,403.11l-9.82,8.83s-15-8.07-16.33,0c-1.21,7.62,11.26,13.57,11.26,13.57s13.52,10,20.57,2.34l-3.44-7.14,8.54-8.76Z" transform="translate(-542.27 -192.58)"/><ellipse class="cls-51" cx="1190.44" cy="421.07" rx="3.52" ry="6.75" transform="matrix(0.59, -0.81, 0.81, 0.59, -393.24, 942.56)"/><path class="cls-54" d="M1188.65,412.56s-15.39,3.44-2.82,13.83c0,0-13.34-5.72-10.89-14.8C1174.94,411.59,1182.66,407.23,1188.65,412.56Z" transform="translate(-542.27 -192.58)"/><ellipse class="cls-50" cx="702.68" cy="188.98" rx="59.45" ry="41.41"/><ellipse class="cls-55" cx="702.41" cy="182.91" rx="50.13" ry="31.08"/><path class="cls-56" d="M1258,416c8.22-.84,15.08-4,18.21-7.88a5.34,5.34,0,0,0,.47-2.68c-.53-5.15-9-8.5-19-7.49s-17.66,6-17.14,11.16c.31,3,3.36,5.4,7.82,6.67A38.09,38.09,0,0,0,1258,416Z" transform="translate(-542.27 -192.58)"/><path class="cls-57" d="M1258.38,410.71c3.42-.35,6.28-1.66,7.59-3.28a2.18,2.18,0,0,0,.19-1.12c-.22-2.14-3.77-3.54-7.93-3.12s-7.36,2.5-7.14,4.65c.13,1.26,1.4,2.25,3.26,2.78A15.76,15.76,0,0,0,1258.38,410.71Z" transform="translate(-542.27 -192.58)"/><path class="cls-58" d="M1258,416c8.22-.84,15.08-4,18.21-7.88a5.34,5.34,0,0,0,.47-2.68c-.53-5.15-9-8.5-19-7.49s-17.66,6-17.14,11.16c.31,3,3.36,5.4,7.82,6.67A38.09,38.09,0,0,0,1258,416Z" transform="translate(-542.27 -192.58)"/><path class="cls-59" d="M1276.71,405.41c-.53-5.15-9-8.5-19-7.49s-17.66,6-17.14,11.16c.31,3,3.36,5.4,7.82,6.67-7-1.1-12.11-4.29-12.54-8.53-.61-6,8.35-11.85,20-13s21.61,2.73,22.22,8.75l-1.33,2.47" transform="translate(-542.27 -192.58)"/><ellipse class="cls-57" cx="1214.22" cy="401.1" rx="3.47" ry="4.93" transform="translate(-198.06 1145.69) rotate(-65.41)"/><path class="cls-56" d="M1224.43,404.4a5.33,5.33,0,0,0,.33-.92c-.41-2.79-3.15-5.9-7.19-7.79-5.29-2.48-10.79-1.91-12.27,1.27s1.6,7.76,6.89,10.23c.43.21.87.36,1.3.52C1218.28,409,1222.87,407.74,1224.43,404.4Z" transform="translate(-542.27 -192.58)"/><path class="cls-58" d="M1224.43,404.4a5.33,5.33,0,0,0,.33-.92c-.41-2.79-3.15-5.9-7.19-7.79-5.29-2.48-10.79-1.91-12.27,1.27s1.6,7.76,6.89,10.23c.43.21.87.36,1.3.52C1218.28,409,1222.87,407.74,1224.43,404.4Z" transform="translate(-542.27 -192.58)"/><path class="cls-59" d="M1224,401.33a14,14,0,0,0-6.45-5.64c-5.29-2.48-10.79-1.91-12.27,1.27s1.6,7.76,6.89,10.23c.43.21.87.36,1.3.52a16,16,0,0,1-2.61-.93c-5.64-2.64-8.71-8-6.86-11.93s7.92-5,13.56-2.39c4.09,1.92,6.83,5.26,7.31,8.47l-.87.4" transform="translate(-542.27 -192.58)"/><path class="cls-60" d="M1219.27,374.81a9.13,9.13,0,0,0,0-1.05,8.52,8.52,0,1,0-8.4,9.05A10.91,10.91,0,0,0,1219.27,374.81Z" transform="translate(-542.27 -192.58)"/><path class="cls-61" d="M1202.3,374.88a8.52,8.52,0,0,1,17-1.12,9.13,9.13,0,0,1,0,1.05,10.64,10.64,0,0,0,.31-3.4A10.92,10.92,0,1,0,1209.41,383a12.32,12.32,0,0,0,1.5-.22A8.5,8.5,0,0,1,1202.3,374.88Z" transform="translate(-542.27 -192.58)"/><ellipse class="cls-57" cx="1279.1" cy="382.49" rx="2.84" ry="7.67" transform="translate(-325.62 998.35) rotate(-53.92)"/><path class="cls-62" d="M1291.73,388.1a6.83,6.83,0,0,0,1-2.7c-.64-3.7-4.1-8-9.27-11-7.06-4.13-14.57-4.21-17.08-.45-2.41,3.6.47,9.69,6.67,14C1280.39,392.61,1288.65,392.71,1291.73,388.1Z" transform="translate(-542.27 -192.58)"/><ellipse class="cls-58" cx="1278.93" cy="381.58" rx="8.53" ry="14.6" transform="translate(-212.33 1127.45) rotate(-61.29)"/><path class="cls-63" d="M1291.73,388.1c-3.08,4.61-11.34,4.51-18.65-.14l.53.38c7,4.64,15.26,5.45,18.24,1.5a5.6,5.6,0,0,0,.91-4.44A6.83,6.83,0,0,1,1291.73,388.1Z" transform="translate(-542.27 -192.58)"/><path class="cls-63" d="M1266.41,373.91c2.51-3.76,10-3.68,17.08.45,5.17,3,8.63,7.34,9.27,11,.78-4.64-2.64-10.7-8.78-14.79-7.42-4.95-16-5.15-19.13-.44s.33,12.54,7.75,17.49l.48.3C1266.88,383.6,1264,377.51,1266.41,373.91Z" transform="translate(-542.27 -192.58)"/><path class="cls-62" d="M1263.39,361.37a3.68,3.68,0,0,0,.33-1.44c0-4.37-8.59-7.91-19.17-7.91s-19.17,3.54-19.17,7.91,8.2,7.74,18.46,7.9C1252.73,367.71,1260.27,365.07,1263.39,361.37Z" transform="translate(-542.27 -192.58)"/><path class="cls-63" d="M1225.38,359.93c0-4.37,8.58-7.91,19.17-7.91s19.17,3.54,19.17,7.91a2,2,0,0,1-.33,1.44c2-1.33,1.54-2.45,1.54-3.78,0-5.66-9.72-10.25-21.72-10.25s-21.71,4.59-21.71,10.25,9.72,10.25,21.71,10.25h.63C1233.58,367.67,1225.38,364.2,1225.38,359.93Z" transform="translate(-542.27 -192.58)"/><ellipse class="cls-57" cx="702.28" cy="167.45" rx="11.2" ry="4.55"/><ellipse class="cls-57" cx="1210.95" cy="373.77" rx="4.26" ry="2.83" transform="translate(-90.6 1195.88) rotate(-70.35)"/><circle class="cls-58" cx="1210.79" cy="374.29" r="8.5" transform="translate(-91.2 1196.07) rotate(-70.35)"/><ellipse class="cls-58" cx="702.28" cy="167.45" rx="19.17" ry="7.79"/><path class="cls-64" d="M1323.05,355.49c-12.52-7.1-11.63,8.31-11.63,8.31l-10.92,1h0a47.24,47.24,0,0,0-15.26-14.22l7.64-8.21c4.22,2.26,12.9.49,12.9.49,1.13-12.35-20.9-16.63-20.9-16.63-14.9-1.57-3.07,10.29-3.07,10.29l-8.15,8.53a81.53,81.53,0,0,0-20.9-4.59l-.29-12.37a23.51,23.51,0,0,0,8.66-1.09,4.68,4.68,0,0,0,.9-8.28c-9.88-6.42-31.92-1.73-31.92-1.73-16.87,8.23,7.22,11.06,7.22,11.06l.16,12.37a82.43,82.43,0,0,0-18.86,3.77l-6-6.1A11.07,11.07,0,0,0,1215,336a5,5,0,0,0-2.94-8c-10.66-1.87-20.26,7.79-23.77,11.86a4.44,4.44,0,0,0-.45,5.39c3.28,4.66,13.79-.06,13.79-.06l4,4.87a50.87,50.87,0,0,0-13.39,11L1177,356a2.24,2.24,0,0,1-1.57-2.17,14,14,0,0,0-.76-4.86,5.44,5.44,0,0,0-5.11-3.56c-11.71-.05-15.27,13.92-16.26,19.82a7.26,7.26,0,0,0,1.42,5.85c4.23,5.05,11.42-.69,14.29-3.35a3.19,3.19,0,0,1,3-.74l14.21,3.73a29.62,29.62,0,0,0-2.18,11.06c0,.59.07,1.18.1,1.77l-4.52.51a2,2,0,0,1-2.06-1.4,6.84,6.84,0,0,0-4-4.18,6.05,6.05,0,0,0-6.06.52c-4.07,3.12-2.53,10.51-1.43,14.18a10.61,10.61,0,0,0,2,3.82c8.75,10.48,11.2,1.18,11.78-2.3a1.53,1.53,0,0,1,1.41-1.27l5.06-.37a38.14,38.14,0,0,0,9.34,13.21l-6.51,6c-5-2.56-8.73-3.08-11.26-2.87a4.79,4.79,0,0,0-4.26,6.19c3.25,10.81,25.09,16.23,25.09,16.23,11.68-.54,2.36-11.87,2.36-11.87l5.79-5.7a72.68,72.68,0,0,0,19.13,7.12l-.1.66-.73,4.77s-19.85-1.13-8.79,7.34c0,0,15.06,6.92,27.88,2.24a2.36,2.36,0,0,0,1.15-3.54c-1.12-1.67-3.39-3.71-8-4.67l.57-5c2.25.17,4.54.27,6.86.27a85.79,85.79,0,0,0,21.29-2.65l4.46,6.75a20.93,20.93,0,0,0-6.49,4.39,4,4,0,0,0,1.92,6.55c16.16,4.26,31.61-8.35,31.61-8.35,11.22-9.29-13.16-8.08-13.16-8.08l-4.54-6.26a53.84,53.84,0,0,0,17.14-12.62l3.51,1.93a6.7,6.7,0,0,0-.13,6.29,5.94,5.94,0,0,0,6.4,3c15-2.6,14.71-17,14.71-17-2.42-12-14.53-.36-14.53-.36l-4.44-2.07a29.86,29.86,0,0,0,3.11-13.14,29.18,29.18,0,0,0-.4-4.78h0l8.72-2.25c5.4,9.77,13.23,6.78,13.23,6.78C1337.49,368.24,1323.05,355.49,1323.05,355.49Z" transform="translate(-542.27 -192.58)"/></g><g id="Layer_14" data-name="Layer 14"><ellipse class="cls-65" cx="440.58" cy="449.33" rx="21.32" ry="14.97"/><path class="cls-66" d="M944,667s-18.6-12.48-11.19-38.92,55.44-42.42,55.44-42.42,38-3.09,53.47,11.89,7.75,44.06,4.46,46.92-29,36.77-66.07,35.07C980.07,679.51,947.55,674.79,944,667Z" transform="translate(-542.27 -192.58)"/><path class="cls-67" d="M949.08,641.9c3.76,13,15.86,28.84,53.74,21.77,20.71-3.87,35.18-23.42,32.28-44.29-.1-.75-.22-1.51-.36-2.29,0,0-2.8-28.13-43.21-18.45,0,0-20.49,4.93-33.84,15.64A25.94,25.94,0,0,0,949.08,641.9Z" transform="translate(-542.27 -192.58)"/><ellipse class="cls-68" cx="442.58" cy="445.76" rx="12.7" ry="9.08"/><ellipse class="cls-65" cx="469.21" cy="416.33" rx="7.85" ry="5.41"/><ellipse class="cls-69" cx="469.96" cy="415.07" rx="4.83" ry="3.33"/><path class="cls-70" d="M1024.74,612.44s1.47-3.35-3.09-5.71c0,0-2.91-.2,0-2.72,0,0,7.28,2.23,5.81,8.37C1027.45,612.38,1026.72,615,1024.74,612.44Z" transform="translate(-542.27 -192.58)"/><path class="cls-70" d="M1006.06,622.52s-2.24,2.9,1.62,6.29c0,0,2.77.89-.65,2.64,0,0-6.53-3.93-3.62-9.52C1003.41,621.93,1004.77,619.55,1006.06,622.52Z" transform="translate(-542.27 -192.58)"/><path class="cls-70" d="M949.36,642.83s3.59-.77,5,4.18c0,0-.4,2.89,2.66.56,0,0-.71-7.58-7-7.39C950,640.18,947.25,640.37,949.36,642.83Z" transform="translate(-542.27 -192.58)"/><path class="cls-70" d="M978.48,659.6s-2.39,2-6.29-1.14c0,0-1.32-2.3-2.41.64,0,0,4.85,5.34,9.71,2.7C979.49,661.8,981.54,660.59,978.48,659.6Z" transform="translate(-542.27 -192.58)"/><path class="cls-70" d="M1001.82,659.48s-2.65,1.64-6.07-2c0,0-1-2.46-2.48.29,0,0,4.06,6,9.24,4C1002.51,661.81,1004.71,660.89,1001.82,659.48Z" transform="translate(-542.27 -192.58)"/><path class="cls-70" d="M1010.83,655s-2.6-.46-1.8-3.59c0,0,1.24-1.53-1.54-1,0,0-2.14,4.45,2,5.89C1009.53,656.32,1011.37,656.89,1010.83,655Z" transform="translate(-542.27 -192.58)"/><path class="cls-70" d="M1025.44,619.62s-2.24,2.9,1.62,6.29c0,0,2.77.89-.65,2.64,0,0-6.53-3.93-3.62-9.52C1022.79,619,1024.14,616.65,1025.44,619.62Z" transform="translate(-542.27 -192.58)"/><path class="cls-70" d="M1020.44,637.84s-3.64-.42-4.55,4.64c0,0,.67,2.83-2.59.8,0,0,0-7.62,6.28-8C1019.58,635.27,1022.32,635.2,1020.44,637.84Z" transform="translate(-542.27 -192.58)"/><path class="cls-70" d="M1030.05,640s-3.14,1.92-.73,6.46c0,0,2.27,1.82-1.54,2.23,0,0-4.71-6,0-10.18C1027.78,638.5,1029.89,636.76,1030.05,640Z" transform="translate(-542.27 -192.58)"/><path class="cls-70" d="M994.31,606s2,2.37,2.58-1.25a3.26,3.26,0,0,1-.38-4.65s-.69-3-2.4-.17C994.11,599.88,992.75,604.44,994.31,606Z" transform="translate(-542.27 -192.58)"/><path class="cls-70" d="M984.57,615.44s-3.19-4.27,3.4-3.17a11.92,11.92,0,0,0,9.8,3s4.64,3-2.38,4C995.15,619.29,984.9,616.62,984.57,615.44Z" transform="translate(-542.27 -192.58)"/><path class="cls-70" d="M973.72,608.65s.23-3.9,9.12-1.94c0,0,1.27,1-.69,1.69C982.15,608.4,976.35,608,973.72,608.65Z" transform="translate(-542.27 -192.58)"/><path class="cls-71" d="M1040.93,597.24s7.26-11.68,12.14-9.53c0,0,1.6,3.87-9.07,13.35Z" transform="translate(-542.27 -192.58)"/><path class="cls-71" d="M1034,592.36s7.82-13.36,13.71-11.2c0,0,2.13,4.23-9.85,15.31Z" transform="translate(-542.27 -192.58)"/><path class="cls-71" d="M1044.85,603.76s9.73-12,15.23-9c0,0,1.47,4.5-12,13.66Z" transform="translate(-542.27 -192.58)"/><path class="cls-71" d="M1050.67,623.9s13.54-2.39,15.2,2.68c0,0-1.81,3.77-16,2.16Z" transform="translate(-542.27 -192.58)"/><path class="cls-71" d="M1048.67,611s11.32-7.81,14.94-3.89c0,0-.08,4.18-13.65,8.61Z" transform="translate(-542.27 -192.58)"/><path class="cls-71" d="M1050,617s14.28-6,17.69-.71c0,0-.84,4.66-17.07,6.31Z" transform="translate(-542.27 -192.58)"/><path class="cls-71" d="M1049.81,630.85s15.46-.81,16.88,5.31c0,0-2.36,4.1-18.2.17Z" transform="translate(-542.27 -192.58)"/><path class="cls-71" d="M1048.35,638.21s15.46-.81,16.89,5.31c0,0-2.37,4.1-18.2.17Z" transform="translate(-542.27 -192.58)"/><path class="cls-71" d="M1045.51,644.33s15.33,2.13,15.58,8.41c0,0-3.1,3.58-17.91-3.27Z" transform="translate(-542.27 -192.58)"/><path class="cls-71" d="M1040.31,651.17s15,3.78,14.57,10c0,0-3.47,3.23-17.44-5.19Z" transform="translate(-542.27 -192.58)"/><path class="cls-71" d="M1035.7,656.62s14.13,6.34,12.61,12.43c0,0-4,2.57-16.28-8.14Z" transform="translate(-542.27 -192.58)"/><path class="cls-71" d="M1031,661.12s13.42,8.8,11.3,15.9c0,0-4.22,2.7-15.39-11.14Z" transform="translate(-542.27 -192.58)"/><path class="cls-71" d="M1026.35,666s8.51,13.39,3.75,19.72c0,0-4.86,1.23-9.33-16.39Z" transform="translate(-542.27 -192.58)"/><path class="cls-71" d="M1054.88,661.21s-3.47,3.23-17.44-5.19" transform="translate(-542.27 -192.58)"/><path class="cls-71" d="M943.51,665.58s-7.8,14-14,11.38c0,0-2.38-4.66,9.77-16.1Z" transform="translate(-542.27 -192.58)"/><path class="cls-71" d="M938.52,659.56s-10.95,13.37-18.35,9.62c0,0-2.51-5.21,13.57-15.21Z" transform="translate(-542.27 -192.58)"/><path class="cls-71" d="M933.62,650.9s-12.34,11.14-19.38,6.63c0,0-2-5.27,15.17-12.54Z" transform="translate(-542.27 -192.58)"/><path class="cls-71" d="M959.78,674.51s-4.41,15.28-12.43,15.26c0,0-4.24-3.21,6-17.79Z" transform="translate(-542.27 -192.58)"/><path class="cls-71" d="M951.9,671.09s-7.24,12.43-14.62,10.77c0,0-3.24-3.66,9.25-14.3Z" transform="translate(-542.27 -192.58)"/><path class="cls-71" d="M969,677.53s-3.51,15.76-11.76,16.43c0,0-4.57-2.85,5-18.4Z" transform="translate(-542.27 -192.58)"/><path class="cls-71" d="M978,678.72s-.14,15.8-8.52,18.72c0,0-5.61-1.31.75-19Z" transform="translate(-542.27 -192.58)"/><path class="cls-71" d="M987.73,678.71S987.1,694.19,979,697c0,0-5.32-1.29,1.32-18.56Z" transform="translate(-542.27 -192.58)"/><path class="cls-71" d="M995.45,678s1.51,15.08-5.85,18.86c0,0-5.22-.57-1.3-18.07Z" transform="translate(-542.27 -192.58)"/><path class="cls-71" d="M1004.54,676.34s1,14.95-6.21,18.67c0,0-5-.59-.7-17.92Z" transform="translate(-542.27 -192.58)"/><path class="cls-71" d="M1011.63,672.9s4.71,13.94-1.28,19.12c0,0-4.89.61-5.16-16.67Z" transform="translate(-542.27 -192.58)"/><path class="cls-71" d="M1018.53,670.17s6.47,12.92,1.3,18.79c0,0-4.68,1.27-7.26-15.44Z" transform="translate(-542.27 -192.58)"/><path class="cls-71" d="M1046.56,605.29s15-3.86,14.53-10.12c0,0-3.49-3.21-17.42,5.28Z" transform="translate(-542.27 -192.58)"/><path class="cls-71" d="M1038,594.64s12.81-8.7,10.25-14.44c0,0-4.36-1.84-14.61,10.86Z" transform="translate(-542.27 -192.58)"/><path class="cls-71" d="M1030.52,591.84s12.81-8.7,10.25-14.44c0,0-4.36-1.84-14.61,10.86Z" transform="translate(-542.27 -192.58)"/><path class="cls-71" d="M1024.61,588.7s10.93-11,7.34-16.12c0,0-4.64-1-12.3,13.42Z" transform="translate(-542.27 -192.58)"/><path class="cls-71" d="M1016.87,586.52s9.68-12.09,5.55-16.82c0,0-4.71-.47-10.76,14.68Z" transform="translate(-542.27 -192.58)"/><path class="cls-71" d="M1011,584.57s5.47-14.48.08-17.7c0,0-4.63,1-5.7,17.28Z" transform="translate(-542.27 -192.58)"/><path class="cls-71" d="M1004.48,585.36s3.54-15.65-2.92-19.28c0,0-4.91,1-3.33,18.7Z" transform="translate(-542.27 -192.58)"/><path class="cls-71" d="M998.74,585s-1.3-15.81-8.92-18c0,0-4.62,2,2.47,18.7Z" transform="translate(-542.27 -192.58)"/><path class="cls-71" d="M931,631.76s-14.7-6.47-18-.6c0,0,.92,5.15,17.51,6.93Z" transform="translate(-542.27 -192.58)"/><path class="cls-71" d="M938.6,614.82s-12.75-9.51-19.13-4.64c0,0-1.44,5.11,15.53,10.54Z" transform="translate(-542.27 -192.58)"/><path class="cls-71" d="M934.39,622.31s-13.28-5.53-18.17.24c0,0-.37,4.88,16,5.82Z" transform="translate(-542.27 -192.58)"/><path class="cls-71" d="M944.66,606.87s-12.31-10.44-19.29-6c0,0-1.92,5,15.08,11.66Z" transform="translate(-542.27 -192.58)"/><path class="cls-71" d="M952,601.28s-9.66-12.51-18.1-9.77c0,0-3.67,4.43,12.06,14.65Z" transform="translate(-542.27 -192.58)"/><path class="cls-71" d="M959.76,596.77s-9.85-12-18-9.33c0,0-3.45,4.25,12.27,14Z" transform="translate(-542.27 -192.58)"/><path class="cls-71" d="M966.6,593.73s-7.9-12.93-16.05-11.5c0,0-3.82,3.61,9.88,15.19Z" transform="translate(-542.27 -192.58)"/><path class="cls-71" d="M974.3,590.34s-8.23-12.52-16.23-11.12c0,0-3.64,3.5,10.26,14.7Z" transform="translate(-542.27 -192.58)"/><path class="cls-71" d="M981,588.39s-4.68-13.95-12.57-14.47c0,0-4.27,2.47,5.95,16.41Z" transform="translate(-542.27 -192.58)"/><path class="cls-71" d="M989.58,586.44s-2.64-14.21-10.31-15.76c0,0-4.5,1.82,3.54,16.69Z" transform="translate(-542.27 -192.58)"/><path class="cls-71" d="M930.59,644.05s-14.21,4.82-19.37-1.36c0,0-.34-5,17.22-5Z" transform="translate(-542.27 -192.58)"/><path class="cls-71" d="M1050.72,619.52c2.34,18.08-11,38.1-31.5,49.27-23.29,12.7-56.19,14.18-74.9-2.27-26.52-23.33-10.13-64.24,36.95-77.45C1019,578.48,1047.68,596.09,1050.72,619.52Z" transform="translate(-542.27 -192.58)"/><path class="cls-70" d="M958,619.92a2.38,2.38,0,0,1,3-1.8l7.62-.09s1.62,1,1.08,1.89S957.51,620.91,958,619.92Z" transform="translate(-542.27 -192.58)"/><path class="cls-70" d="M950.82,630.56a8.34,8.34,0,0,0,9-.35.35.35,0,0,0-.11-.65c-1.64-.53-5.75-1.58-8.85,0A.57.57,0,0,0,950.82,630.56Z" transform="translate(-542.27 -192.58)"/></g><g id="Layer_15" data-name="Layer 15"><path class="cls-72" d="M605.85,532s-23.27.74-25.41-40.77c0,0-1.74-50.3,22.84-43.84,0,0,17.54,2.12,8.9,20.22,0,0-8.78,16.71,2,39.84C614.15,507.44,626.68,522.49,605.85,532Z" transform="translate(-542.27 -192.58)"/><path id="InsideEdge" class="cls-73" d="M599.88,519.93s-21-31.37-2.27-63.78c0,0,8.17-7.9,5.75,6.73,0,0-14.29,24.9,4,53.16C607.37,516,608.68,528.6,599.88,519.93Z" transform="translate(-542.27 -192.58)"/><path class="cls-73" d="M606.7,529.93s-22.12-7.47-21.42-48.34c0,0,.84-41.07,25-26.85.7-.26,4.86,1.75,4.86,1.75s-6.76-11.33-17.57-9.26-17.69,24.4-17.52,33,.2,30.25,14.17,49.85C594.2,530.11,603.52,533.08,606.7,529.93Z" transform="translate(-542.27 -192.58)"/><path class="cls-74" d="M605.64,533c-6.87,2.08-18.27,0-24.51-31.37a76.44,76.44,0,0,1-.33-29.1c1.44-7.5,4-16,8.72-21.4a14.2,14.2,0,0,1,13.88-4.76c5.49,1.12,13.42,4.49,11.49,14.66,0,0-5.56,15.22-4.9,29a26.92,26.92,0,0,0,2.83,10.83,62.36,62.36,0,0,1,4.77,12.39c1.2,4.85,0,10-2.88,13.12L613,528.12A17,17,0,0,1,605.64,533Z" transform="translate(-542.27 -192.58)"/><path class="cls-74" d="M606.11,522.86s-4.31.36-6.23-2.93c0,0-14.3-23.27-9.3-44.33,0,0,3-22.11,11.75-21.43,0,0,5.28,2.09-2.57,18.26,0,0-6.88,20.31,7.61,43.61C607.37,516,608.52,518.72,606.11,522.86Z" transform="translate(-542.27 -192.58)"/></g><g id="Layer_16" data-name="Layer 16"><path class="cls-75" d="M1322.68,462s24.94,1.32,22.71,36c0,0-3.6,41.92-29.15,34.52,0,0-18.51-3.22-7.32-17.54,0,0,11.2-13.15,2.23-33.26C1311.15,481.66,1299.4,468.12,1322.68,462Z" transform="translate(-542.27 -192.58)"/><path id="InsideEdge-2" data-name="InsideEdge" class="cls-73" d="M1327.75,472.47s19.06,27.8-4.51,53.17c0,0-9.58,5.89-5.4-6.07,0,0,18-19.49,1.49-44.49C1319.33,475.08,1319.29,464.54,1327.75,472.47Z" transform="translate(-542.27 -192.58)"/><path class="cls-73" d="M1321.55,463.6s22.82,8,17.63,41.93c0,0-5.36,34.05-29.6,20.23-.78.16-5-1.85-5-1.85s6,10,17.76,9.15,21.55-18.81,22.3-26,3.07-25.14-9.72-42.58C1334.92,464.49,1325.29,461.24,1321.55,463.6Z" transform="translate(-542.27 -192.58)"/><path class="cls-74" d="M1323,461.17c7.56-1.15,19.52,1.51,22.77,28.1a50.2,50.2,0,0,1-2.81,24.2c-2.35,6.11-6,13-11.63,17a18.53,18.53,0,0,1-15.34,2.81c-5.75-1.39-13.85-4.85-10.68-13.13,0,0,7.58-12.19,8.37-23.66a18.11,18.11,0,0,0-1.84-9.23,43.12,43.12,0,0,1-3.76-10.69A10.6,10.6,0,0,1,1312.6,466l2-1.38A20.63,20.63,0,0,1,1323,461.17Z" transform="translate(-542.27 -192.58)"/><path class="cls-74" d="M1321.42,469.52s4.64.06,6.33,3c0,0,12.74,20.52,5.11,37.6,0,0-5.58,18.11-14.87,16.83,0,0-5.42-2.18,4.73-15,0,0,9.55-16.3-3.39-36.86C1319.33,475.08,1318.38,472.76,1321.42,469.52Z" transform="translate(-542.27 -192.58)"/></g><g id="Layer_17" data-name="Layer 17"><g id="OutLine"><path class="cls-76" d="M836.64,637.53s-16.19-9.3,0-39.22c0,0,20.33-35.89,34.33-21,0,0,11.06,8.86-2.56,17.89,0,0-13.15,8-15.69,28.66C852.81,623.85,854.94,639.66,836.64,637.53Z" transform="translate(-542.27 -192.58)"/><path id="InsideEdge-3" data-name="InsideEdge" class="cls-73" d="M837.73,626.58s-1-30.8,25.7-45.54c0,0,9-2.08,1.05,7.12,0,0-20.33,11.38-20,38.86C844.51,627,840,636.34,837.73,626.58Z" transform="translate(-542.27 -192.58)"/><path class="cls-73" d="M838.12,636.44s-11.86-14.53,6-42.81c0,0,18.11-28.36,28.51-8.25.6.1,2.58,3.27,2.58,3.27s.24-10.78-8-13.88-22.52,9.61-26.09,15.71-12.78,21.23-11.61,40.81C829.51,631.29,834.59,637.31,838.12,636.44Z" transform="translate(-542.27 -192.58)"/><path class="cls-74" d="M836.1,638.1c-5.59-1.44-12.48-7.69-3.39-32.19a64,64,0,0,1,12.22-20.48c4.18-4.62,9.59-9.47,15.09-11.28a11.2,11.2,0,0,1,11.51,2.52c3.28,3.1,7.25,8.79,1.59,15.08,0,0-10.3,8.3-15.72,18.2a22.49,22.49,0,0,0-2.7,8.75,51.78,51.78,0,0,1-2,10.68,12,12,0,0,1-7.59,8l-2,.56A13.63,13.63,0,0,1,836.1,638.1Z" transform="translate(-542.27 -192.58)"/><path class="cls-74" d="M840.74,631.26a5.56,5.56,0,0,1-3-4.68s.18-22.29,12.58-34.91c0,0,11.49-14.2,17.18-10,0,0,2.73,3.69-9.55,11.69,0,0-13.37,11.3-13.44,33.69A6.65,6.65,0,0,1,840.74,631.26Z" transform="translate(-542.27 -192.58)"/></g></g><g id="Layer_18" data-name="Layer 18"><path class="cls-77" d="M1225.35,496.92a11.77,11.77,0,0,0-10-10c-41.76-6.22-79.89,38.22-88.15,48.64a11.37,11.37,0,0,1-4.12,3.25c-17.87,8.49-21,16.41-20,22.1a11.47,11.47,0,0,0,10.62,8.92l17,1.27a13,13,0,0,0,6.53-1.5c18.33-9.64,50.37-22,64.59-27.39a30.74,30.74,0,0,0,4.48-3.46C1224.77,521.31,1226.53,505.9,1225.35,496.92Z" transform="translate(-542.27 -192.58)"/><ellipse class="cls-78" cx="612.55" cy="339.26" rx="8.98" ry="5.61"/><ellipse class="cls-78" cx="593.82" cy="353.12" rx="5.73" ry="4.67"/><ellipse class="cls-78" cx="619.32" cy="319.81" rx="6.24" ry="4.67"/><ellipse class="cls-78" cx="1186.8" cy="499.36" rx="3.78" ry="4.8" transform="translate(61.6 1454.84) rotate(-85.9)"/><ellipse class="cls-78" cx="584.1" cy="369.22" rx="6.24" ry="4.67"/><ellipse class="cls-78" cx="572.89" cy="361.19" rx="4.52" ry="3.38"/><ellipse class="cls-78" cx="609.38" cy="359.9" rx="4.82" ry="3.61"/><ellipse class="cls-78" cx="639.98" cy="346.65" rx="6.24" ry="4.67"/><ellipse class="cls-78" cx="670.38" cy="301.94" rx="8.07" ry="6.18"/><ellipse class="cls-78" cx="670.81" cy="320.79" rx="6.24" ry="4.67"/><path class="cls-79" d="M1186.75,501.76c-11.87,0-21.49,6.79-21.49,15.18V518c.81-6.66,8.68-11.91,18.32-11.91,10.17,0,18.41,5.82,18.41,13,0,6.81-7.41,12.4-16.86,13h1.55c11.87,0,21.51-6.8,21.51-15.2S1198.62,501.76,1186.75,501.76Z" transform="translate(-542.27 -192.58)"/><path class="cls-80" d="M1165.32,518a9.91,9.91,0,0,0,0,1.09c0,7.19,8.24,13,18.39,13h1.55C1174.56,531.55,1166.09,525.56,1165.32,518Z" transform="translate(-542.27 -192.58)"/><path class="cls-80" d="M1202.05,519c0-7.17-8.23-13-18.4-13-9.64,0-17.52,5.24-18.33,11.91.77,7.52,9.24,13.5,19.88,14C1194.65,531.53,1202.05,525.94,1202.05,519Z" transform="translate(-542.27 -192.58)"/><path class="cls-77" d="M1130.68,571.14h0a11.8,11.8,0,0,0,6.36-1.33c17-8.9,47.41-20.45,59.45-24.89a29.08,29.08,0,0,0,5.39-2.67c-14.22,5.35-46.26,17.75-64.58,27.39A12.94,12.94,0,0,1,1130.68,571.14Z" transform="translate(-542.27 -192.58)"/><path class="cls-81" d="M1235.66,487.66a13.19,13.19,0,0,0-11.19-11.23c-46.56-7-89.17,43.08-98.3,54.74a12.83,12.83,0,0,1-4.58,3.65c-19.94,9.49-23.46,18.45-22.25,24.84a12.73,12.73,0,0,0,11.78,10.06l18.94,1.4h.62l-17-1.27a11.48,11.48,0,0,1-10.62-8.92c-1.08-5.69,2.13-13.65,20-22.1a11.37,11.37,0,0,0,4.12-3.25c8.26-10.36,46.39-54.86,88.15-48.64a11.77,11.77,0,0,1,10,10c1.18,9-.58,24.39-19.11,41.87a31.86,31.86,0,0,1-4.48,3.46l1.59-.6a32.87,32.87,0,0,0,11-6.92C1235,515.07,1237,497.81,1235.66,487.66Z" transform="translate(-542.27 -192.58)"/><ellipse class="cls-82" cx="643.99" cy="324.5" rx="22" ry="16.39"/><path class="cls-83" d="M1222.18,527.2a14.93,14.93,0,0,1,2.42-1.24c.51.28,1,.49,1.53.75l3.06,1.44,3.06,1.42,1.52.72a18.79,18.79,0,0,1,.64,2.64,19.77,19.77,0,0,1-2.44,1.21l-1.53-.72-3.06-1.43-3.05-1.44c-.51-.23-1-.51-1.53-.7A14.17,14.17,0,0,1,1222.18,527.2Z" transform="translate(-542.27 -192.58)"/><path class="cls-83" d="M1217.24,532.93a14.29,14.29,0,0,1,2.44-1.06c.44.29.91.53,1.36.8l2.78,1.57,2.76,1.58,1.38.78a19.51,19.51,0,0,1,.34,2.63,17.09,17.09,0,0,1-2.45,1.06l-1.38-.78-2.76-1.57-2.78-1.57c-.46-.26-.91-.55-1.38-.79A14.75,14.75,0,0,1,1217.24,532.93Z" transform="translate(-542.27 -192.58)"/><path class="cls-83" d="M1211.08,537.45a14.47,14.47,0,0,1,2.59-.66c.38.36.81.66,1.21,1l2.44,2,2.44,2,1.21,1a19.22,19.22,0,0,1-.1,2.63,23.07,23.07,0,0,1-2.57.66l-1.23-1-2.45-2-2.44-2c-.4-.32-.8-.68-1.23-1A16.81,16.81,0,0,1,1211.08,537.45Z" transform="translate(-542.27 -192.58)"/><path class="cls-83" d="M1203.77,542.25a15,15,0,0,1,2.64-.49c.36.38.76.72,1.14,1.1l2.32,2.13,2.33,2.12,1.15,1.08a17.91,17.91,0,0,1-.28,2.64,19,19,0,0,1-2.61.48l-1.17-1.08-2.31-2.12-2.31-2.13c-.41-.36-.77-.74-1.19-1.06A15.92,15.92,0,0,1,1203.77,542.25Z" transform="translate(-542.27 -192.58)"/><path class="cls-83" d="M1195,545.41a14.8,14.8,0,0,1,2.74-.27c.36.42.78.8,1.16,1.23l2.38,2.42,2.4,2.44,1.19,1.21a18.94,18.94,0,0,1-.32,2.7,19,19,0,0,1-2.72.27l-1.19-1.21-2.37-2.44-2.4-2.42c-.41-.4-.77-.83-1.21-1.21A16.72,16.72,0,0,1,1195,545.41Z" transform="translate(-542.27 -192.58)"/><path class="cls-83" d="M1187.85,549.3a16.51,16.51,0,0,1,2.53-.22c.23.39.53.73.78,1.09l1.62,2.12,1.61,2.12.81,1.09a18.57,18.57,0,0,1-.87,2.33,15.09,15.09,0,0,1-2.51.21L1191,557l-1.61-2.12-1.63-2.12c-.28-.34-.51-.73-.81-1A16.84,16.84,0,0,1,1187.85,549.3Z" transform="translate(-542.27 -192.58)"/><path class="cls-83" d="M1178.68,551.67a14.5,14.5,0,0,1,2.63.2c.26.44.55.87.81,1.31l1.63,2.66,1.64,2.63.81,1.32a18.39,18.39,0,0,1-1,2.44,17.45,17.45,0,0,1-2.61-.22l-.83-1.31-1.62-2.63-1.63-2.66c-.28-.42-.53-.89-.83-1.29A14.48,14.48,0,0,1,1178.68,551.67Z" transform="translate(-542.27 -192.58)"/><path class="cls-83" d="M1170,555.14a14.19,14.19,0,0,1,2.61.1c.22.43.51.83.77,1.25l1.61,2.51,1.59,2.48.81,1.26a19.18,19.18,0,0,1-1,2.4,20.4,20.4,0,0,1-2.59-.11l-.8-1.25-1.59-2.49-1.62-2.5c-.27-.41-.51-.85-.8-1.23A13.09,13.09,0,0,1,1170,555.14Z" transform="translate(-542.27 -192.58)"/><path class="cls-83" d="M1160.53,560.15a14.4,14.4,0,0,1,2.44-.47,12.17,12.17,0,0,0,.8,1l1.64,1.89,1.63,1.89.81,1a16.77,16.77,0,0,1-.78,2.33,20.19,20.19,0,0,1-2.42.45l-.83-1-1.64-1.88-1.63-1.89c-.28-.3-.53-.64-.83-.94A15.66,15.66,0,0,1,1160.53,560.15Z" transform="translate(-542.27 -192.58)"/><path class="cls-83" d="M1151.91,562.65a15.3,15.3,0,0,1,2.52-.36c.3.38.64.72,1,1.06l1.89,2.13,1.91,2.12.93,1.06a17.6,17.6,0,0,1-.61,2.48,19.75,19.75,0,0,1-2.53.36l-1-1.06-1.92-2.12-1.88-2.12c-.34-.34-.62-.72-1-1A13.44,13.44,0,0,1,1151.91,562.65Z" transform="translate(-542.27 -192.58)"/><path class="cls-83" d="M1143.63,567.34a15.1,15.1,0,0,1,2.5-.57c.32.34.68.66,1,1l2.12,2,2.13,1.95,1,1a20,20,0,0,1-.43,2.53,21.52,21.52,0,0,1-2.5.57l-1-1-2.12-2-2.13-1.93c-.34-.32-.66-.68-1-1A16.72,16.72,0,0,1,1143.63,567.34Z" transform="translate(-542.27 -192.58)"/><path class="cls-83" d="M1135.22,571.25a16.46,16.46,0,0,1,2.61-.4c.32.4.68.74,1,1.12l2.12,2.12,2.13,2.13,1.06,1.08a24.78,24.78,0,0,1-.49,2.57,17.39,17.39,0,0,1-2.59.38l-1-1.1-2.12-2.13-2.13-2.12c-.36-.36-.68-.74-1.06-1.08A17.14,17.14,0,0,1,1135.22,571.25Z" transform="translate(-542.27 -192.58)"/><path class="cls-83" d="M1126.43,571.14a16.18,16.18,0,0,1,2.72.85c.23.6.51,1.17.76,1.77l1.57,3.46,1.55,3.48.79,1.74a20.37,20.37,0,0,1-1.17,2.61,18.71,18.71,0,0,1-2.72-.87l-.76-1.74L1127.6,579l-1.55-3.49c-.28-.57-.51-1.16-.81-1.71A16.71,16.71,0,0,1,1126.43,571.14Z" transform="translate(-542.27 -192.58)"/><path class="cls-83" d="M1119.13,571.14a16.25,16.25,0,0,1,2.12,1.85v11.08a21.77,21.77,0,0,1-2.12,1.85,17.88,17.88,0,0,1-2.13-1.85V573A16.33,16.33,0,0,1,1119.13,571.14Z" transform="translate(-542.27 -192.58)"/><path class="cls-83" d="M1113.29,570a18.28,18.28,0,0,1,1.06,2.59c-.32.53-.57,1.06-.87,1.59l-1.68,3.18-1.68,3.19-.85,1.59a17.7,17.7,0,0,1-2.71.6,18.93,18.93,0,0,1-1-2.57l.85-1.6,1.67-3.18,1.68-3.18c.28-.56.59-1.07.83-1.62A16.92,16.92,0,0,1,1113.29,570Z" transform="translate(-542.27 -192.58)"/><path class="cls-83" d="M1106.17,568.36a16.78,16.78,0,0,1,.22,2.74,15,15,0,0,0-1.26,1.13l-2.5,2.29-2.49,2.27-1.25,1.15a16.14,16.14,0,0,1-2.67-.43,16.15,16.15,0,0,1-.19-2.69l1.25-1.15,2.48-2.29,2.49-2.3c.42-.38.85-.74,1.23-1.14A17.31,17.31,0,0,1,1106.17,568.36Z" transform="translate(-542.27 -192.58)"/><path class="cls-83" d="M1102,565.14a16.68,16.68,0,0,1-1,2.73c-.64.22-1.23.51-1.85.75l-3.67,1.53-3.69,1.52-1.83.77a19.67,19.67,0,0,1-2.65-1.19,19.2,19.2,0,0,1,1-2.74l1.84-.76,3.68-1.51,3.67-1.53c.62-.28,1.23-.49,1.83-.78A15.82,15.82,0,0,1,1102,565.14Z" transform="translate(-542.27 -192.58)"/><path class="cls-83" d="M1101.21,559.38a21.3,21.3,0,0,1-1.79,2.34,19.51,19.51,0,0,0-2,.19l-4,.4-4,.43-2,.19a19.2,19.2,0,0,1-2.23-1.89,22.29,22.29,0,0,1,1.78-2.32l2.12-.21,4-.42,4-.41a12.13,12.13,0,0,0,2-.23A16.28,16.28,0,0,1,1101.21,559.38Z" transform="translate(-542.27 -192.58)"/><path class="cls-83" d="M1099.13,554.26a17.85,17.85,0,0,1-2.13,2.13,12.32,12.32,0,0,1-2-.11l-4-.17-4-.17h-2a20.29,20.29,0,0,1-1.92-2.12,25.06,25.06,0,0,1,2.13-2.12h2l4,.17,4,.17h2A17.68,17.68,0,0,1,1099.13,554.26Z" transform="translate(-542.27 -192.58)"/><path class="cls-83" d="M1101.8,548.77a17.06,17.06,0,0,1-2.4,1.52c-.57-.21-1.19-.36-1.78-.53l-3.59-1-3.57-1-1.8-.53a21.13,21.13,0,0,1-1.19-2.55,16.85,16.85,0,0,1,2.38-1.52l1.78.53,3.59,1,3.59,1c.59.15,1.19.36,1.8.49A18.41,18.41,0,0,1,1101.8,548.77Z" transform="translate(-542.27 -192.58)"/><path class="cls-83" d="M1106.81,544.35a16.17,16.17,0,0,1-2.48,1c-.45-.32-.94-.57-1.4-.85l-2.81-1.66-2.82-1.65-1.4-.83a21.78,21.78,0,0,1-.32-2.68,22.87,22.87,0,0,1,2.48-1l1.41.82,2.8,1.68,2.82,1.66c.47.25.91.57,1.4.8A16.2,16.2,0,0,1,1106.81,544.35Z" transform="translate(-542.27 -192.58)"/><path class="cls-83" d="M1112.23,539.66a14.42,14.42,0,0,1-2.55.78c-.41-.34-.85-.63-1.28-1l-2.54-1.87-2.57-1.89-1.28-.93a19.68,19.68,0,0,1,0-2.66,15,15,0,0,1,2.53-.76l1.27.93,2.57,1.87,2.55,1.89c.45.3.85.64,1.3.91A17.13,17.13,0,0,1,1112.23,539.66Z" transform="translate(-542.27 -192.58)"/><path class="cls-83" d="M1120.06,534.56a14.88,14.88,0,0,1-2.59.87c-.45-.34-.91-.61-1.38-.93l-2.8-1.85-2.81-1.85-1.38-.91a18.66,18.66,0,0,1-.23-2.69,15.48,15.48,0,0,1,2.57-.85l1.38.91,2.8,1.85,2.8,1.84c.47.3.92.62,1.41.89A15.53,15.53,0,0,1,1120.06,534.56Z" transform="translate(-542.27 -192.58)"/><path class="cls-83" d="M1126.92,528.75a16,16,0,0,1-2.57,1.06c-.49-.3-1-.56-1.53-.83l-3.1-1.66-3.08-1.65-1.55-.83a22.66,22.66,0,0,1-.55-2.7,21.64,21.64,0,0,1,2.55-1l1.55.83,3.1,1.66,3.08,1.63c.53.28,1,.57,1.55.81A16.6,16.6,0,0,1,1126.92,528.75Z" transform="translate(-542.27 -192.58)"/><path class="cls-83" d="M1133.37,522.42a16.67,16.67,0,0,1-2.48,1.29c-.53-.27-1.09-.46-1.64-.7l-3.31-1.38-3.31-1.36-1.66-.68a19.08,19.08,0,0,1-.91-2.67,17.89,17.89,0,0,1,2.46-1.27l1.66.67,3.29,1.38,3.31,1.36c.55.22,1.11.47,1.66.66A14.36,14.36,0,0,1,1133.37,522.42Z" transform="translate(-542.27 -192.58)"/><path class="cls-83" d="M1138.64,516.92A15.91,15.91,0,0,1,1136,518c-.55-.32-1.12-.57-1.67-.87l-3.38-1.68-3.37-1.67-1.7-.85a21.78,21.78,0,0,1-.75-2.74,18.89,18.89,0,0,1,2.64-1.06l1.7.85,3.37,1.67,3.38,1.68c.57.28,1.12.6,1.7.83A16.23,16.23,0,0,1,1138.64,516.92Z" transform="translate(-542.27 -192.58)"/><path class="cls-83" d="M1144.6,510.21a16.28,16.28,0,0,1-2.57,1.21c-.55-.28-1.12-.49-1.67-.74l-3.42-1.49-3.4-1.49-1.72-.74a23.31,23.31,0,0,1-.85-2.69,18.46,18.46,0,0,1,2.55-1.19l1.7.74,3.42,1.46,3.39,1.49c.58.23,1.13.51,1.72.72A15.31,15.31,0,0,1,1144.6,510.21Z" transform="translate(-542.27 -192.58)"/><path class="cls-83" d="M1150.46,505.62a18,18,0,0,1-2.69.87c-.51-.36-1-.65-1.57-1l-3.17-1.91-3.18-1.94-1.57-1a19.05,19.05,0,0,1-.49-2.78,20,20,0,0,1,2.69-.85l1.58,1,3.18,1.94,3.16,1.93c.53.29,1,.66,1.6.93A16.69,16.69,0,0,1,1150.46,505.62Z" transform="translate(-542.27 -192.58)"/><path class="cls-83" d="M1156,499.76a14.56,14.56,0,0,1-2.67.77c-.47-.36-1-.68-1.49-1l-3-2.12-3-2-1.49-1a18.17,18.17,0,0,1-.27-2.76,17.67,17.67,0,0,1,2.67-.76l1.49,1,3,2,3,2c.51.34,1,.7,1.51,1A15.52,15.52,0,0,1,1156,499.76Z" transform="translate(-542.27 -192.58)"/><path class="cls-83" d="M1163.8,494.52a16.48,16.48,0,0,1-2.74.79,18.21,18.21,0,0,0-1.55-1l-3.1-2.13-3.12-2.12-1.57-1a17.55,17.55,0,0,1-.39-2.78,17.5,17.5,0,0,1,2.72-.77l1.55,1,3.12,2.13,3.12,2.12c.53.34,1,.7,1.57,1A16.18,16.18,0,0,1,1163.8,494.52Z" transform="translate(-542.27 -192.58)"/><path class="cls-83" d="M1170.34,489.76a14.53,14.53,0,0,1-2.55.81c-.43-.34-.87-.64-1.32-.95l-2.63-1.89-2.63-1.87-1.32-.94a17,17,0,0,1,0-2.67,17.49,17.49,0,0,1,2.55-.79l1.31.94,2.64,1.89,2.63,1.87a15.6,15.6,0,0,0,1.32.93A17,17,0,0,1,1170.34,489.76Z" transform="translate(-542.27 -192.58)"/><path class="cls-83" d="M1177.87,486a16.74,16.74,0,0,1-2.63.51c-.38-.39-.81-.73-1.19-1.09l-2.38-2.12-2.4-2.12-1.19-1.09a14.76,14.76,0,0,1,.24-2.65,19.41,19.41,0,0,1,2.61-.51l1.19,1.08,2.4,2.13,2.38,2.12c.4.36.78.74,1.21,1.06A16.09,16.09,0,0,1,1177.87,486Z" transform="translate(-542.27 -192.58)"/><path class="cls-83" d="M1184.67,481.7a19.7,19.7,0,0,1-2.53.34c-.28-.39-.59-.73-.89-1.09l-1.81-2.12-1.82-2.12-.92-1.06a17.65,17.65,0,0,1,.73-2.45,19,19,0,0,1,2.5-.31l.91,1.06,1.81,2.12,1.83,2.12c.29.34.59.73.91,1A14.9,14.9,0,0,1,1184.67,481.7Z" transform="translate(-542.27 -192.58)"/><path class="cls-83" d="M1194,479.3a19.68,19.68,0,0,1-2.66,0c-.27-.45-.59-.85-.89-1.28l-1.8-2.54-1.81-2.53-.91-1.27a22.34,22.34,0,0,1,.83-2.51,23.07,23.07,0,0,1,2.63,0l.91,1.27,1.81,2.53,1.8,2.55c.32.4.6.85.91,1.25A17.36,17.36,0,0,1,1194,479.3Z" transform="translate(-542.27 -192.58)"/><path class="cls-83" d="M1202.05,476.13a13.82,13.82,0,0,1-2.56-.34c-.17-.44-.41-.87-.62-1.29l-1.27-2.59-1.26-2.59-.63-1.3a18.27,18.27,0,0,1,1.27-2.23,19.78,19.78,0,0,1,2.53.37l.63,1.29,1.28,2.59,1.27,2.59a13.85,13.85,0,0,0,.66,1.27A16,16,0,0,1,1202.05,476.13Z" transform="translate(-542.27 -192.58)"/><path class="cls-83" d="M1210.31,474.67a14.81,14.81,0,0,1-2.37-1.15,10.43,10.43,0,0,0-.24-1.5l-.51-3-.53-3-.25-1.5a18.9,18.9,0,0,1,1.84-1.85,18.12,18.12,0,0,1,2.34,1.15l.28,1.5.51,3,.5,3a6,6,0,0,0,.28,1.51A14.86,14.86,0,0,1,1210.31,474.67Z" transform="translate(-542.27 -192.58)"/><path class="cls-83" d="M1220.31,475.62A19.46,19.46,0,0,1,1218,474a6.54,6.54,0,0,0-.17-1.82l-.36-3.66-.36-3.65-.19-1.82a21.57,21.57,0,0,1,1.93-2.13,18.22,18.22,0,0,1,2.29,1.62l.19,1.82.36,3.65.36,3.66a10.51,10.51,0,0,0,.22,1.82A17.1,17.1,0,0,1,1220.31,475.62Z" transform="translate(-542.27 -192.58)"/><path class="cls-83" d="M1230.46,479.51a18.73,18.73,0,0,1,.19-2.8c.51-.3,1-.68,1.47-1l2.89-2.12,2.88-2.13,1.45-1a20.7,20.7,0,0,1,2.69.66,21.33,21.33,0,0,1-.19,2.76l-1.46,1.06-2.89,2.12-2.89,2.13c-.46.34-1,.68-1.42,1.06A18.34,18.34,0,0,1,1230.46,479.51Z" transform="translate(-542.27 -192.58)"/><path class="cls-83" d="M1235.49,484.63a17,17,0,0,1,.68-2.57c.51-.17,1-.41,1.51-.6l3-1.19,3-1.18,1.48-.6a19.19,19.19,0,0,1,2.27,1.36,16.5,16.5,0,0,1-.68,2.57l-1.48.61-3,1.19-3,1.19c-.49.21-1,.38-1.46.62A13.85,13.85,0,0,1,1235.49,484.63Z" transform="translate(-542.27 -192.58)"/><path class="cls-83" d="M1235.49,489.06a14.46,14.46,0,0,1,1.79-2.12h1.87l3.73-.19,3.76-.17h1.87a19.79,19.79,0,0,1,2,2,18.74,18.74,0,0,1-1.76,2.23h-1.89l-3.74.17-3.75.17a9.74,9.74,0,0,0-1.87.12A16.79,16.79,0,0,1,1235.49,489.06Z" transform="translate(-542.27 -192.58)"/><path class="cls-83" d="M1235.49,495.69c.68-.75,1.21-1.38,1.83-2h10.3a20.61,20.61,0,0,1,1.7,2.13,18.94,18.94,0,0,1-1.77,2.12h-10.44A9.79,9.79,0,0,1,1235.49,495.69Z" transform="translate(-542.27 -192.58)"/><path class="cls-83" d="M1235,502.06a14.08,14.08,0,0,1,2-1.91c.57.1,1.15.12,1.72.21l3.44.4,3.42.38,1.72.22a18.14,18.14,0,0,1,1.46,2.29,16.75,16.75,0,0,1-2,1.91l-1.72-.19-3.42-.4-3.44-.39c-.57,0-1.15-.17-1.72-.19A14.44,14.44,0,0,1,1235,502.06Z" transform="translate(-542.27 -192.58)"/><path class="cls-83" d="M1233.48,508.68a17.35,17.35,0,0,1,2.12-1.7c.53.17,1.08.26,1.63.39l3.27.76,3.25.74,1.64.38a22,22,0,0,1,1.17,2.45,18.16,18.16,0,0,1-2.13,1.69l-1.63-.38-3.25-.74-3.27-.76a11.87,11.87,0,0,1-1.66-.37A18.3,18.3,0,0,1,1233.48,508.68Z" transform="translate(-542.27 -192.58)"/><path class="cls-83" d="M1230.46,514.63a16.35,16.35,0,0,1,2.25-1.55c.53.21,1.09.34,1.62.51l3.22,1,3.23,1,1.59.49a17.74,17.74,0,0,1,1,2.53,18.33,18.33,0,0,1-2.25,1.55l-1.59-.51-3.23-1-3.23-1c-.55-.15-1.08-.34-1.61-.47A14.27,14.27,0,0,1,1230.46,514.63Z" transform="translate(-542.27 -192.58)"/><path class="cls-83" d="M1227,520.38a15.5,15.5,0,0,1,2.36-1.3,15.39,15.39,0,0,0,1.42.68l2.89,1.34,2.91,1.32,1.44.68a17.54,17.54,0,0,1,.55,2.59,16.81,16.81,0,0,1-2.33,1.25l-1.45-.66-2.88-1.31-2.89-1.34c-.49-.21-1-.47-1.47-.64A19.21,19.21,0,0,1,1227,520.38Z" transform="translate(-542.27 -192.58)"/><path class="cls-83" d="M1227.17,476.58a15.16,15.16,0,0,1-1.27-2.55c.27-.55.46-1.14.72-1.72l1.4-3.5,1.4-3.48.7-1.74a19.34,19.34,0,0,1,2.68-.94,18.69,18.69,0,0,1,1.27,2.53l-.7,1.74L1232,470.4l-1.4,3.48c-.22.6-.49,1.17-.68,1.77A18.31,18.31,0,0,1,1227.17,476.58Z" transform="translate(-542.27 -192.58)"/><path class="cls-11" d="M1099.34,559.66c-1.21-6.37,2.31-15.35,22.25-24.84a12.83,12.83,0,0,0,4.58-3.65c9.22-11.66,51.74-61.72,98.3-54.74a13.19,13.19,0,0,1,11.19,11.23c1.34,10.09-.63,27.41-21.23,47.07a32.77,32.77,0,0,1-11,6.92c-13.29,5-47.26,18-66.26,28a12.84,12.84,0,0,1-7.09,1.48l-18.94-1.4A12.73,12.73,0,0,1,1099.34,559.66Z" transform="translate(-542.27 -192.58)"/></g></g><g id="OverLay"><path class="cls-84" d="M961.2,884.49S551.72,619.63,544.52,453.55c0,0-27.89-154.13,112.5-235.54,0,0,155.69-96.61,304.18,86.83,0,0,132.3-182.36,314.09-79.24,0,0,161.09,92.27,87.3,284.4C1362.59,510,1313.09,650,961.2,884.49Z" transform="translate(-542.27 -192.58)"/><path class="cls-85" d="M568.33,391.34s10.5-212.1,242.56-170.3C810.89,221,825.59,281.21,568.33,391.34Z" transform="translate(-542.27 -192.58)"/><path class="cls-85" d="M1039.8,273.05S1203.61,104.8,1337,313.84C1337,313.84,1220.41,217,1039.8,273.05Z" transform="translate(-542.27 -192.58)"/></g></g></svg>