<svg id="anoBLue" xmlns="http://www.w3.org/2000/svg" viewBox="0 0 66.36 59.46"><defs><style>.cls-1{fill:#617b84;}.cls-2{fill:#7eb4ac;}.cls-3{fill:#4b7672;}.cls-4{fill:#9dd9d0;}.cls-5{fill:#baece5;}.cls-6{fill:none;stroke:#523d2b;stroke-miterlimit:10;stroke-width:2px;}</style></defs><title>heartBacteria11</title><g id="SolidColor"><path class="cls-1" d="M363.25,66.55h0a15.58,15.58,0,0,1,15.58,15.58V101a13.34,13.34,0,0,1-13.34,13.34h0a12.81,12.81,0,0,1-12.81-12.81V77.12A10.56,10.56,0,0,1,363.25,66.55Z" transform="translate(-303.71 198.09) rotate(-40.47)"/></g><g id="Body"><path class="cls-2" d="M362.54,102.3a11.86,11.86,0,0,0,7.67,4.43c6.4.84,8.24-2,8.24-2a8.08,8.08,0,0,0,1.42-3.74,9.28,9.28,0,0,0-2-6.75l-9.57-12.37A13,13,0,0,0,360.23,77c-5-.84-7.64.73-9.05,2.78a7.52,7.52,0,0,0,.51,8.87Z" transform="translate(-332.51 -60.96)"/><path class="cls-3" d="M365.25,92.25s-1-1.81-4.28-.81c0,0-1.41,1.11-1.38-1,0,0,4.41-2.15,6.85.67C366.44,91.13,367.44,92.38,365.25,92.25Z" transform="translate(-332.51 -60.96)"/><path class="cls-3" d="M367.13,88.19s.76,2.19,1.65.41a2.86,2.86,0,0,1,.91-2.41s.93-1.9-1-1.35C368.69,84.84,366.78,86.53,367.13,88.19Z" transform="translate(-332.51 -60.96)"/><path class="cls-3" d="M355.5,91.94s-.95-2.19,1.28-.61c0,0-.12,1.15,2.81,1.76,0,0,1.29,1.11-.81,1.14C358.78,94.23,355.63,92.88,355.5,91.94Z" transform="translate(-332.51 -60.96)"/><path class="cls-3" d="M361.31,96.54s-.54,1.61,1.29.86a1.77,1.77,0,0,1,2.07-1.46s1.23-1.17-.59-1.17C364.08,94.77,361.58,95.4,361.31,96.54Z" transform="translate(-332.51 -60.96)"/><path class="cls-3" d="M365.52,99.69s-1.47-.06-.66-1.53c0,0,4.14-1,4.72,1.81,0,0-.05.55-1,.3A3.32,3.32,0,0,0,365.52,99.69Z" transform="translate(-332.51 -60.96)"/><path class="cls-3" d="M364.65,102.61s-1-1.62,1-1.2a3.18,3.18,0,0,0,2.93,1.13s1.39,1.11-.71,1.51C367.81,104.06,364.75,103.05,364.65,102.61Z" transform="translate(-332.51 -60.96)"/><path class="cls-3" d="M371.91,103.84c.53-.59,1.54-1,3.47-.68a.44.44,0,0,1,.25.73,5.43,5.43,0,0,1-2.73,1.69A1.06,1.06,0,0,1,371.91,103.84Z" transform="translate(-332.51 -60.96)"/><path class="cls-3" d="M373.42,101.47s.13-2.11,4.94-1c0,0,.69.57-.38.92A20,20,0,0,0,373.42,101.47Z" transform="translate(-332.51 -60.96)"/><path class="cls-3" d="M369.91,95.4s.63,2,2,.13c0,0-.73-2.54.85-2.88,0,0,1.15-1.2-.71-1.34C372.05,91.31,369.34,92.74,369.91,95.4Z" transform="translate(-332.51 -60.96)"/><path class="cls-3" d="M374.38,96.32s-.54,2,1.26.89a1.82,1.82,0,0,1,2-.86s.94-1.4-1.15-1.27Z" transform="translate(-332.51 -60.96)"/><ellipse class="cls-4" cx="26.84" cy="22.88" rx="7.1" ry="5.01"/><ellipse class="cls-5" cx="26.82" cy="21.97" rx="4.29" ry="3.03"/></g><g id="OuterLine"><path class="cls-6" d="M345.72,76.13s-7.3-3.65-6.46-7c0,0,2.09-1.4,8.41,4.67Z" transform="translate(-332.51 -60.96)"/><path class="cls-6" d="M352.12,71.84s-5.27-5.26-3.54-7.57c0,0,2.24-.37,5.93,6.42Z" transform="translate(-332.51 -60.96)"/><path class="cls-6" d="M355.45,70.89s-3.3-6.67-.91-8.3c0,0,2.23.37,3.54,8Z" transform="translate(-332.51 -60.96)"/><path class="cls-6" d="M360,70.35s-1.87-7.2.8-8.31c0,0,2.11.81,1.84,8.54Z" transform="translate(-332.51 -60.96)"/><path class="cls-6" d="M362.87,69.84s1.8-7.22,4.67-6.92c0,0,1.47,1.72-2.45,8.38Z" transform="translate(-332.51 -60.96)"/><path class="cls-6" d="M348.69,73.2s-5.63-4.87-4.07-7.3c0,0,2.2-.53,6.37,6Z" transform="translate(-332.51 -60.96)"/><path class="cls-6" d="M363.55,66.55h0a15.58,15.58,0,0,1,15.58,15.58V101a13.34,13.34,0,0,1-13.34,13.34h0A12.81,12.81,0,0,1,353,101.56V77.12a10.56,10.56,0,0,1,10.56-10.56Z" transform="translate(-303.64 198.29) rotate(-40.47)"/><path class="cls-6" d="M366.06,70.53s4.91-5.59,7.33-4c0,0,.51,2.21-6,6.32Z" transform="translate(-332.51 -60.96)"/><path class="cls-6" d="M369.48,72.63s5.67-6.17,8.54-4.35c0,0,.64,2.48-7,7Z" transform="translate(-332.51 -60.96)"/><path class="cls-6" d="M371.52,75.2s6.29-5.53,9-3.42c0,0,.37,2.54-7.67,6.19Z" transform="translate(-332.51 -60.96)"/><path class="cls-6" d="M374.07,77.89s6.87-4.81,9.28-2.41c0,0,.09,2.56-8.3,5.31Z" transform="translate(-332.51 -60.96)"/><path class="cls-6" d="M376.5,80.88s6.86-4.81,9.27-2.41c0,0,.1,2.56-8.3,5.3Z" transform="translate(-332.51 -60.96)"/><path class="cls-6" d="M379,83.87s6.86-4.81,9.27-2.41c0,0,.1,2.56-8.3,5.3Z" transform="translate(-332.51 -60.96)"/><path class="cls-6" d="M381.73,87.15s6.86-4.81,9.27-2.41c0,0,.09,2.56-8.3,5.31Z" transform="translate(-332.51 -60.96)"/><path class="cls-6" d="M384.36,89.8s7.25-4.22,9.45-1.63c0,0-.13,2.56-8.72,4.59Z" transform="translate(-332.51 -60.96)"/><path class="cls-6" d="M386.28,93.24s7.24-4.22,9.44-1.63c0,0-.12,2.56-8.71,4.59Z" transform="translate(-332.51 -60.96)"/><path class="cls-6" d="M386.53,95.52s9.8-3.33,11.26.08c0,0-1.14,2.91-11.6,3.46Z" transform="translate(-332.51 -60.96)"/><path class="cls-6" d="M387,97.37s9.79-.7,10.28,2.75c0,0-1.77,2.37-11.48.39Z" transform="translate(-332.51 -60.96)"/><path class="cls-6" d="M387.26,100.49s10.43.29,10.39,3.76c0,0-2.24,2.17-12.15-.77Z" transform="translate(-332.51 -60.96)"/><path class="cls-6" d="M386.91,103.38s10.32,1.51,9.87,5c0,0-2.48,1.89-12-2.19Z" transform="translate(-332.51 -60.96)"/><path class="cls-6" d="M385.52,105.62s9.4,4.52,8,7.67c0,0-2.93,1.06-10.77-5.67Z" transform="translate(-332.51 -60.96)"/><path class="cls-6" d="M382.94,108.31s6.24,4.59,4.8,7.13c0,0-2.26.65-7.1-5.67Z" transform="translate(-332.51 -60.96)"/><path class="cls-6" d="M379.49,110.14s5,5.27,3.21,7.58c0,0-2.18.37-5.56-6.43Z" transform="translate(-332.51 -60.96)"/><path class="cls-6" d="M376,111.74s2.52,6.23.23,7.62c0,0-2-.43-2.65-7.43Z" transform="translate(-332.51 -60.96)"/><path class="cls-6" d="M371.79,111.85s1,6.64-1.54,7.46c0,0-1.85-.88-.85-7.84Z" transform="translate(-332.51 -60.96)"/><path class="cls-6" d="M368.77,112.34s-2.71,6.14-5.3,5.47c0,0-1.09-1.73,3.48-7.07Z" transform="translate(-332.51 -60.96)"/><path class="cls-6" d="M365.73,110.62s-4.4,6.32-7.56,5.12c0,0-1.1-2.11,5.52-7.21Z" transform="translate(-332.51 -60.96)"/><path class="cls-6" d="M363.06,108.17s-5.15,6.49-9,5.17c0,0-1.36-2.22,6.49-7.4Z" transform="translate(-332.51 -60.96)"/><path class="cls-6" d="M360.69,106.31s-7.28,5.88-11.24,3.5c0,0-1-2.78,9-6.56Z" transform="translate(-332.51 -60.96)"/><path class="cls-6" d="M358.1,103s-7.27,5.88-11.24,3.51c0,0-1-2.78,9-6.56Z" transform="translate(-332.51 -60.96)"/><path class="cls-6" d="M355.36,99.68s-7.27,5.88-11.24,3.5c0,0-1-2.78,9-6.56Z" transform="translate(-332.51 -60.96)"/><path class="cls-6" d="M353.55,96.58s-7.27,5.88-11.24,3.51c0,0-1-2.78,9-6.56Z" transform="translate(-332.51 -60.96)"/><path class="cls-6" d="M350.37,93.37s-7.27,5.88-11.24,3.5c0,0-1-2.78,9-6.56Z" transform="translate(-332.51 -60.96)"/><path class="cls-6" d="M348.2,90.55s-6.7,5.34-10.37,3.15c0,0-.94-2.54,8.27-6Z" transform="translate(-332.51 -60.96)"/><path class="cls-6" d="M346,88s-7.26,4.54-10.69,2c0,0-.67-2.63,8.89-5Z" transform="translate(-332.51 -60.96)"/><path class="cls-6" d="M345.53,86.43s-9,2.66-12-1.1c0,0,.05-3,10.91-2.65Z" transform="translate(-332.51 -60.96)"/><path class="cls-6" d="M344.63,83s-9.3,0-11.06-4.36c0,0,.85-2.82,11.06.51Z" transform="translate(-332.51 -60.96)"/><path class="cls-6" d="M344.56,79.27s-8.48-2.37-8.82-6.71c0,0,1.58-2.29,9.93,3.3Z" transform="translate(-332.51 -60.96)"/><path class="cls-6" d="M344.56,79.27s-8.48-2.37-8.82-6.71c0,0,1.58-2.29,9.93,3.3Z" transform="translate(-332.51 -60.96)"/></g></svg>