<svg id="SideEnemy" xmlns="http://www.w3.org/2000/svg" viewBox="0 0 24.25 40.93"><defs><style>.cls-1{fill:#62777a;}.cls-2{fill:#fbfbf6;}.cls-3{fill:none;stroke:#5a422c;stroke-miterlimit:10;stroke-width:2px;}</style></defs><title>heartBacteria1</title><g id="BgColor"><path class="cls-1" d="M85.81,150.13s-13.31-.75-12.06-19.25c0,0,2-22.38,15.63-18.38,0,0,9.87,1.75,3.87,9.38,0,0-6,7-1.25,17.75C92,139.63,98.25,146.88,85.81,150.13Z" transform="translate(-72.33 -110.72)"/></g><path id="InsideEdge" class="cls-2" d="M83.13,144.5S73,129.63,85.63,116.13c0,0,5.12-3.13,2.87,3.25,0,0-9.62,10.37-.87,23.75C87.63,143.13,87.63,148.75,83.13,144.5Z" transform="translate(-72.33 -110.72)"/><g id="WhiteLAyer"><path class="cls-2" d="M86.42,149.25s-12.17-4.33-9.34-22.42c0,0,2.92-18.16,15.84-10.75a12.22,12.22,0,0,1,2.66,1s-3.17-5.33-9.46-4.91-11.54,10-12,13.83-1.69,13.42,5.11,22.75C79.28,148.75,84.42,150.5,86.42,149.25Z" transform="translate(-72.33 -110.72)"/></g><g id="OutLine"><path class="cls-3" d="M85.64,150.54c-4,.6-10.42-.84-12.11-15a26.75,26.75,0,0,1,1.54-12.91c1.27-3.26,3.25-6.91,6.24-9.09a9.91,9.91,0,0,1,8.2-1.47c3.06.75,7.38,2.62,5.67,7,0,0-4.07,6.49-4.51,12.61a9.7,9.7,0,0,0,1,4.94,23.46,23.46,0,0,1,2,5.71A5.67,5.67,0,0,1,91.2,148l-1.09.74A11,11,0,0,1,85.64,150.54Z" transform="translate(-72.33 -110.72)"/><path class="cls-3" d="M86.5,146.09s-2.48,0-3.37-1.59c0,0-6.77-11-2.67-20.08,0,0,3-9.66,8-9,0,0,2.89,1.17-2.55,8,0,0-5.13,8.69,1.75,19.69C87.63,143.13,88.13,144.36,86.5,146.09Z" transform="translate(-72.33 -110.72)"/></g></svg>