<svg id="Layer_23" data-name="Layer 23" xmlns="http://www.w3.org/2000/svg" viewBox="0 0 127.34 58"><defs><style>.cls-1{fill:#7cb3aa;}.cls-2{fill:#8fccd1;}.cls-3{fill:#b8f2f4;}.cls-4,.cls-5{fill:#fafcfc;}.cls-4{opacity:0.93;}.cls-6{fill:none;stroke:#070707;stroke-miterlimit:10;}</style></defs><title>heartBacteria 5</title><g id="SolidCOlor"><path class="cls-1" d="M260.5,282.25,214.32,266.5S199.13,251,222.15,244c0,0,6.94-.85,10.66.19L273,257.75s12.2-4.83,20.47-2.05c0,0,14.45,7.3,21.41,5.3,0,0-4.82,4.59-11.38,3.08,0,0-13.68-4.31-17.84-3.51l-4.16.81a27.08,27.08,0,0,0,10.33,5.48s14.66,3.9,25.5-.48c0,0,8.84-2.05,11.17,1.12a13,13,0,0,0-11.17,4.76,29.23,29.23,0,0,1-18.85,4.55l-11.19-3.95-2.29,3a33.89,33.89,0,0,0,17,5s32.41-1.09,33.12,2.54c0,0-11.83.67-20.73,3.48,0,0-18.68,5.86-27.87,0l-9.42-4.47-4.36,1.24s8.76,10.51,16.59,10.52c0,0,14.6.2,16.29,6.19,0,0-7.28-3.25-11.29-2.46,0,0-13.7.33-16.67-.56C277.67,297.32,267.33,295.67,260.5,282.25Z" transform="translate(-208.68 -243.14)"/><rect class="cls-2" x="215.7" y="252.18" width="57.02" height="20.42" rx="9.87" ry="9.87" transform="matrix(0.95, 0.3, -0.3, 0.95, -119.15, -304.1)"/><path class="cls-3" d="M264.15,262.76s-5.16.83-5.65-3.33a.41.41,0,0,1,.2-.4,2.23,2.23,0,0,1,1.36-.12,1.14,1.14,0,0,1,.75.62c.32.67,2.53,1.52,3.21,1.66C264,261.19,265.09,262.1,264.15,262.76Z" transform="translate(-208.68 -243.14)"/><path class="cls-3" d="M249.58,270.42s-.64-1.21,1.8-2c.11-.1,2.38-.31,2.21-3.48a1,1,0,0,1,.62-1,1.21,1.21,0,0,1,.9,0,1,1,0,0,1,.6,1C255.6,266.49,254.82,270.79,249.58,270.42Z" transform="translate(-208.68 -243.14)"/><path class="cls-3" d="M245.33,258s-.93,2,1.85,1.25c0,0,3.84-2.89,5.79-1.86,0,0,1.73-1,0-1.91S245.44,257.39,245.33,258Z" transform="translate(-208.68 -243.14)"/><path class="cls-3" d="M213.86,256.2c1.26.14,4.52.74,5.25,3.31a.88.88,0,0,1-.89,1.12c-1.65-.1-4.71-.72-4.86-4A.44.44,0,0,1,213.86,256.2Z" transform="translate(-208.68 -243.14)"/><path class="cls-3" d="M262,274s.34,1.91,2.5.72c0,0,2.06-5.41,6.78-5.35l3.28-.25s1.81-.71.44-2C275,267.13,263.47,264.84,262,274Z" transform="translate(-208.68 -243.14)"/><path class="cls-3" d="M235,271.42s-2-.82,0-1.94c0,0,6.91-2.36,7,1.56A9.26,9.26,0,0,0,235,271.42Z" transform="translate(-208.68 -243.14)"/><path class="cls-3" d="M229.1,267.4s-4.32-5-2-7.34c0,0,1.21-2.88-2.31-1.45a1.38,1.38,0,0,0-.7.65c-.72,1.37-2.25,5.54,3,9.24C227.15,268.5,230.05,270,229.1,267.4Z" transform="translate(-208.68 -243.14)"/><path class="cls-3" d="M221.55,249s3.7,1.9,7,.35c0,0,2.79-.63,1.85,1.72,0,0-6.2,2.53-9.26-.44C221.13,250.61,219.67,249.06,221.55,249Z" transform="translate(-208.68 -243.14)"/><path class="cls-3" d="M231.75,259.28s3.83.66,4.13,3.45c0,0,2.48,1.11,2.22-1.28,0,0-2.6-4.17-5.55-3.9C232.55,257.55,230.25,257.72,231.75,259.28Z" transform="translate(-208.68 -243.14)"/><path class="cls-3" d="M232.55,257.55s-2.38.66-.8,1.73c0,0,3.83.66,4.13,3.45" transform="translate(-208.68 -243.14)"/></g><g id="outLin"><path class="cls-4" d="M215.41,265.86S204.56,250.7,228,243.64c0,0-9.28-.54-14.93,4.26s-4.28,11-1,15.91Z" transform="translate(-208.68 -243.14)"/><path class="cls-5" d="M297,262.23s13.15,1.85,15.4-1h2a6.67,6.67,0,0,1-4.37,2.52c-2.75.26-10,.5-11.57-.6l-1.53-1.11" transform="translate(-208.68 -243.14)"/><path class="cls-5" d="M313.75,267.51s12.85-2.09,10.42.2l3.58-.74-4.6-1.39S314.13,266.9,313.75,267.51Z" transform="translate(-208.68 -243.14)"/><path class="cls-5" d="M312.13,287.33l22.41-4-1.07-1.18S313.81,284.79,312.13,287.33Z" transform="translate(-208.68 -243.14)"/><path class="cls-5" d="M287.58,297.67a35.72,35.72,0,0,1,15.5-.4l2.31,2.42s-6.88-1.81-8.9-1.54S287.58,297.67,287.58,297.67Z" transform="translate(-208.68 -243.14)"/><path class="cls-6" d="M281.13,273.75s5.5-9.37-8.13-16c0,0-38.51-13.87-41.38-13.75,0,0-14.44-2.87-21.47,7.5,0,0-4.24,10.25,5,14.5,0,0,38.36,14.88,45.36,16.25,0,0,7.07,15.88,21.72,15.5,0,0,21.41-.87,23.91,3.13,0,0-2.75-6.63-15.13-6.38,0,0-12.75-2-18.25-10.87l4.88-1.38s13.12,9.75,28.5,6.38c0,0,24.87-5.5,29-5.25,0,0-1.88-3.25-13.75-2.25,0,0-22.75.75-28.13-1.88L285,275.88l1.38-3.62s11.37,8.37,25.25,3c0,0,11.75-9.37,16.87-7.75,0,0-4.25-4-13.75-.25,0,0-18.87,5.63-33.25-5.87,0,0,6.67-2.88,17.38,2,.75.5,12.12,2.25,16-2.38,0,0-9.13.75-11.88-1.75,0,0-10.25-7.62-28.62-2l-1.11.4" transform="translate(-208.68 -243.14)"/></g></svg>