<svg id="SIDeCat" xmlns="http://www.w3.org/2000/svg" viewBox="0 0 52.63 50.89"><defs><style>.cls-1{fill:#dd6440;}.cls-2{fill:#fcf6ec;}.cls-3{fill:none;stroke:#523d2b;stroke-miterlimit:10;stroke-width:2px;}.cls-4{fill:#ead14f;}.cls-5{fill:#8b392f;}</style></defs><title>heartBacteria5</title><g id="spots"><path class="cls-1" d="M396,47.68a22.39,22.39,0,0,0-10-.24c-9.72,2-2.63,6.41,1.16,8.26a14.09,14.09,0,0,0,3.94,1.2c24.55,4,24.64,19.94,23.86,27.62-.25,2.42.5,4.58,1.89,5.6,4.39,3.21,7.43-.77,8.94-3.88a12.18,12.18,0,0,0,1.14-6C425.29,56.67,406,50.22,396,47.68Z" transform="translate(-376.72 -44.76)"/><path class="cls-2" d="M388.4,45.82a13,13,0,0,0-8.12,1.88c-5.72,3.64-.5,7.15,2.42,8.65a8.94,8.94,0,0,0,3.12.93c26.74,3.17,26.11,22.2,24.9,29.32a5.91,5.91,0,0,0,2,5.45c5.15,4.41,9.7,2.34,12.44.1a8.29,8.29,0,0,0,3-5.78C430.87,52.45,399.27,46.77,388.4,45.82Zm37.43,40.42c-1.51,3.11-4.55,7.09-8.94,3.88-1.39-1-2.14-3.18-1.89-5.6.78-7.68.69-23.61-23.86-27.62a14.09,14.09,0,0,1-3.94-1.2c-3.79-1.85-10.88-6.27-1.16-8.26a22.39,22.39,0,0,1,10,.24c10,2.54,29.28,9,31,32.53A12.18,12.18,0,0,1,425.83,86.24Z" transform="translate(-376.72 -44.76)"/><path class="cls-3" d="M410.72,86.6c1.21-7.12,1.84-26.15-24.9-29.32" transform="translate(-376.72 -44.76)"/><path class="cls-4" d="M401,48.93c8.25,2.19,24.25,7.76,25.64,28.09a10.82,10.82,0,0,1-.94,5.21c-1.26,2.68-3.77,6.12-7.41,3.35a5.45,5.45,0,0,1-1.57-4.84c.65-6.63.58-20.39-19.76-23.85a11.46,11.46,0,0,1-3.27-1c-3.14-1.6-9-5.41-.95-7.13a17.91,17.91,0,0,1,8.26.21" transform="translate(-376.72 -44.76)"/><path class="cls-3" d="M382.7,56.35c-2.92-1.5-8.14-5-2.42-8.65a13,13,0,0,1,8.12-1.88c10.87,1,42.47,6.63,39.78,40.55a8.29,8.29,0,0,1-3,5.78c-2.74,2.24-7.29,4.31-12.44-.1a5.91,5.91,0,0,1-2-5.45c1.21-7.12,1.84-26.15-24.9-29.32A8.94,8.94,0,0,1,382.7,56.35Z" transform="translate(-376.72 -44.76)"/><path class="cls-3" d="M382.7,56.35c-2.92-1.5-8.14-5-2.42-8.65a13,13,0,0,1,8.12-1.88c10.87,1,42.47,6.63,39.78,40.55a8.29,8.29,0,0,1-3,5.78c-2.74,2.24-7.29,4.31-12.44-.1a5.91,5.91,0,0,1-2-5.45c1.21-7.12,1.84-26.15-24.9-29.32A8.94,8.94,0,0,1,382.7,56.35Z" transform="translate(-376.72 -44.76)"/><path class="cls-5" d="M420.67,84.8s.51-2.54-1.39-1.38c0,0-.81,1.69-2.29,1.76,0,0-2,1.25.21,1.88C417.2,87.06,420.05,86.59,420.67,84.8Z" transform="translate(-376.72 -44.76)"/><path class="cls-5" d="M419.49,63.4s-2,1.32-.13,3.66c0,0,1.63.18,2.43,2.58,0,0,1.92,2.43,1.48-1.58C423.27,68.06,421.31,62.84,419.49,63.4Z" transform="translate(-376.72 -44.76)"/><path class="cls-5" d="M423.91,81.85s-2.54-.51-1.37,1.39c0,0,1.69.81,1.77,2.28,0,0,1.25,2,1.87-.21C426.18,85.31,425.7,82.46,423.91,81.85Z" transform="translate(-376.72 -44.76)"/><path class="cls-5" d="M417.55,77.36s-1,2.41,1.11,1.61a3.13,3.13,0,0,1,2.57-1.31s2.21-.87.14-1.89C421.37,75.77,418.48,75.72,417.55,77.36Z" transform="translate(-376.72 -44.76)"/><path class="cls-5" d="M419.09,72.85s2.6,0,1.1-1.61c0,0-1.81-.49-2.15-1.93,0,0-1.6-1.74-1.81.55C416.23,69.86,417.22,72.58,419.09,72.85Z" transform="translate(-376.72 -44.76)"/><path class="cls-5" d="M409.47,65.18s2.15,1,1.66-1a2.73,2.73,0,0,1-.92-2.49s-.54-2.13-1.76-.21C408.45,61.49,408,64.23,409.47,65.18Z" transform="translate(-376.72 -44.76)"/><path class="cls-5" d="M412.31,57.92s-2.24.84-.45,1.88a2.72,2.72,0,0,1,2.43,1.09s1.9,1.09,1.38-1.12C415.67,59.77,414,57.56,412.31,57.92Z" transform="translate(-376.72 -44.76)"/><path class="cls-5" d="M402.78,58.84s-.63,2.28,1.12,1.28c0,0,.84-1.5,2.14-1.52,0,0,1.86-1.08,0-1.7C406,56.9,403.46,57.25,402.78,58.84Z" transform="translate(-376.72 -44.76)"/><path class="cls-5" d="M403.94,50.71s-2.64-1.73-1.57.67c0,0,1.71,1.61,1.66,3.07,0,0,1.15,2.54,2,.7C406,55.15,405.76,52.17,403.94,50.71Z" transform="translate(-376.72 -44.76)"/><path class="cls-5" d="M391.53,53.38s-3.77-2.17-.18-1.92c0,0,3,1.23,4.76.63,0,0,3.82.28,2.14,1.86A11.87,11.87,0,0,1,391.53,53.38Z" transform="translate(-376.72 -44.76)"/><path class="cls-5" d="M388.65,47.42s-3.07.69-.6,1.59c0,0,2.34-.11,3.35.94,0,0,2.63.95,1.89-.94C393.29,49,391,47.13,388.65,47.42Z" transform="translate(-376.72 -44.76)"/></g></svg>