<svg id="Bubble" xmlns="http://www.w3.org/2000/svg" viewBox="0 0 56.87 30.3"><defs><style>.cls-1{fill:#f9fbff;opacity:0.9;}.cls-2{fill:none;stroke:#523d2b;stroke-miterlimit:10;}.cls-3{fill:#7cb4a9;}.cls-4{fill:#9cdacf;opacity:0.68;}.cls-5{fill:#597a7d;}</style></defs><title>heartBacteria10</title><path class="cls-1" d="M419.6,129s-4.24,3.76-3.6,8.25a4.21,4.21,0,0,0,.75,1.83c1.16,1.61,4.36,4.52,11.93,3.35l-1.46,1.28s-7.47.21-8.41-.58-4.78-3.66-5.17-5a8.65,8.65,0,0,1-.14-4.19C413.82,133.14,416.6,129,419.6,129Z" transform="translate(-413.11 -113.9)"/><ellipse class="cls-2" cx="11.25" cy="21.91" rx="10.75" ry="7.89"/><ellipse class="cls-3" cx="10.96" cy="21.41" rx="6.21" ry="4.76"/><circle class="cls-4" cx="12.56" cy="25.63" r="1.44"/><circle class="cls-4" cx="18.6" cy="19.47" r="1.5"/><circle class="cls-4" cx="16.5" cy="23.73" r="2.32"/><ellipse class="cls-5" cx="11.25" cy="21.91" rx="10.75" ry="7.89"/><ellipse class="cls-5" cx="440.42" cy="125.82" rx="8.54" ry="10.1" transform="translate(-254.77 372.8) rotate(-67.93)"/><path class="cls-1" d="M439.05,117.29s-5.23,2.28-6.49,7a4.82,4.82,0,0,0-.1,2.1c.36,2,2,6.08,9,7.57l-1.79.77s-6.59-2.43-7.09-3.55-2.67-5.36-2.45-6.87a10.59,10.59,0,0,1,1.58-4.25C432.33,119.42,436.46,116.19,439.05,117.29Z" transform="translate(-413.11 -113.9)"/><ellipse class="cls-5" cx="11.25" cy="21.91" rx="10.75" ry="7.89"/><path class="cls-1" d="M419.6,129s-4.24,3.76-3.6,8.25a4.21,4.21,0,0,0,.75,1.83c1.16,1.61,4.36,4.52,11.93,3.35l-1.46,1.28s-7.47.21-8.41-.58-4.78-3.66-5.17-5a8.65,8.65,0,0,1-.14-4.19C413.82,133.14,416.6,129,419.6,129Z" transform="translate(-413.11 -113.9)"/><ellipse class="cls-3" cx="10.96" cy="21.41" rx="6.21" ry="4.76"/><circle class="cls-4" cx="12.56" cy="25.63" r="1.44"/><circle class="cls-4" cx="17.72" cy="20.01" r="1.5"/><circle class="cls-4" cx="16.5" cy="23.73" r="2.32"/><ellipse class="cls-2" cx="440.42" cy="125.82" rx="8.54" ry="10.1" transform="translate(-254.77 372.8) rotate(-67.93)"/><ellipse class="cls-3" cx="440.37" cy="125.22" rx="5.16" ry="5.83" transform="translate(-254.25 372.38) rotate(-67.93)"/><ellipse class="cls-4" cx="440.05" cy="130.02" rx="1.56" ry="1.35" transform="translate(-258.9 375.08) rotate(-67.93)"/><ellipse class="cls-4" cx="444.25" cy="129.5" rx="2.51" ry="2.18" transform="translate(-255.79 378.64) rotate(-67.93)"/><ellipse class="cls-5" cx="459.92" cy="123.97" rx="9.48" ry="9.66" transform="translate(-366.98 246.03) rotate(-44.78)"/><path class="cls-1" d="M462.8,115.23s-5.77.42-9.08,4.51a5.89,5.89,0,0,0-1.05,2c-.6,2.06-1,6.47,4.69,10.27l-2,.13s-4.85-4.53-4.78-5.77,0-6,.93-7.38a12.93,12.93,0,0,1,3.38-3.53C455.75,115,461,113.31,462.8,115.23Z" transform="translate(-413.11 -113.9)"/><ellipse class="cls-2" cx="459.92" cy="123.97" rx="9.48" ry="9.66" transform="translate(-366.98 246.03) rotate(-44.78)"/><ellipse class="cls-3" cx="460.16" cy="123.36" rx="5.72" ry="5.58" transform="translate(-366.49 246.02) rotate(-44.78)"/><ellipse class="cls-4" cx="461.69" cy="128.86" rx="2.79" ry="2.08" transform="translate(-369.91 248.69) rotate(-44.78)"/><ellipse class="cls-2" cx="11.25" cy="21.91" rx="10.75" ry="7.89"/></svg>