<svg id="pURPLE" xmlns="http://www.w3.org/2000/svg" viewBox="0 0 93.76 66.02"><defs><style>.cls-1{fill:#7f5699;}.cls-11,.cls-13,.cls-15,.cls-2{fill:#fff;}.cls-3{fill:#633e76;}.cls-4{fill:#84559c;}.cls-5{fill:#fffcf5;}.cls-6{fill:#050505;opacity:0.24;}.cls-7{fill:#a86ecc;}.cls-12,.cls-14,.cls-16,.cls-8{fill:none;}.cls-11,.cls-8{stroke:#543c23;}.cls-11,.cls-12,.cls-13,.cls-14,.cls-15,.cls-16,.cls-8{stroke-miterlimit:10;}.cls-9{fill:#633d83;}.cls-10{fill:#825689;}.cls-12,.cls-13{stroke:#5a422c;}.cls-14,.cls-15{stroke:#594032;}.cls-16{stroke:#534122;stroke-width:2px;}</style></defs><title>heartBacteria9</title><g id="OutLIne"><path class="cls-1" d="M479.35,65.84l-2.81-2.75-6.52.75-.46-2.34s9.56-7.84,14.47-4.62c0,0-.3,2.28-1.48,2.4s-2.17,3.25,2,4l1.93-.94.72,1.07L480,67.13Z" transform="translate(-450.58 -46.59)"/><path class="cls-2" d="M469.79,62.27a4.27,4.27,0,0,1,1.67-2c2.63-1.66,8.83-5.54,11.8-3.48,0,0,.94-1.2-.09-1.95s-6.43-.68-10.33,2.29S469.56,62,469.56,62Z" transform="translate(-450.58 -46.59)"/><ellipse class="cls-3" cx="476.25" cy="59.7" rx="3.16" ry="1.28" transform="translate(-427.09 172.43) rotate(-26.53)"/><path class="cls-2" d="M481.58,59.7a3.3,3.3,0,0,0,2.5,4.13l2.34-1.08-3.87-3.47Z" transform="translate(-450.58 -46.59)"/><path class="cls-4" d="M469.53,76.31l-9-2.09S456.25,77,455,77.16s-5.26-.93-3.37-3.82,6.06-9.53,11.37-8.65l.19,3.75s-2.5,3.15,8.34,3.37l.22,1.8Z" transform="translate(-450.58 -46.59)"/><path class="cls-5" d="M452.09,72.1s2.56-11,10.19-8.13v.87S459.31,64.77,452.09,72.1Z" transform="translate(-450.58 -46.59)"/><polygon class="cls-2" points="76.27 26.66 76.86 28.82 83.33 27.91 82.46 25.48 76.27 26.66"/><path class="cls-5" d="M462.69,68.83s0,4,7.43,3.13l1.32-.46Z" transform="translate(-450.58 -46.59)"/><ellipse class="cls-3" cx="458.16" cy="70.59" rx="2.29" ry="1.6" transform="translate(-282.63 385.49) rotate(-60)"/><path class="cls-2" d="M533.62,69.61s.91-3.11,5.82-.8,3.25,11.28,3.25,11.28l-2.23,2.25-3.15-4.93Z" transform="translate(-450.58 -46.59)"/><path class="cls-2" d="M464.17,83.31s-.86,2.69,5,1.67l.89-1.34-2.13-1Z" transform="translate(-450.58 -46.59)"/><path class="cls-2" d="M457.92,83.67s.93-4.86,5-2.62l-.61,1.75-3.48,1.11Z" transform="translate(-450.58 -46.59)"/><path class="cls-4" d="M469.56,87.33l-4,.83s-.83,5.59-4.11,3.71c0,0-7.52-11.44,2.06-10.24l1.08,1.7s-.31,2.77,4.77.84l.36,2.46Z" transform="translate(-450.58 -46.59)"/><ellipse class="cls-3" cx="462.28" cy="86.35" rx="1.44" ry="2.39" transform="translate(-458.54 34.71) rotate(-9.96)"/><path class="cls-2" d="M489.81,52.86s-5.14-2.65,1.86-4.74,16.54,1.34,16.54,1.34-.4,3.87-.51,3.94S489.81,52.86,489.81,52.86Z" transform="translate(-450.58 -46.59)"/><path class="cls-1" d="M494.83,60.37c-.08-.29,0-6.7,0-6.7l-5.52-1.07s7.86-5.32,18.9,0c0,0-4.75,2.28-5,1.61s.16,6.16.16,6.16l-.45,2.21s-7.17-.18-7.59,0S494.83,60.37,494.83,60.37Z" transform="translate(-450.58 -46.59)"/><path class="cls-2" d="M516.48,99.29l-.23,0-1.56.29s.81,5.54,5.06,3.94Z" transform="translate(-450.58 -46.59)"/><path class="cls-1" d="M526.69,74.91s8.19.43,6.78-2.22l.16-3.32s9.12,1.44,6.28,12.6c0,0-5.41-2.3-5.78-3.35s-3.93,1.3-3.93,1.3Z" transform="translate(-450.58 -46.59)"/><ellipse class="cls-3" cx="47.93" cy="5.22" rx="3.07" ry="1.19"/><path class="cls-2" d="M515.87,55.57s-2.79-4.53,10.84-.36c0,0,4.28,5.2,3.64,6.35s-5.23,1.27-5.23,1.27L517,58.14Z" transform="translate(-450.58 -46.59)"/><path class="cls-2" d="M524.06,103s4.76.15,3.21,2.75-1.86,1.67-1.86,1.67Z" transform="translate(-450.58 -46.59)"/><path class="cls-1" d="M512.42,63.38l5.4-4.72-2-2.56s9.29-.85,11.92,6.17l-4-.71-4,4.22-1.86,2.51-6.7-3.21Z" transform="translate(-450.58 -46.59)"/><ellipse class="cls-3" cx="522.17" cy="58.38" rx="0.86" ry="2.7" transform="translate(-189.43 467.8) rotate(-66.59)"/><ellipse class="cls-3" cx="537.37" cy="75.24" rx="1.66" ry="2.96" transform="translate(-455.42 49.34) rotate(-10.16)"/><polygon class="cls-2" points="77.42 42.05 76.21 43.76 78.8 44.91 80.53 44.8 80.66 43.16 77.99 42.26 77.46 41.97 77.42 42.05"/><path class="cls-1" d="M508.61,100.38l7.08-2.28s-2.31,5.78,4.06,5.46,4.92-.65,4.92-.65,1.88,3.88,0,5-8.12,5.24-12.93,3.61-2.46-4.14-2.46-4.14L512.5,105l-2.92-3.19Z" transform="translate(-450.58 -46.59)"/><path class="cls-2" d="M533.28,88s-1.67,9.28-4.54,9.9,5.72-.5,5.72-.5,4-4.7,4-6.7-2.56-3.61-2.56-3.61Z" transform="translate(-450.58 -46.59)"/><path class="cls-1" d="M526.92,89.4s-.3,2.39,4.66.89L534.4,88s5.14,4.5-5.19,10.31c0,0-2.26-1.85-1.94-3a3.75,3.75,0,0,0,.23-1.53l-2.33-1.15.68-2.73Z" transform="translate(-450.58 -46.59)"/><path class="cls-1" d="M495.08,103.13l.19,2.75,2.61,1.5s3.76,1.28.92,2.59c-2.23,1-10.66.81-14.53-1.27a1.66,1.66,0,0,1,.3-3c1.43-.48,3.18-.93,4-.56,1.55.67.48-3.13.48-3.13l1-1.28,5,.46Z" transform="translate(-450.58 -46.59)"/><ellipse class="cls-3" cx="532.16" cy="92.83" rx="2.49" ry="1.15" transform="translate(-306.86 421.64) rotate(-53.92)"/><ellipse class="cls-3" cx="518.39" cy="106.99" rx="3.93" ry="1.73" transform="translate(-458.89 112.92) rotate(-17.35)"/><ellipse class="cls-3" cx="491.1" cy="108.06" rx="1.06" ry="2.52" transform="translate(-100.77 544.06) rotate(-86.09)"/><path class="cls-6" d="M485,105s1.41,4.79,11.7,6.2c0,0-14.93-1.1-13.81-5.83Z" transform="translate(-450.58 -46.59)"/><path class="cls-1" d="M475.44,92.87l-5.07,4.56s-7.77-4.16-8.43,0c-.63,3.93,5.81,7,5.81,7s7,5.15,10.61,1.2L476.59,102,481,97.44Z" transform="translate(-450.58 -46.59)"/><ellipse class="cls-3" cx="470.8" cy="102.14" rx="1.82" ry="3.49" transform="translate(-339.6 375.88) rotate(-53.92)"/><path class="cls-6" d="M469.88,97.75s-7.95,1.77-1.46,7.14c0,0-6.89-3-5.62-7.64C462.8,97.25,466.78,95,469.88,97.75Z" transform="translate(-450.58 -46.59)"/><ellipse class="cls-1" cx="48.36" cy="35.16" rx="30.69" ry="21.38"/><ellipse class="cls-7" cx="48.22" cy="32.03" rx="25.88" ry="16.04"/><path class="cls-8" d="M505.69,99.51c4.24-.43,7.79-2.06,9.4-4.07a2.67,2.67,0,0,0,.24-1.38c-.27-2.66-4.67-4.39-9.82-3.87s-9.12,3.11-8.85,5.76c.16,1.56,1.73,2.79,4,3.45A19.57,19.57,0,0,0,505.69,99.51Z" transform="translate(-450.58 -46.59)"/><path class="cls-9" d="M505.87,96.8a6,6,0,0,0,3.92-1.7,1.15,1.15,0,0,0,.1-.57c-.12-1.11-1.95-1.83-4.1-1.62s-3.8,1.3-3.68,2.41c.06.64.72,1.16,1.68,1.43A8.38,8.38,0,0,0,505.87,96.8Z" transform="translate(-450.58 -46.59)"/><path class="cls-10" d="M505.69,99.51c4.24-.43,7.79-2.06,9.4-4.07a2.67,2.67,0,0,0,.24-1.38c-.27-2.66-4.67-4.39-9.82-3.87s-9.12,3.11-8.85,5.76c.16,1.56,1.73,2.79,4,3.45A19.57,19.57,0,0,0,505.69,99.51Z" transform="translate(-450.58 -46.59)"/><path class="cls-11" d="M515.33,94.06c-.27-2.66-4.67-4.39-9.82-3.87s-9.12,3.11-8.85,5.76c.16,1.56,1.73,2.79,4,3.45-3.63-.57-6.25-2.22-6.48-4.41-.31-3.1,4.31-6.11,10.33-6.72S515.7,89.68,516,92.78l-.69,1.28" transform="translate(-450.58 -46.59)"/><ellipse class="cls-9" cx="483.08" cy="91.83" rx="1.79" ry="2.54" transform="translate(-252.03 446.29) rotate(-65.41)"/><path class="cls-8" d="M488.35,93.54a4.59,4.59,0,0,0,.17-.48c-.22-1.44-1.63-3-3.72-4-2.73-1.28-5.56-1-6.33.66s.82,4,3.56,5.28c.22.1.44.18.67.27C485.17,95.91,487.54,95.26,488.35,93.54Z" transform="translate(-450.58 -46.59)"/><path class="cls-10" d="M488.35,93.54a4.59,4.59,0,0,0,.17-.48c-.22-1.44-1.63-3-3.72-4-2.73-1.28-5.56-1-6.33.66s.82,4,3.56,5.28c.22.1.44.18.67.27C485.17,95.91,487.54,95.26,488.35,93.54Z" transform="translate(-450.58 -46.59)"/><path class="cls-11" d="M488.13,92A7.19,7.19,0,0,0,484.8,89c-2.73-1.28-5.56-1-6.33.66s.82,4,3.56,5.28c.22.1.44.18.67.27a8.08,8.08,0,0,1-1.35-.48c-2.91-1.36-4.49-4.12-3.54-6.16s4.09-2.59,7-1.23a6.32,6.32,0,0,1,3.77,4.37l-.45.2" transform="translate(-450.58 -46.59)"/><path class="cls-12" d="M485.68,78.27a5,5,0,0,0,0-.55,4.4,4.4,0,1,0-4.34,4.67A5.62,5.62,0,0,0,485.68,78.27Z" transform="translate(-450.58 -46.59)"/><path class="cls-13" d="M476.92,78.3a4.4,4.4,0,0,1,8.78-.58,5,5,0,0,1,0,.55,5.7,5.7,0,0,0,.16-1.76,5.63,5.63,0,1,0-5.25,6,4.76,4.76,0,0,0,.77-.12A4.38,4.38,0,0,1,476.92,78.3Z" transform="translate(-450.58 -46.59)"/><ellipse class="cls-9" cx="516.56" cy="82.23" rx="1.46" ry="3.96" transform="translate(-304.7 404.68) rotate(-53.92)"/><path class="cls-14" d="M523.08,85.13a3.58,3.58,0,0,0,.54-1.4c-.33-1.91-2.12-4.13-4.79-5.7-3.65-2.13-7.52-2.17-8.82-.23s.25,5,3.45,7.25C517.23,87.45,521.5,87.5,523.08,85.13Z" transform="translate(-450.58 -46.59)"/><ellipse class="cls-10" cx="516.48" cy="81.76" rx="4.4" ry="7.53" transform="translate(-253.89 448.9) rotate(-61.29)"/><path class="cls-15" d="M523.08,85.13c-1.58,2.37-5.85,2.32-9.62-.08l.27.2c3.59,2.39,7.88,2.81,9.41.77a2.84,2.84,0,0,0,.48-2.29A3.58,3.58,0,0,1,523.08,85.13Z" transform="translate(-450.58 -46.59)"/><path class="cls-15" d="M510,77.8c1.3-1.94,5.17-1.9,8.82.23,2.67,1.57,4.46,3.79,4.79,5.7.4-2.39-1.37-5.52-4.54-7.63-3.83-2.56-8.25-2.66-9.87-.23s.17,6.47,4,9l.25.15C510.26,82.8,508.77,79.66,510,77.8Z" transform="translate(-450.58 -46.59)"/><path class="cls-14" d="M508.45,71.33a1.83,1.83,0,0,0,.18-.75c0-2.25-4.44-4.08-9.9-4.08s-9.9,1.83-9.9,4.08,4.24,4,9.53,4.08C503,74.6,506.85,73.24,508.45,71.33Z" transform="translate(-450.58 -46.59)"/><path class="cls-15" d="M488.83,70.58c0-2.25,4.43-4.08,9.9-4.08s9.9,1.83,9.9,4.08a1,1,0,0,1-.18.75c1.06-.69.8-1.27.8-2,0-2.93-5-5.3-11.21-5.3s-11.21,2.37-11.21,5.3,5,5.29,11.21,5.29h.32C493.07,74.58,488.83,72.79,488.83,70.58Z" transform="translate(-450.58 -46.59)"/><ellipse class="cls-9" cx="48.15" cy="24.05" rx="5.78" ry="2.35"/><ellipse class="cls-9" cx="481.39" cy="77.73" rx="2.2" ry="1.46" transform="translate(-204.3 458.34) rotate(-70.35)"/><circle class="cls-10" cx="481.31" cy="78" r="4.39" transform="translate(-204.6 458.44) rotate(-70.35)"/><ellipse class="cls-10" cx="48.15" cy="24.05" rx="9.9" ry="4.02"/><path class="cls-16" d="M539.25,68.29c-6.46-3.66-6,4.29-6,4.29l-5.64.54h0a24.41,24.41,0,0,0-7.88-7.34l3.94-4.24c2.18,1.17,6.66.25,6.66.25.59-6.37-10.79-8.58-10.79-8.58-7.69-.81-1.58,5.31-1.58,5.31l-4.21,4.4A42.43,42.43,0,0,0,503,60.56l-.15-6.39a12.32,12.32,0,0,0,4.47-.56,2.42,2.42,0,0,0,.47-4.28c-5.1-3.31-16.48-.89-16.48-.89-8.71,4.25,3.73,5.71,3.73,5.71l.08,6.39a42.07,42.07,0,0,0-9.73,1.94l-3.13-3.15a5.47,5.47,0,0,0,1.26-1.13A2.6,2.6,0,0,0,482,54.07c-5.5-1-10.46,4-12.27,6.12a2.29,2.29,0,0,0-.23,2.78c1.69,2.41,7.12,0,7.12,0l2.06,2.51a26.18,26.18,0,0,0-6.91,5.66l-7.86-2.55a1.15,1.15,0,0,1-.81-1.12,7.55,7.55,0,0,0-.39-2.51A2.84,2.84,0,0,0,460,63.1c-6,0-7.88,7.19-8.39,10.24a3.75,3.75,0,0,0,.74,3c2.18,2.6,5.89-.36,7.37-1.73a1.66,1.66,0,0,1,1.55-.39l7.34,1.93a15.26,15.26,0,0,0-1.13,5.71c0,.3,0,.61.05.91l-2.33.27a1,1,0,0,1-1.07-.73,3.56,3.56,0,0,0-2.06-2.16,3.13,3.13,0,0,0-3.13.27c-2.1,1.61-1.31,5.43-.74,7.32a5.56,5.56,0,0,0,1,2c4.52,5.4,5.78.6,6.08-1.19a.81.81,0,0,1,.73-.66l2.61-.19a19.87,19.87,0,0,0,4.82,6.82l-3.35,3.11a10.94,10.94,0,0,0-5.82-1.48,2.47,2.47,0,0,0-2.2,3.19c1.68,5.58,12.95,8.38,12.95,8.38,6-.28,1.22-6.13,1.22-6.13l3-2.94a37.51,37.51,0,0,0,9.88,3.67l-.05.35-.38,2.46s-10.25-.59-4.54,3.79c0,0,7.77,3.57,14.39,1.15a1.21,1.21,0,0,0,.59-1.82,6.15,6.15,0,0,0-4.11-2.42l.3-2.59c1.16.09,2.34.14,3.54.14a44.7,44.7,0,0,0,11-1.36l2.3,3.48a10.74,10.74,0,0,0-3.35,2.26,2,2,0,0,0,1,3.39c8.34,2.2,16.32-4.32,16.32-4.32,5.79-4.79-6.79-4.16-6.79-4.16L517,99.44a28.06,28.06,0,0,0,8.85-6.52l1.81,1a3.43,3.43,0,0,0-.07,3.24,3.08,3.08,0,0,0,3.3,1.55c7.73-1.34,7.6-8.79,7.6-8.79-1.25-6.21-7.5-.19-7.5-.19l-2.29-1.07a15.49,15.49,0,0,0,1.6-6.78,14.45,14.45,0,0,0-.21-2.47h0l4.5-1.16c2.79,5,6.83,3.5,6.83,3.5C546.71,74.87,539.25,68.29,539.25,68.29Z" transform="translate(-450.58 -46.59)"/></g></svg>