<svg id="BlueLikeRed" xmlns="http://www.w3.org/2000/svg" viewBox="0 0 87.8 74.25"><defs><style>.cls-1{fill:#d9776e;}.cls-2{fill:#8a3d35;}.cls-3{fill:#bf443b;}.cls-4{fill:#eaa79d;}.cls-5{fill:#e7a49a;}.cls-6{fill:#9d3933;}.cls-7{fill:none;stroke:#523d2b;stroke-miterlimit:10;stroke-width:3px;}</style></defs><title>heartBacteria8</title><g id="OUt"><ellipse class="cls-1" cx="40.27" cy="42.63" rx="11.54" ry="8.1"/><path class="cls-2" d="M499,271.46s-10.07-6.75-6.06-21.07,30-23,30-23,20.59-1.67,28.94,6.43,4.2,23.86,2.42,25.41-15.72,19.9-35.77,19C518.53,278.25,500.92,275.69,499,271.46Z" transform="translate(-479.76 -215.26)"/><path class="cls-3" d="M501.75,257.89c2,7,8.59,15.61,29.09,11.78a21.57,21.57,0,0,0,17.48-24c-.06-.41-.12-.82-.2-1.24,0,0-1.51-15.23-23.38-10,0,0-11.1,2.67-18.32,8.47A14,14,0,0,0,501.75,257.89Z" transform="translate(-479.76 -215.26)"/><ellipse class="cls-4" cx="41.35" cy="40.7" rx="6.88" ry="4.92"/><ellipse class="cls-1" cx="55.77" cy="24.77" rx="4.25" ry="2.93"/><ellipse class="cls-5" cx="56.17" cy="24.09" rx="2.61" ry="1.8"/><path class="cls-6" d="M542.71,241.94s.8-1.81-1.67-3.09c0,0-1.58-.1,0-1.47,0,0,3.94,1.21,3.15,4.53C544.18,241.91,543.78,243.33,542.71,241.94Z" transform="translate(-479.76 -215.26)"/><path class="cls-6" d="M532.6,247.4s-1.22,1.57.88,3.41c0,0,1.5.48-.36,1.42,0,0-3.53-2.12-2-5.15C531.17,247.08,531.9,245.79,532.6,247.4Z" transform="translate(-479.76 -215.26)"/><path class="cls-6" d="M501.91,258.39s1.94-.41,2.69,2.27c0,0-.22,1.56,1.44.3,0,0-.39-4.1-3.8-4C502.24,257,500.76,257.06,501.91,258.39Z" transform="translate(-479.76 -215.26)"/><path class="cls-6" d="M517.67,267.47s-1.3,1.08-3.41-.61c0,0-.71-1.25-1.3.34,0,0,2.63,2.89,5.26,1.47C518.22,268.67,519.33,268,517.67,267.47Z" transform="translate(-479.76 -215.26)"/><path class="cls-6" d="M530.3,267.41s-1.43.88-3.28-1.09c0,0-.54-1.33-1.34.16,0,0,2.2,3.23,5,2.19C530.68,268.67,531.87,268.17,530.3,267.41Z" transform="translate(-479.76 -215.26)"/><path class="cls-6" d="M535.18,265s-1.4-.25-1-2c0,0,.68-.82-.83-.52,0,0-1.15,2.41,1.11,3.19C534.48,265.7,535.47,266,535.18,265Z" transform="translate(-479.76 -215.26)"/><path class="cls-6" d="M543.09,245.83s-1.21,1.57.88,3.41c0,0,1.5.48-.35,1.42,0,0-3.54-2.12-2-5.15C541.66,245.51,542.39,244.22,543.09,245.83Z" transform="translate(-479.76 -215.26)"/><path class="cls-6" d="M540.39,255.69s-2-.23-2.47,2.51c0,0,.36,1.54-1.4.44,0,0,0-4.12,3.4-4.34C539.92,254.3,541.4,254.26,540.39,255.69Z" transform="translate(-479.76 -215.26)"/><path class="cls-6" d="M545.58,256.86s-1.69,1-.39,3.49c0,0,1.23,1-.84,1.21,0,0-2.54-3.24,0-5.51C544.36,256.05,545.5,255.11,545.58,256.86Z" transform="translate(-479.76 -215.26)"/><path class="cls-6" d="M526.24,238.43s1.1,1.28,1.39-.68a1.76,1.76,0,0,1-.2-2.51s-.38-1.66-1.3-.1C526.13,235.14,525.39,237.61,526.24,238.43Z" transform="translate(-479.76 -215.26)"/><path class="cls-6" d="M521,243.57s-1.73-2.32,1.84-1.72a6.46,6.46,0,0,0,5.3,1.62s2.51,1.59-1.29,2.16C526.7,245.65,521.15,244.21,521,243.57Z" transform="translate(-479.76 -215.26)"/><path class="cls-6" d="M515.09,239.89s.13-2.11,4.94-1c0,0,.69.57-.37.92A20.05,20.05,0,0,0,515.09,239.89Z" transform="translate(-479.76 -215.26)"/><path class="cls-7" d="M551.47,233.71s3.94-6.32,6.58-5.15c0,0,.86,2.09-4.91,7.22Z" transform="translate(-479.76 -215.26)"/><path class="cls-7" d="M547.72,231.07s4.23-7.23,7.43-6.06c0,0,1.15,2.29-5.34,8.29Z" transform="translate(-479.76 -215.26)"/><path class="cls-7" d="M553.6,237.24s5.26-6.52,8.24-4.88c0,0,.8,2.44-6.51,7.39Z" transform="translate(-479.76 -215.26)"/><path class="cls-7" d="M556.75,248.15s7.33-1.3,8.23,1.45c0,0-1,2-8.66,1.17Z" transform="translate(-479.76 -215.26)"/><path class="cls-7" d="M555.67,241.15s6.12-4.23,8.08-2.1c0,0,0,2.26-7.38,4.66Z" transform="translate(-479.76 -215.26)"/><path class="cls-7" d="M556.4,244.39s7.73-3.23,9.58-.38c0,0-.46,2.52-9.24,3.42Z" transform="translate(-479.76 -215.26)"/><path class="cls-7" d="M556.28,251.91s8.37-.44,9.14,2.87c0,0-1.28,2.22-9.85.1Z" transform="translate(-479.76 -215.26)"/><path class="cls-7" d="M555.49,255.89s8.37-.43,9.15,2.88c0,0-1.29,2.22-9.86.09Z" transform="translate(-479.76 -215.26)"/><path class="cls-7" d="M554,259.21s8.3,1.15,8.44,4.55c0,0-1.68,1.93-9.69-1.77Z" transform="translate(-479.76 -215.26)"/><path class="cls-7" d="M551.14,262.91s8.12,2,7.89,5.43c0,0-1.88,1.75-9.44-2.8Z" transform="translate(-479.76 -215.26)"/><path class="cls-7" d="M548.64,265.86s7.65,3.43,6.83,6.73c0,0-2.15,1.39-8.81-4.41Z" transform="translate(-479.76 -215.26)"/><path class="cls-7" d="M546.11,268.3s7.27,4.76,6.12,8.6c0,0-2.29,1.46-8.33-6Z" transform="translate(-479.76 -215.26)"/><path class="cls-7" d="M543.58,270.93s4.61,7.24,2,10.67c0,0-2.63.66-5.05-8.87Z" transform="translate(-479.76 -215.26)"/><path class="cls-7" d="M559,268.34s-1.88,1.75-9.44-2.8" transform="translate(-479.76 -215.26)"/><path class="cls-7" d="M498.74,270.71s-4.22,7.6-7.58,6.16c0,0-1.29-2.53,5.29-8.72Z" transform="translate(-479.76 -215.26)"/><path class="cls-7" d="M496,267.45s-5.93,7.24-9.94,5.21c0,0-1.35-2.82,7.35-8.23Z" transform="translate(-479.76 -215.26)"/><path class="cls-7" d="M493.39,262.76s-6.68,6-10.5,3.59c0,0-1.07-2.85,8.22-6.78Z" transform="translate(-479.76 -215.26)"/><path class="cls-7" d="M507.55,275.54s-2.39,8.28-6.73,8.26c0,0-2.3-1.73,3.24-9.63Z" transform="translate(-479.76 -215.26)"/><path class="cls-7" d="M503.28,273.69s-3.92,6.73-7.91,5.83c0,0-1.76-2,5-7.74Z" transform="translate(-479.76 -215.26)"/><path class="cls-7" d="M512.53,277.18s-1.9,8.53-6.36,8.89c0,0-2.48-1.54,2.69-10Z" transform="translate(-479.76 -215.26)"/><path class="cls-7" d="M517.41,277.82s-.08,8.56-4.62,10.14c0,0-3-.72.41-10.27Z" transform="translate(-479.76 -215.26)"/><path class="cls-7" d="M522.67,277.82s-.33,8.38-4.73,9.92c0,0-2.88-.7.71-10.05Z" transform="translate(-479.76 -215.26)"/><path class="cls-7" d="M526.86,277.45s.81,8.16-3.17,10.21c0,0-2.83-.31-.7-9.79Z" transform="translate(-479.76 -215.26)"/><path class="cls-7" d="M531.78,276.53s.54,8.1-3.37,10.11c0,0-2.71-.32-.38-9.7Z" transform="translate(-479.76 -215.26)"/><path class="cls-7" d="M535.61,274.67s2.55,7.55-.69,10.35c0,0-2.65.33-2.79-9Z" transform="translate(-479.76 -215.26)"/><path class="cls-7" d="M539.35,273.19s3.5,7,.7,10.18c0,0-2.53.68-3.93-8.36Z" transform="translate(-479.76 -215.26)"/><path class="cls-7" d="M554.53,238.07s8.11-2.09,7.86-5.48c0,0-1.89-1.73-9.43,2.86Z" transform="translate(-479.76 -215.26)"/><path class="cls-7" d="M549.89,232.3s6.93-4.7,5.55-7.81c0,0-2.37-1-7.91,5.88Z" transform="translate(-479.76 -215.26)"/><path class="cls-7" d="M545.84,230.79s6.93-4.71,5.55-7.81c0,0-2.36-1-7.91,5.87Z" transform="translate(-479.76 -215.26)"/><path class="cls-7" d="M542.64,229.09s5.92-5.93,4-8.72c0,0-2.51-.53-6.65,7.26Z" transform="translate(-479.76 -215.26)"/><path class="cls-7" d="M538.45,227.91s5.24-6.54,3-9.1c0,0-2.55-.26-5.83,7.94Z" transform="translate(-479.76 -215.26)"/><path class="cls-7" d="M535.27,226.86s3-7.84,0-9.59c0,0-2.51.55-3.09,9.36Z" transform="translate(-479.76 -215.26)"/><path class="cls-7" d="M531.74,227.29s1.92-8.48-1.58-10.44c0,0-2.66.53-1.8,10.12Z" transform="translate(-479.76 -215.26)"/><path class="cls-7" d="M528.64,227.09s-.71-8.55-4.83-9.73c0,0-2.5,1.06,1.33,10.12Z" transform="translate(-479.76 -215.26)"/><path class="cls-7" d="M492,252.4s-8-3.5-9.76-.32c0,0,.5,2.78,9.48,3.75Z" transform="translate(-479.76 -215.26)"/><path class="cls-7" d="M496.08,243.23s-6.9-5.15-10.35-2.51c0,0-.78,2.77,8.4,5.71Z" transform="translate(-479.76 -215.26)"/><path class="cls-7" d="M493.8,247.28s-7.19-3-9.83.14c0,0-.2,2.64,8.67,3.14Z" transform="translate(-479.76 -215.26)"/><path class="cls-7" d="M499.36,238.93s-6.66-5.65-10.44-3.24c0,0-1,2.72,8.16,6.31Z" transform="translate(-479.76 -215.26)"/><path class="cls-7" d="M503.33,235.9s-5.23-6.77-9.8-5.29c0,0-2,2.4,6.52,7.93Z" transform="translate(-479.76 -215.26)"/><path class="cls-7" d="M507.53,233.46s-5.33-6.47-9.76-5.05c0,0-1.87,2.3,6.64,7.58Z" transform="translate(-479.76 -215.26)"/><path class="cls-7" d="M511.24,231.81s-4.28-7-8.69-6.22c0,0-2.07,1.95,5.35,8.22Z" transform="translate(-479.76 -215.26)"/><path class="cls-7" d="M515.41,230s-4.46-6.78-8.79-6c0,0-2,1.89,5.56,8Z" transform="translate(-479.76 -215.26)"/><path class="cls-7" d="M519.05,228.92s-2.53-7.55-6.81-7.83c0,0-2.31,1.34,3.23,8.88Z" transform="translate(-479.76 -215.26)"/><path class="cls-7" d="M523.68,227.87s-1.43-7.69-5.59-8.53c0,0-2.43,1,1.92,9Z" transform="translate(-479.76 -215.26)"/><path class="cls-7" d="M491.75,259.05s-7.7,2.61-10.49-.73c0,0-.19-2.73,9.32-2.68Z" transform="translate(-479.76 -215.26)"/><path class="cls-7" d="M556.77,245.77c1.27,9.79-5.95,20.63-17,26.68-12.61,6.87-30.42,7.67-40.54-1.23-14.36-12.63-5.48-34.78,20-41.93C539.59,223.56,555.13,233.09,556.77,245.77Z" transform="translate(-479.76 -215.26)"/><path class="cls-6" d="M506.57,246a1.29,1.29,0,0,1,1.64-1l4.13-.05s.87.51.58,1S506.32,246.53,506.57,246Z" transform="translate(-479.76 -215.26)"/><path class="cls-6" d="M502.69,251.75a4.52,4.52,0,0,0,4.9-.19c.16-.09.13-.29-.06-.35-.89-.29-3.11-.86-4.79,0A.31.31,0,0,0,502.69,251.75Z" transform="translate(-479.76 -215.26)"/></g></svg>