<svg id="SideEnemy" xmlns="http://www.w3.org/2000/svg" viewBox="0 0 58.15 17.57"><defs><style>.cls-1{fill:#c66b36;}.cls-2{fill:#fbfbf6;}.cls-3{fill:none;stroke:#5a422c;stroke-miterlimit:10;stroke-width:2px;}</style></defs><title>heartBacteria15</title><path class="cls-1" d="M400.46,128.3s.44-9.37,27.12-10.31c0,0,32.28-.79,27.17,9.12,0,0-2,7.07-13.3,3.62,0,0-10.35-3.51-25.59.86C415.86,131.59,405.72,136.67,400.46,128.3Z" transform="translate(-398.61 -116.62)"/><path id="InsideEdge" class="cls-2" d="M408.42,125.87s20.92-8.53,40.94-1c0,0,4.74,3.27-4.54,2.33,0,0-15.38-5.71-34.21,1.71C410.61,128.88,402.52,129.43,408.42,125.87Z" transform="translate(-398.61 -116.62)"/><path class="cls-2" d="M401.74,128.64s5.66-8.93,31.81-8.72c0,0,26.27.26,16.22,10,.14.28-1.32,2-1.32,2s7.53-2.74,6.63-7.09-14.94-7.08-20.47-7-19.38.14-32.49,5.8C402.12,123.6,399.85,127.36,401.74,128.64Z" transform="translate(-398.61 -116.62)"/><path class="cls-3" d="M399.85,128.22c-1.06-2.77.71-7.36,21.06-9.93a77.73,77.73,0,0,1,18.65-.19c4.75.57,10.09,1.6,13.37,3.47,2.57,1.48,3.36,3.54,2.5,5.58-.93,2.22-3.41,5.42-9.84,4.66a82.52,82.52,0,0,0-18.36-1.92,26.8,26.8,0,0,0-7.05,1.16,60.84,60.84,0,0,1-8.12,1.94c-3.16.5-6.41,0-8.29-1.13l-1.11-.69A6.59,6.59,0,0,1,399.85,128.22Z" transform="translate(-398.61 -116.62)"/><path class="cls-3" d="M406.3,128.39a2.78,2.78,0,0,1,2.12-2.52s15.47-5.8,28.76-3.83c0,0,14,1.17,13.27,4.69,0,0-1.55,2.14-11.6-1,0,0-12.74-2.73-28.24,3.15A7.64,7.64,0,0,1,406.3,128.39Z" transform="translate(-398.61 -116.62)"/></svg>