<svg id="redEnemy" xmlns="http://www.w3.org/2000/svg" viewBox="0 0 110.07 71.75"><defs><style>.cls-1{fill:#f8fff8;}.cls-2{fill:#8f3a30;}.cls-3{fill:#c14944;}.cls-4{fill:#d5786e;}.cls-5{fill:none;stroke:#3e3123;stroke-miterlimit:10;}</style></defs><title>heartBacteriA4</title><path class="cls-1" d="M206.94,205.93,180,207.54a12.84,12.84,0,0,1-9.61-8c-1.4-7.9,6.36-11.46,7.25-11.84l-3.21.2s-9.6,3.76-8,12.8a13.91,13.91,0,0,0,10.44,8.66l29.31-1.73s9.45-1.28,9.21-10.95C215.05,204.82,206.94,205.93,206.94,205.93Z" transform="translate(-166.12 -167.21)"/><path class="cls-2" d="M202.46,186.11l-24.82,1.56c-.89.38-8.65,3.94-7.25,11.84a12.84,12.84,0,0,0,9.61,8l26.94-1.61s8.11-1.11,8.47-9.28a16.79,16.79,0,0,0-.15-1.8S213.88,187.36,202.46,186.11Z" transform="translate(-166.12 -167.21)"/><path class="cls-3" d="M198.75,188.52l-22,1.39c-.79.33-7.66,3.48-6.41,10.47a11.36,11.36,0,0,0,8.49,7.12l23.86-1.43s7.17-1,7.48-8.22a15.32,15.32,0,0,0-.12-1.59S208.86,189.63,198.75,188.52Z" transform="translate(-166.12 -167.21)"/><ellipse class="cls-4" cx="186.39" cy="201.94" rx="2.35" ry="2.43" transform="translate(-251.06 -8.84) rotate(-38.17)"/><ellipse class="cls-4" cx="202.72" cy="200.06" rx="2.66" ry="5.08" transform="translate(-174.02 224.58) rotate(-86.94)"/><ellipse class="cls-4" cx="188.89" cy="195.53" rx="1.71" ry="1.08" transform="translate(-179.7 -153.11) rotate(-4.13)"/><ellipse class="cls-4" cx="177.73" cy="196.09" rx="1.33" ry="2.41" transform="translate(-215.15 165.33) rotate(-78.85)"/><ellipse class="cls-4" cx="197.7" cy="192.39" rx="1.79" ry="3" transform="translate(-218.87 140.82) rotate(-69.01)"/><path class="cls-5" d="M206.55,207.4s10.6-1.43,9.07-12.75c0,0-1.39-7.49-12.81-8.74l-28,1.76s-9.6,3.76-8,12.8a13.92,13.92,0,0,0,10.45,8.66Z" transform="translate(-166.12 -167.21)"/><ellipse class="cls-4" cx="177.73" cy="196.09" rx="1.33" ry="2.41" transform="translate(-215.15 165.33) rotate(-78.85)"/><path class="cls-5" d="M178.08,187.43l-.09,0,24.82-1.56c11.42,1.25,12.81,8.74,12.81,8.74.08.63.12,1.23.14,1.8a14.35,14.35,0,0,0-.13-2.56s-1.27-6.95-11.77-8.11Z" transform="translate(-166.12 -167.21)"/><path class="cls-1" d="M222.56,203.1l-14.89,15.42c-2.15,5.77,3.85,12.53,3.85,12.53,7.72,7.32,15.29,5.4,16.13,5.16L225.87,238s-8.69,2.89-17.51-5.48c0,0-6.45-7.3-4.11-13.56l16.17-16.79s6-4.82,16.14,3.22C227.71,199,222.56,203.1,222.56,203.1Z" transform="translate(-166.12 -167.21)"/><path class="cls-2" d="M241.44,222.07l-13.79,14.14c-.84.24-8.41,2.16-16.13-5.16,0,0-6-6.76-3.85-12.53l14.89-15.42s5.15-4.13,14,2.32c.6.48,1.22,1,1.85,1.56C238.41,207,245.69,214,241.44,222.07Z" transform="translate(-166.12 -167.21)"/><path class="cls-3" d="M237.06,222.4l-12.21,12.51c-.74.22-7.45,1.91-14.28-4.56,0,0-5.3-6-3.4-11.09l13.17-13.65s4.56-3.65,12.4,2.06c.53.42,1.07.87,1.63,1.37C234.37,209,240.82,215.21,237.06,222.4Z" transform="translate(-166.12 -167.21)"/><ellipse class="cls-4" cx="216.76" cy="219.13" rx="1.88" ry="3.22" transform="translate(-255.99 83.26) rotate(-51.15)"/><ellipse class="cls-4" cx="226.73" cy="210.52" rx="4.03" ry="3.55" transform="translate(-222.98 167.01) rotate(-66.44)"/><ellipse class="cls-4" cx="224.79" cy="222.8" rx="1.32" ry="1.48" transform="translate(-215.67 213.41) rotate(-74.66)"/><ellipse class="cls-4" cx="218.74" cy="229.28" rx="1.64" ry="2.06" transform="translate(-186.3 -146.1) rotate(-5.28)"/><ellipse class="cls-4" cx="232.43" cy="219.9" rx="1.97" ry="2.88" transform="translate(-227.43 -74.17) rotate(-20.05)"/><path class="cls-5" d="M220.8,202.15s6.71-5.42,18,4.77c0,0,7.29,7,3,15.09l-15.57,16s-8.7,2.89-17.51-5.49c0,0-6.46-7.29-4.11-13.55Z" transform="translate(-166.12 -167.21)"/><ellipse class="cls-4" cx="218.74" cy="229.28" rx="1.64" ry="2.06" transform="translate(-186.3 -146.1) rotate(-5.28)"/><path class="cls-5" d="M228.12,236.12l-.08,0L241.83,222c4.25-8.12-3-15.09-3-15.09-.63-.57-1.24-1.08-1.84-1.55a32.83,32.83,0,0,1,2.65,2.16s6.77,6.46,2.87,13.93Z" transform="translate(-166.12 -167.21)"/><path class="cls-1" d="M218.16,202.15l26.12,3.63c7.34-.95,9.87-7.8,9.87-7.8,1.89-8.24-5.42-12.55-6.27-13l3.11.45s9.09,4.66,6.92,14.08c0,0-2.75,7.37-10.73,8.4L218.78,204a11,11,0,0,1-8.24-12.23A10.17,10.17,0,0,0,218.16,202.15Z" transform="translate(-166.12 -167.21)"/><path class="cls-2" d="M223.83,181.54l24,3.42c.85.47,8.16,4.78,6.27,13,0,0-2.53,6.85-9.87,7.8l-26.12-3.63a10.17,10.17,0,0,1-7.62-10.41c.05-.6.13-1.22.25-1.88C210.79,189.86,212.63,182.05,223.83,181.54Z" transform="translate(-166.12 -167.21)"/><path class="cls-3" d="M227.29,184.36l21.28,3c.75.41,7.22,4.23,5.55,11.52,0,0-2.24,6.06-8.74,6.9l-23.12-3.21a9,9,0,0,1-6.74-9.21,15,15,0,0,1,.22-1.67S217.37,184.81,227.29,184.36Z" transform="translate(-166.12 -167.21)"/><ellipse class="cls-4" cx="238.42" cy="199.4" rx="2.54" ry="2.32" transform="translate(-169.05 228.04) rotate(-78.96)"/><ellipse class="cls-4" cx="222.66" cy="196.25" rx="2.82" ry="4.95" transform="translate(-143.36 248.44) rotate(-89.06)"/><ellipse class="cls-4" cx="236.41" cy="192.46" rx="1.14" ry="1.67" transform="translate(-159.65 225.41) rotate(-80.19)"/><ellipse class="cls-4" cx="247.24" cy="193.85" rx="2.35" ry="1.4" transform="translate(-192.12 -128.42) rotate(-8.52)"/><ellipse class="cls-4" cx="228.05" cy="188.52" rx="2.95" ry="1.87" transform="translate(-217.27 -76.63) rotate(-20.25)"/><path class="cls-5" d="M218.45,203.73s-10.23-2.27-8-14.11c0,0,1.84-7.81,13-8.31l27.16,3.86s9.09,4.66,6.92,14.08c0,0-2.75,7.38-10.73,8.4Z" transform="translate(-166.12 -167.21)"/><ellipse class="cls-4" cx="247.24" cy="193.85" rx="2.35" ry="1.4" transform="translate(-192.12 -128.42) rotate(-8.52)"/><path class="cls-5" d="M247.46,184.68l.09,0-24.05-3.42c-11.2.5-13,8.31-13,8.31-.12.66-.2,1.29-.25,1.89a15.74,15.74,0,0,1,.29-2.69s1.69-7.24,12-7.72Z" transform="translate(-166.12 -167.21)"/><path class="cls-1" d="M250.38,196.93,247,177.43c1.4-5.39,9.67-7,9.67-7,9.92-1.05,14.81,4.55,15.34,5.19l-.42-2.32s-5.25-6.93-16.59-5.71c0,0-8.91,1.73-10.41,7.6l3.69,21.2s2.1,6.83,14.31,6.61C252.2,202.79,250.38,196.93,250.38,196.93Z" transform="translate(-166.12 -167.21)"/><path class="cls-2" d="M275.2,193.59l-3.24-18c-.53-.64-5.42-6.24-15.34-5.19,0,0-8.27,1.6-9.67,7l3.43,19.5s1.82,5.86,12.16,6.08c.72,0,1.48,0,2.27-.11C264.81,202.9,274.2,201.86,275.2,193.59Z" transform="translate(-166.12 -167.21)"/><path class="cls-3" d="M272,190.91,269.08,175c-.46-.57-4.8-5.52-13.57-4.59,0,0-7.32,1.41-8.56,6.18l3,17.26s1.62,5.19,10.77,5.38c.64,0,1.3,0,2-.1C262.76,199.15,271.07,198.23,272,190.91Z" transform="translate(-166.12 -167.21)"/><ellipse class="cls-4" cx="88.25" cy="14.83" rx="3.03" ry="1.72"/><ellipse class="cls-4" cx="91.46" cy="26.63" rx="3.37" ry="3.67"/><ellipse class="cls-4" cx="262.59" cy="183.81" rx="1.19" ry="1.42" transform="translate(-177.45 183.07) rotate(-66.28)"/><ellipse class="cls-4" cx="261.32" cy="175.74" rx="1.86" ry="1.57" transform="translate(-213.85 69.04) rotate(-45)"/><ellipse class="cls-4" cx="267.02" cy="190.17" rx="2.63" ry="1.86" transform="translate(-225.43 -8.22) rotate(-30)"/><path class="cls-5" d="M248.5,196.65s2.35,7.67,16.58,6.5c0,0,9.4-1,10.4-9.31l-3.67-20.27s-5.25-6.93-16.58-5.72c0,0-8.92,1.74-10.42,7.6Z" transform="translate(-166.12 -167.21)"/><ellipse class="cls-4" cx="261.32" cy="175.74" rx="1.86" ry="1.57" transform="translate(-213.85 69.04) rotate(-45)"/><path class="cls-5" d="M272.28,176l0-.06,3.25,18c-1,8.27-10.4,9.31-10.4,9.31-.79.07-1.54.1-2.27.11,1,0,2.07,0,3.23-.1,0,0,8.72-.95,9.64-8.56Z" transform="translate(-166.12 -167.21)"/></svg>