<svg id="redEnemy" xmlns="http://www.w3.org/2000/svg" viewBox="0 0 110.07 71.75"><defs><style>.cls-1{fill:#f8fff8;}.cls-2{fill:#8f3a30;}.cls-3{fill:#c14944;}.cls-4{fill:#d5786e;}.cls-5{fill:none;stroke:#3e3123;stroke-miterlimit:10;}</style></defs><title>heartBacteria14</title><path class="cls-1" d="M150,203.65l-26.95,1.62a12.86,12.86,0,0,1-9.6-8c-1.4-7.9,6.36-11.46,7.25-11.84l-3.21.2s-9.6,3.77-8,12.8A13.91,13.91,0,0,0,120,207.05l29.31-1.72s9.44-1.29,9.2-11C158.11,202.54,150,203.65,150,203.65Z" transform="translate(-109.18 -164.93)"/><path class="cls-2" d="M145.52,183.83l-24.82,1.56c-.89.38-8.65,3.94-7.25,11.84a12.86,12.86,0,0,0,9.6,8l27-1.62s8.11-1.11,8.46-9.28a14.47,14.47,0,0,0-.14-1.8S156.94,185.08,145.52,183.83Z" transform="translate(-109.18 -164.93)"/><path class="cls-3" d="M141.81,186.25l-22,1.38c-.79.34-7.66,3.48-6.42,10.48a11.38,11.38,0,0,0,8.5,7.11l23.86-1.43s7.17-1,7.48-8.21a14.92,14.92,0,0,0-.12-1.59S151.92,187.36,141.81,186.25Z" transform="translate(-109.18 -164.93)"/><ellipse class="cls-4" cx="129.45" cy="199.66" rx="2.35" ry="2.43" transform="translate(-204.89 -42.24) rotate(-38.17)"/><ellipse class="cls-4" cx="145.78" cy="197.78" rx="2.66" ry="5.08" transform="translate(-168.7 167.85) rotate(-86.94)"/><ellipse class="cls-4" cx="131.95" cy="193.26" rx="1.71" ry="1.08" transform="translate(-122.75 -154.94) rotate(-4.13)"/><ellipse class="cls-4" cx="120.79" cy="193.81" rx="1.33" ry="2.41" transform="translate(-201.9 109.9) rotate(-78.85)"/><ellipse class="cls-4" cx="140.75" cy="190.11" rx="1.79" ry="3" transform="translate(-196.35 88.48) rotate(-69.01)"/><path class="cls-5" d="M149.61,205.13s10.6-1.44,9.06-12.76c0,0-1.38-7.49-12.8-8.74l-28,1.76s-9.59,3.77-8,12.8a13.92,13.92,0,0,0,10.45,8.66Z" transform="translate(-109.18 -164.93)"/><ellipse class="cls-4" cx="120.79" cy="193.81" rx="1.33" ry="2.41" transform="translate(-201.9 109.9) rotate(-78.85)"/><path class="cls-5" d="M121.14,185.15l-.09,0,24.82-1.56c11.42,1.25,12.8,8.74,12.8,8.74a16.79,16.79,0,0,1,.15,1.8,14.24,14.24,0,0,0-.13-2.55s-1.27-7-11.77-8.11Z" transform="translate(-109.18 -164.93)"/><path class="cls-1" d="M165.62,200.83l-14.89,15.42c-2.15,5.76,3.85,12.52,3.85,12.52,7.72,7.32,15.29,5.4,16.13,5.16l-1.78,1.83s-8.69,2.89-17.51-5.49c0,0-6.45-7.29-4.11-13.56l16.16-16.79s6-4.82,16.15,3.22C170.76,196.7,165.62,200.83,165.62,200.83Z" transform="translate(-109.18 -164.93)"/><path class="cls-2" d="M184.5,219.79l-13.79,14.14c-.84.24-8.41,2.16-16.13-5.16,0,0-6-6.76-3.85-12.52l14.89-15.42s5.14-4.13,14,2.31c.6.48,1.22,1,1.85,1.56C181.47,204.7,188.75,211.67,184.5,219.79Z" transform="translate(-109.18 -164.93)"/><path class="cls-3" d="M180.12,220.12l-12.21,12.52c-.74.21-7.45,1.91-14.28-4.57,0,0-5.3-6-3.4-11.08l13.17-13.65s4.56-3.66,12.4,2c.53.42,1.07.87,1.63,1.38C177.43,206.77,183.88,212.94,180.12,220.12Z" transform="translate(-109.18 -164.93)"/><ellipse class="cls-4" cx="159.82" cy="216.85" rx="1.88" ry="3.22" transform="translate(-218.49 40.34) rotate(-51.15)"/><ellipse class="cls-4" cx="169.79" cy="208.24" rx="4.03" ry="3.55" transform="translate(-198.13 115.73) rotate(-66.44)"/><ellipse class="cls-4" cx="167.85" cy="220.52" rx="1.32" ry="1.48" transform="translate(-198.41 159.1) rotate(-74.66)"/><ellipse class="cls-4" cx="161.8" cy="227" rx="1.64" ry="2.06" transform="translate(-129.39 -149.08) rotate(-5.28)"/><ellipse class="cls-4" cx="175.49" cy="217.62" rx="1.97" ry="2.88" transform="translate(-173.16 -91.56) rotate(-20.05)"/><path class="cls-5" d="M163.86,199.87s6.71-5.42,18,4.77c0,0,7.29,7,3,15.09l-15.57,16s-8.7,2.89-17.51-5.48c0,0-6.46-7.3-4.11-13.56Z" transform="translate(-109.18 -164.93)"/><ellipse class="cls-4" cx="161.8" cy="227" rx="1.64" ry="2.06" transform="translate(-129.39 -149.08) rotate(-5.28)"/><path class="cls-5" d="M171.18,233.85l-.08,0,13.79-14.14c4.25-8.12-3-15.09-3-15.09-.63-.56-1.24-1.08-1.84-1.55a32.83,32.83,0,0,1,2.65,2.16s6.77,6.46,2.87,13.93Z" transform="translate(-109.18 -164.93)"/><path class="cls-1" d="M161.22,199.87l26.12,3.63c7.34-.95,9.87-7.8,9.87-7.8,1.89-8.24-5.42-12.55-6.27-13l3.11.44s9.09,4.66,6.92,14.08c0,0-2.75,7.38-10.73,8.4l-28.41-3.92a11,11,0,0,1-8.23-12.22A10.15,10.15,0,0,0,161.22,199.87Z" transform="translate(-109.18 -164.93)"/><path class="cls-2" d="M166.89,179.26l24.05,3.43c.85.46,8.16,4.77,6.27,13,0,0-2.53,6.85-9.87,7.8l-26.12-3.63a10.15,10.15,0,0,1-7.62-10.4c.05-.6.13-1.23.25-1.89C153.85,187.58,155.69,179.77,166.89,179.26Z" transform="translate(-109.18 -164.93)"/><path class="cls-3" d="M170.34,182.08l21.29,3c.75.42,7.22,4.23,5.55,11.52,0,0-2.24,6.06-8.74,6.9l-23.12-3.21a9,9,0,0,1-6.74-9.21,15.36,15.36,0,0,1,.22-1.67S160.43,182.53,170.34,182.08Z" transform="translate(-109.18 -164.93)"/><ellipse class="cls-4" cx="181.48" cy="197.12" rx="2.54" ry="2.32" transform="translate(-155.92 172.59) rotate(-78.96)"/><ellipse class="cls-4" cx="165.72" cy="193.98" rx="2.82" ry="4.95" transform="translate(-140.14 191.55) rotate(-89.06)"/><ellipse class="cls-4" cx="179.47" cy="190.19" rx="1.14" ry="1.67" transform="matrix(0.17, -0.99, 0.99, 0.17, -147.7, 169.69)"/><ellipse class="cls-4" cx="190.3" cy="191.57" rx="2.35" ry="1.4" transform="translate(-135.47 -134.61) rotate(-8.52)"/><ellipse class="cls-4" cx="171.11" cy="186.24" rx="2.95" ry="1.87" transform="translate(-163.06 -94.2) rotate(-20.25)"/><path class="cls-5" d="M161.5,201.45s-10.22-2.27-8-14.11c0,0,1.84-7.8,13-8.31l27.16,3.86s9.09,4.66,6.92,14.08c0,0-2.75,7.38-10.73,8.4Z" transform="translate(-109.18 -164.93)"/><ellipse class="cls-4" cx="190.3" cy="191.57" rx="2.35" ry="1.4" transform="translate(-135.47 -134.61) rotate(-8.52)"/><path class="cls-5" d="M190.52,182.4l.09,0L166.56,179c-11.2.51-13,8.31-13,8.31-.12.66-.2,1.29-.25,1.89a15.77,15.77,0,0,1,.28-2.69s1.7-7.24,12-7.72Z" transform="translate(-109.18 -164.93)"/><path class="cls-1" d="M193.44,194.65,190,175.16c1.4-5.4,9.67-7,9.67-7,9.91-1.06,14.81,4.54,15.34,5.19L214.6,171s-5.25-6.93-16.59-5.72c0,0-8.91,1.73-10.41,7.6l3.68,21.2s2.11,6.83,14.32,6.61C195.26,200.52,193.44,194.65,193.44,194.65Z" transform="translate(-109.18 -164.93)"/><path class="cls-2" d="M218.26,191.31,215,173.36c-.53-.65-5.43-6.25-15.34-5.19,0,0-8.27,1.59-9.67,7l3.43,19.49s1.82,5.87,12.16,6.08c.72,0,1.47,0,2.27-.11C207.87,200.62,217.26,199.58,218.26,191.31Z" transform="translate(-109.18 -164.93)"/><path class="cls-3" d="M215,188.63l-2.88-15.88c-.46-.58-4.8-5.53-13.57-4.6,0,0-7.32,1.41-8.56,6.19l3,17.25s1.62,5.19,10.77,5.38c.64,0,1.3,0,2-.1C205.82,196.87,214.13,196,215,188.63Z" transform="translate(-109.18 -164.93)"/><ellipse class="cls-4" cx="88.25" cy="14.83" rx="3.03" ry="1.72"/><ellipse class="cls-4" cx="91.46" cy="26.63" rx="3.37" ry="3.67"/><ellipse class="cls-4" cx="205.65" cy="181.54" rx="1.19" ry="1.42" transform="translate(-152.46 131.86) rotate(-66.28)"/><ellipse class="cls-4" cx="204.38" cy="173.46" rx="1.86" ry="1.57" transform="translate(-171.97 30.39) rotate(-45)"/><ellipse class="cls-4" cx="210.08" cy="187.89" rx="2.63" ry="1.86" transform="translate(-174.98 -34.72) rotate(-30)"/><path class="cls-5" d="M191.56,194.37s2.35,7.67,16.58,6.5c0,0,9.39-1,10.39-9.31l-3.66-20.27s-5.25-6.93-16.59-5.71c0,0-8.91,1.73-10.41,7.59Z" transform="translate(-109.18 -164.93)"/><ellipse class="cls-4" cx="204.38" cy="173.46" rx="1.86" ry="1.57" transform="translate(-171.97 30.39) rotate(-45)"/><path class="cls-5" d="M215.34,173.68l-.05-.07,3.24,17.95c-1,8.28-10.39,9.31-10.39,9.31-.79.07-1.55.1-2.27.11a27.83,27.83,0,0,0,3.23-.1s8.71-.95,9.64-8.56Z" transform="translate(-109.18 -164.93)"/></svg>