<svg id="SideEnemy" xmlns="http://www.w3.org/2000/svg" viewBox="0 0 30.16 40.37"><defs><style>.cls-1{fill:#c3463f;}.cls-2{fill:#fbfbf6;}.cls-3{fill:none;stroke:#5a422c;stroke-miterlimit:10;stroke-width:2px;}</style></defs><title>heartBacteria16</title><g id="OutLine"><path class="cls-1" d="M517.58,266.85s-9.56-5.49,0-23.15c0,0,12-21.18,20.26-12.4,0,0,6.53,5.23-1.51,10.56,0,0-7.76,4.7-9.26,16.92C527.12,258.78,528.38,268.11,517.58,266.85Z" transform="translate(-511.66 -228.03)"/><path id="InsideEdge" class="cls-2" d="M518.22,260.39s-.57-18.18,15.17-26.88c0,0,5.29-1.23.62,4.2,0,0-12,6.72-11.79,22.94C522.22,260.65,519.58,266.15,518.22,260.39Z" transform="translate(-511.66 -228.03)"/><path class="cls-2" d="M518.45,266.21s-7-8.58,3.56-25.27c0,0,10.69-16.74,16.83-4.87.35.06,1.52,1.93,1.52,1.93s.14-6.36-4.74-8.19-13.29,5.67-15.4,9.27-7.54,12.53-6.85,24.09C513.37,263.17,516.37,266.72,518.45,266.21Z" transform="translate(-511.66 -228.03)"/><path class="cls-3" d="M517.26,267.19c-3.3-.85-7.37-4.54-2-19a37.69,37.69,0,0,1,7.21-12.09c2.47-2.73,5.66-5.59,8.91-6.66a6.6,6.6,0,0,1,6.79,1.49c1.94,1.83,4.28,5.19.94,8.9,0,0-6.08,4.9-9.28,10.74a13.28,13.28,0,0,0-1.59,5.17,31,31,0,0,1-1.2,6.3,7.08,7.08,0,0,1-4.48,4.7l-1.15.33A8.07,8.07,0,0,1,517.26,267.19Z" transform="translate(-511.66 -228.03)"/><path class="cls-3" d="M520,263.15a3.28,3.28,0,0,1-1.77-2.76s.11-13.16,7.43-20.61c0,0,6.78-8.38,10.14-5.92,0,0,1.61,2.18-5.64,6.9,0,0-7.89,6.67-7.93,19.89A3.94,3.94,0,0,1,520,263.15Z" transform="translate(-511.66 -228.03)"/></g></svg>