<svg id="redEnemy" xmlns="http://www.w3.org/2000/svg" viewBox="0 0 78.83 58.83"><defs><style>.cls-1{fill:#873c33;}.cls-2{fill:#bc493d;}.cls-3{fill:#f7fffc;}.cls-4{fill:#d36b2e;}.cls-5{fill:#fdfffd;}.cls-6,.cls-8{fill:none;stroke-miterlimit:10;}.cls-6{stroke:#5c4233;}.cls-7{fill:#3e3123;}.cls-8{stroke:#503a29;stroke-width:2px;}</style></defs><title>heartBacteria12</title><path class="cls-1" d="M242.59,209.58a5.54,5.54,0,0,0-4.73-4.69c-19.67-2.93-37.63,18-41.52,22.91a5.37,5.37,0,0,1-1.94,1.53c-8.42,4-9.91,7.73-9.4,10.41a5.4,5.4,0,0,0,5,4.2l8,.6a6.12,6.12,0,0,0,3.08-.71c8.63-4.54,23.72-10.38,30.42-12.9a14.48,14.48,0,0,0,2.11-1.63C242.32,221.07,243.15,213.81,242.59,209.58Z" transform="translate(-175.6 -192.67)"/><ellipse class="cls-2" cx="33.77" cy="33.36" rx="4.23" ry="2.64"/><ellipse class="cls-2" cx="24.95" cy="39.89" rx="2.7" ry="2.2"/><ellipse class="cls-2" cx="36.96" cy="24.2" rx="2.94" ry="2.2"/><ellipse class="cls-2" cx="224.41" cy="210.71" rx="1.78" ry="2.26" transform="translate(-177.38 226.83) rotate(-85.9)"/><ellipse class="cls-2" cx="20.37" cy="47.47" rx="2.94" ry="2.2"/><ellipse class="cls-2" cx="15.09" cy="43.69" rx="2.13" ry="1.59"/><ellipse class="cls-2" cx="32.28" cy="43.08" rx="2.27" ry="1.7"/><ellipse class="cls-2" cx="46.69" cy="36.84" rx="2.94" ry="2.2"/><ellipse class="cls-2" cx="61.01" cy="15.78" rx="3.8" ry="2.91"/><ellipse class="cls-2" cx="61.21" cy="24.66" rx="2.94" ry="2.2"/><path class="cls-3" d="M224.41,211.86c-5.59,0-10.12,3.2-10.12,7.15,0,.18,0,.35,0,.52.38-3.14,4.09-5.61,8.63-5.61,4.79,0,8.67,2.74,8.67,6.12,0,3.21-3.49,5.84-7.94,6.1.24,0,.49,0,.73,0,5.59,0,10.13-3.2,10.13-7.16S230,211.86,224.41,211.86Z" transform="translate(-175.6 -192.67)"/><path class="cls-4" d="M214.32,219.53a4.36,4.36,0,0,0,0,.51c0,3.39,3.88,6.13,8.66,6.13.25,0,.49,0,.73,0C218.67,225.89,214.68,223.07,214.32,219.53Z" transform="translate(-175.6 -192.67)"/><path class="cls-4" d="M231.62,220c0-3.38-3.88-6.12-8.67-6.12-4.54,0-8.25,2.47-8.63,5.61.36,3.54,4.35,6.36,9.36,6.61C228.13,225.88,231.62,223.25,231.62,220Z" transform="translate(-175.6 -192.67)"/><path class="cls-1" d="M198,244.54h0a5.6,5.6,0,0,0,3-.63c8-4.19,22.33-9.63,28-11.72a14,14,0,0,0,2.54-1.26c-6.7,2.52-21.79,8.36-30.42,12.9A6.12,6.12,0,0,1,198,244.54Z" transform="translate(-175.6 -192.67)"/><path class="cls-5" d="M247.45,205.22a6.22,6.22,0,0,0-5.27-5.29c-21.93-3.29-42,20.29-46.3,25.78a6,6,0,0,1-2.16,1.72c-9.39,4.47-11.05,8.69-10.48,11.7a6,6,0,0,0,5.55,4.74l8.92.66H198l-8-.6a5.4,5.4,0,0,1-5-4.2c-.51-2.68,1-6.43,9.4-10.41a5.37,5.37,0,0,0,1.94-1.53c3.89-4.88,21.85-25.84,41.52-22.91a5.54,5.54,0,0,1,4.73,4.69c.56,4.23-.27,11.49-9,19.72a14.48,14.48,0,0,1-2.11,1.63l.75-.28a15.55,15.55,0,0,0,5.19-3.26C247.15,218.13,248.08,210,247.45,205.22Z" transform="translate(-175.6 -192.67)"/><ellipse class="cls-6" cx="48.58" cy="26.41" rx="10.36" ry="7.72"/><path class="cls-7" d="M241.1,223.84a7.23,7.23,0,0,1,1.14-.58c.24.13.48.23.72.35l1.44.68,1.44.67.72.34a9.4,9.4,0,0,1,.3,1.24,8.73,8.73,0,0,1-1.15.57l-.72-.34-1.44-.67-1.44-.68c-.24-.11-.48-.24-.72-.33A6.58,6.58,0,0,1,241.1,223.84Z" transform="translate(-175.6 -192.67)"/><path class="cls-7" d="M238.77,226.54a7.3,7.3,0,0,1,1.15-.5c.21.14.43.25.64.38l1.31.74,1.3.74.65.37a8.7,8.7,0,0,1,.16,1.24,8.37,8.37,0,0,1-1.15.5l-.65-.37-1.3-.74-1.31-.74c-.22-.12-.43-.26-.65-.37A7.26,7.26,0,0,1,238.77,226.54Z" transform="translate(-175.6 -192.67)"/><path class="cls-7" d="M235.87,228.67a6.83,6.83,0,0,1,1.22-.31c.18.17.38.31.57.47l1.15.94,1.15.94.57.47a9,9,0,0,1-.05,1.24,10.29,10.29,0,0,1-1.21.31l-.58-.47-1.15-.94-1.15-.94c-.19-.15-.38-.32-.58-.46A7.94,7.94,0,0,1,235.87,228.67Z" transform="translate(-175.6 -192.67)"/><path class="cls-7" d="M232.43,230.93a7.17,7.17,0,0,1,1.24-.23c.17.18.36.34.54.52l1.09,1,1.1,1,.54.51a8.31,8.31,0,0,1-.13,1.24,9.32,9.32,0,0,1-1.23.23l-.55-.51-1.09-1-1.09-1c-.19-.17-.36-.35-.56-.5A7.46,7.46,0,0,1,232.43,230.93Z" transform="translate(-175.6 -192.67)"/><path class="cls-7" d="M228.31,232.42a7,7,0,0,1,1.29-.13c.17.2.37.38.55.58l1.12,1.14,1.13,1.15.56.57a8.89,8.89,0,0,1-.15,1.27,8.81,8.81,0,0,1-1.28.13l-.56-.57-1.12-1.15-1.13-1.14c-.19-.19-.36-.39-.57-.57A8,8,0,0,1,228.31,232.42Z" transform="translate(-175.6 -192.67)"/><path class="cls-7" d="M224.93,234.25a7.72,7.72,0,0,1,1.19-.1c.11.18.25.34.37.51l.76,1,.76,1,.38.51a8,8,0,0,1-.41,1.1,7.41,7.41,0,0,1-1.18.1l-.38-.5-.76-1-.77-1c-.13-.16-.24-.34-.38-.49A8,8,0,0,1,224.93,234.25Z" transform="translate(-175.6 -192.67)"/><path class="cls-7" d="M220.61,235.37a6.68,6.68,0,0,1,1.24.09c.12.21.26.41.38.62l.77,1.25.77,1.24.38.62a8,8,0,0,1-.47,1.15,8.87,8.87,0,0,1-1.23-.1l-.39-.62-.76-1.24-.77-1.25c-.13-.2-.25-.42-.39-.61A7,7,0,0,1,220.61,235.37Z" transform="translate(-175.6 -192.67)"/><path class="cls-7" d="M216.5,237a6.86,6.86,0,0,1,1.23.05c.1.2.24.39.36.59l.76,1.18.75,1.17.38.59a9,9,0,0,1-.46,1.13,9.25,9.25,0,0,1-1.22-.05l-.38-.59-.75-1.17-.76-1.18c-.13-.19-.24-.4-.38-.58A6.42,6.42,0,0,1,216.5,237Z" transform="translate(-175.6 -192.67)"/><path class="cls-7" d="M212.06,239.36a7.18,7.18,0,0,1,1.15-.22,5.32,5.32,0,0,0,.38.45l.77.89.77.89.38.45a7.91,7.91,0,0,1-.37,1.1,9.65,9.65,0,0,1-1.14.21l-.39-.45-.77-.89-.77-.89c-.13-.14-.25-.3-.39-.44A7.64,7.64,0,0,1,212.06,239.36Z" transform="translate(-175.6 -192.67)"/><path class="cls-7" d="M208,240.54a7.09,7.09,0,0,1,1.19-.17c.14.18.3.34.45.5l.89,1,.9,1,.44.5a8,8,0,0,1-.29,1.17,10,10,0,0,1-1.19.17l-.45-.5-.9-1-.89-1c-.16-.16-.29-.34-.46-.49A6.48,6.48,0,0,1,208,240.54Z" transform="translate(-175.6 -192.67)"/><path class="cls-7" d="M204.1,242.75a7,7,0,0,1,1.18-.27c.15.16.32.31.48.46l1,.92,1,.92.49.45a9.85,9.85,0,0,1-.2,1.19,9.27,9.27,0,0,1-1.18.27l-.48-.46-1-.92-1-.91c-.16-.15-.31-.32-.49-.46A7.9,7.9,0,0,1,204.1,242.75Z" transform="translate(-175.6 -192.67)"/><path class="cls-7" d="M200.14,244.59a7.89,7.89,0,0,1,1.23-.19c.15.19.32.35.48.53l1,1,1,1,.5.51a10.58,10.58,0,0,1-.23,1.21,8.38,8.38,0,0,1-1.22.18l-.49-.52-1-1-1-1c-.17-.17-.32-.35-.5-.51A7.93,7.93,0,0,1,200.14,244.59Z" transform="translate(-175.6 -192.67)"/><path class="cls-7" d="M196,244.54a7.44,7.44,0,0,1,1.28.4c.11.28.24.55.36.83l.74,1.63.73,1.64.37.82a9.19,9.19,0,0,1-.55,1.23,9.18,9.18,0,0,1-1.28-.41l-.36-.82-.74-1.64-.73-1.64c-.13-.27-.24-.55-.38-.81A7.66,7.66,0,0,1,196,244.54Z" transform="translate(-175.6 -192.67)"/><path class="cls-7" d="M192.56,244.54a7.56,7.56,0,0,1,1,.87c0,.29,0,.58,0,.87v4.35a9.91,9.91,0,0,1-1,.87,8.92,8.92,0,0,1-1-.87v-4.35c0-.29,0-.58,0-.87A7.56,7.56,0,0,1,192.56,244.54Z" transform="translate(-175.6 -192.67)"/><path class="cls-7" d="M189.81,244a8.76,8.76,0,0,1,.5,1.22c-.15.25-.27.5-.41.75l-.79,1.5-.79,1.5-.4.75a8.4,8.4,0,0,1-1.28.28,9.6,9.6,0,0,1-.49-1.21l.4-.75.79-1.5.79-1.5c.13-.26.28-.5.39-.76A8.28,8.28,0,0,1,189.81,244Z" transform="translate(-175.6 -192.67)"/><path class="cls-7" d="M186.46,243.23a7.65,7.65,0,0,1,.1,1.29,7.43,7.43,0,0,0-.59.53l-1.18,1.08-1.17,1.07-.59.54a7.79,7.79,0,0,1-1.26-.2,8.32,8.32,0,0,1-.09-1.27l.59-.54,1.17-1.08,1.17-1.08c.2-.18.4-.35.58-.54A8.08,8.08,0,0,1,186.46,243.23Z" transform="translate(-175.6 -192.67)"/><path class="cls-7" d="M184.49,241.71A8,8,0,0,1,184,243c-.3.1-.58.24-.87.35l-1.73.72-1.74.72-.86.36a9,9,0,0,1-1.25-.56,9.17,9.17,0,0,1,.48-1.29l.87-.36,1.73-.71,1.73-.72c.29-.13.58-.23.86-.37A7.61,7.61,0,0,1,184.49,241.71Z" transform="translate(-175.6 -192.67)"/><path class="cls-7" d="M184.12,239a9.56,9.56,0,0,1-.84,1.1c-.32,0-.63.06-.95.09l-1.88.19-1.89.2-.94.09a9,9,0,0,1-1.05-.89,10.33,10.33,0,0,1,.84-1.09l1-.1,1.88-.2,1.89-.19c.31,0,.63-.06.94-.11A7.55,7.55,0,0,1,184.12,239Z" transform="translate(-175.6 -192.67)"/><path class="cls-7" d="M183.14,236.59a8.9,8.9,0,0,1-1,1c-.32,0-.63,0-.95-.05l-1.88-.08-1.89-.08-.94,0a8.76,8.76,0,0,1-.9-1,10.94,10.94,0,0,1,1-1l.95,0,1.88.08,1.89.08c.31,0,.63,0,.94,0A8.16,8.16,0,0,1,183.14,236.59Z" transform="translate(-175.6 -192.67)"/><path class="cls-7" d="M184.4,234a7.8,7.8,0,0,1-1.13.72c-.27-.1-.56-.17-.84-.25l-1.69-.49-1.68-.49-.85-.25a10.4,10.4,0,0,1-.56-1.2,8.06,8.06,0,0,1,1.12-.72l.84.25,1.69.49,1.69.49c.28.07.56.17.85.23A8.79,8.79,0,0,1,184.4,234Z" transform="translate(-175.6 -192.67)"/><path class="cls-7" d="M186.76,231.92a7.63,7.63,0,0,1-1.17.48c-.21-.15-.44-.27-.66-.4l-1.32-.78-1.33-.78-.66-.39a10.9,10.9,0,0,1-.15-1.26,10.58,10.58,0,0,1,1.17-.47l.66.39,1.32.79,1.33.78c.22.12.43.27.66.38A7.51,7.51,0,0,1,186.76,231.92Z" transform="translate(-175.6 -192.67)"/><path class="cls-7" d="M189.31,229.71a7,7,0,0,1-1.2.37c-.19-.16-.4-.3-.6-.45l-1.2-.88-1.21-.89-.6-.44a8.58,8.58,0,0,1,0-1.25,7.19,7.19,0,0,1,1.19-.36l.6.44,1.21.88,1.2.89c.21.14.4.3.61.43A7.48,7.48,0,0,1,189.31,229.71Z" transform="translate(-175.6 -192.67)"/><path class="cls-7" d="M193,227.31a7.29,7.29,0,0,1-1.22.41c-.21-.16-.43-.29-.65-.44l-1.32-.87-1.32-.87-.65-.43a8.12,8.12,0,0,1-.11-1.27,7.76,7.76,0,0,1,1.21-.4l.65.43,1.32.87,1.32.87c.22.14.43.29.66.42A7.1,7.1,0,0,1,193,227.31Z" transform="translate(-175.6 -192.67)"/><path class="cls-7" d="M196.23,224.57a7.25,7.25,0,0,1-1.21.5c-.23-.14-.48-.26-.72-.39l-1.46-.78-1.45-.78-.73-.39a10.14,10.14,0,0,1-.26-1.27,10.14,10.14,0,0,1,1.2-.49l.73.39,1.46.78,1.45.77c.25.13.48.27.73.38A7.41,7.41,0,0,1,196.23,224.57Z" transform="translate(-175.6 -192.67)"/><path class="cls-7" d="M199.27,221.59a8.26,8.26,0,0,1-1.17.61c-.25-.13-.51-.22-.77-.33l-1.56-.65-1.56-.64-.78-.32A8.79,8.79,0,0,1,193,219a8.59,8.59,0,0,1,1.16-.6l.78.32,1.55.65,1.56.64c.26.1.52.22.78.31A6.93,6.93,0,0,1,199.27,221.59Z" transform="translate(-175.6 -192.67)"/><path class="cls-7" d="M201.75,219a7.24,7.24,0,0,1-1.24.51c-.26-.15-.53-.27-.79-.41l-1.59-.79-1.59-.79-.8-.4a10,10,0,0,1-.35-1.29,9.19,9.19,0,0,1,1.24-.5l.8.4,1.59.79,1.59.79c.27.13.53.28.8.39A7.22,7.22,0,0,1,201.75,219Z" transform="translate(-175.6 -192.67)"/><path class="cls-7" d="M204.56,215.84a7.62,7.62,0,0,1-1.21.57c-.26-.13-.53-.23-.79-.35l-1.61-.7-1.6-.7-.81-.35a10.06,10.06,0,0,1-.4-1.27,9,9,0,0,1,1.2-.56l.8.35,1.61.69,1.6.7c.27.11.53.24.81.34A7.44,7.44,0,0,1,204.56,215.84Z" transform="translate(-175.6 -192.67)"/><path class="cls-7" d="M207.32,213.68a8.83,8.83,0,0,1-1.27.41c-.24-.17-.49-.31-.74-.47l-1.49-.9-1.5-.91-.74-.46a9.09,9.09,0,0,1-.23-1.31,9.64,9.64,0,0,1,1.27-.4l.74.46,1.5.91,1.49.91c.25.14.49.31.75.44A7.89,7.89,0,0,1,207.32,213.68Z" transform="translate(-175.6 -192.67)"/><path class="cls-7" d="M209.93,210.92a7.18,7.18,0,0,1-1.26.36c-.22-.17-.47-.32-.7-.48l-1.4-1-1.4-.95-.7-.47a8.41,8.41,0,0,1-.13-1.3,8.68,8.68,0,0,1,1.26-.36l.7.48,1.4.95,1.39.94c.24.16.47.33.71.47A7.26,7.26,0,0,1,209.93,210.92Z" transform="translate(-175.6 -192.67)"/><path class="cls-7" d="M213.6,208.45a7.54,7.54,0,0,1-1.29.37c-.23-.18-.48-.33-.73-.49l-1.46-1-1.47-1-.74-.48a8.29,8.29,0,0,1-.18-1.31,8.06,8.06,0,0,1,1.28-.36l.73.48,1.47,1,1.47,1c.25.16.48.33.74.48A8,8,0,0,1,213.6,208.45Z" transform="translate(-175.6 -192.67)"/><path class="cls-7" d="M216.68,206.21a7.11,7.11,0,0,1-1.2.38c-.2-.16-.41-.3-.62-.45l-1.24-.89-1.24-.88-.62-.44a8.59,8.59,0,0,1,0-1.26,8.13,8.13,0,0,1,1.2-.37l.62.44,1.24.89,1.24.88a6.91,6.91,0,0,0,.62.44A7.31,7.31,0,0,1,216.68,206.21Z" transform="translate(-175.6 -192.67)"/><path class="cls-7" d="M220.23,204.44a7.45,7.45,0,0,1-1.24.24c-.18-.18-.38-.34-.56-.51l-1.12-1-1.13-1-.56-.51a7.05,7.05,0,0,1,.11-1.25,9.14,9.14,0,0,1,1.23-.24l.56.51,1.13,1,1.12,1c.19.17.37.35.57.5A7.41,7.41,0,0,1,220.23,204.44Z" transform="translate(-175.6 -192.67)"/><path class="cls-7" d="M223.43,202.41a8.35,8.35,0,0,1-1.19.16c-.13-.18-.28-.34-.42-.51l-.85-1-.86-1-.43-.5a8,8,0,0,1,.34-1.15,9.29,9.29,0,0,1,1.18-.15l.43.5.85,1,.86,1c.14.16.28.34.43.49A6.62,6.62,0,0,1,223.43,202.41Z" transform="translate(-175.6 -192.67)"/><path class="cls-7" d="M227.82,201.28a8.55,8.55,0,0,1-1.25,0c-.13-.21-.28-.4-.42-.6l-.85-1.2-.85-1.19-.43-.6a10.79,10.79,0,0,1,.39-1.18,10,10,0,0,1,1.24,0l.43.6.85,1.19.85,1.2c.15.19.28.4.43.59A8.09,8.09,0,0,1,227.82,201.28Z" transform="translate(-175.6 -192.67)"/><path class="cls-7" d="M231.62,199.79a6.83,6.83,0,0,1-1.21-.16c-.08-.21-.19-.41-.29-.61l-.6-1.22-.59-1.22-.3-.61a8.35,8.35,0,0,1,.6-1.05,9.45,9.45,0,0,1,1.19.17l.3.61.6,1.22.6,1.22c.1.2.19.41.31.6A8,8,0,0,1,231.62,199.79Z" transform="translate(-175.6 -192.67)"/><path class="cls-7" d="M235.51,199.1a7.33,7.33,0,0,1-1.12-.54c0-.24-.08-.48-.11-.71l-.24-1.42-.25-1.43-.12-.71a8.91,8.91,0,0,1,.87-.87,8.68,8.68,0,0,1,1.1.54l.13.71.24,1.42.24,1.42c0,.24.07.48.13.71A7.15,7.15,0,0,1,235.51,199.1Z" transform="translate(-175.6 -192.67)"/><path class="cls-7" d="M240.22,199.55a9.34,9.34,0,0,1-1.09-.76c0-.29,0-.58-.08-.86l-.17-1.72-.17-1.72-.09-.86a10,10,0,0,1,.91-1,8.84,8.84,0,0,1,1.08.76l.09.86.17,1.72.17,1.72c0,.28.05.57.1.86A8.08,8.08,0,0,1,240.22,199.55Z" transform="translate(-175.6 -192.67)"/><path class="cls-7" d="M245,201.38a8.74,8.74,0,0,1,.09-1.32c.24-.14.46-.32.69-.48l1.36-1,1.36-1,.68-.49a9,9,0,0,1,1.27.31,10.21,10.21,0,0,1-.09,1.3l-.69.5-1.36,1-1.36,1c-.22.16-.46.32-.67.5A8.53,8.53,0,0,1,245,201.38Z" transform="translate(-175.6 -192.67)"/><path class="cls-7" d="M247.37,203.79a7.8,7.8,0,0,1,.32-1.21c.24-.08.47-.19.71-.28l1.4-.56,1.4-.56.7-.28a9.72,9.72,0,0,1,1.07.64,8.12,8.12,0,0,1-.32,1.21l-.7.29-1.41.56-1.4.56c-.23.1-.47.18-.69.29A6.54,6.54,0,0,1,247.37,203.79Z" transform="translate(-175.6 -192.67)"/><path class="cls-7" d="M247.37,205.88a6.66,6.66,0,0,1,.84-1l.88,0,1.76-.09,1.77-.08.88,0a9.36,9.36,0,0,1,.93.95,8.55,8.55,0,0,1-.83,1.05l-.89,0-1.76.08-1.77.08c-.29,0-.59,0-.88.06A7.91,7.91,0,0,1,247.37,205.88Z" transform="translate(-175.6 -192.67)"/><path class="cls-7" d="M247.37,209c.32-.35.57-.65.86-.93.26,0,.53,0,.8,0l1.62,0,1.62,0h.81a9.9,9.9,0,0,1,.8,1,8.65,8.65,0,0,1-.83,1h-.82l-1.63,0-1.64,0c-.28,0-.55,0-.83,0A4.65,4.65,0,0,1,247.37,209Z" transform="translate(-175.6 -192.67)"/><path class="cls-7" d="M247.14,212a7,7,0,0,1,.92-.9c.27.05.54.06.81.1l1.62.19,1.61.18.81.1a8.38,8.38,0,0,1,.69,1.08,7.72,7.72,0,0,1-.92.9l-.81-.09-1.61-.19-1.62-.18c-.27,0-.54-.08-.81-.09A7,7,0,0,1,247.14,212Z" transform="translate(-175.6 -192.67)"/><path class="cls-7" d="M246.42,215.12a8.13,8.13,0,0,1,1-.8c.25.08.51.12.77.18l1.54.36,1.53.35.77.18a9.52,9.52,0,0,1,.55,1.15,8.33,8.33,0,0,1-1,.8l-.77-.18-1.53-.35-1.54-.36c-.26,0-.51-.13-.78-.17A9.12,9.12,0,0,1,246.42,215.12Z" transform="translate(-175.6 -192.67)"/><path class="cls-7" d="M245,217.92a8.12,8.12,0,0,1,1.06-.73c.25.1.51.16.76.24l1.52.47,1.52.47.75.23a9,9,0,0,1,.47,1.19,8.79,8.79,0,0,1-1.06.73l-.75-.24-1.52-.47-1.52-.47c-.26-.07-.51-.16-.76-.22A6.83,6.83,0,0,1,245,217.92Z" transform="translate(-175.6 -192.67)"/><path class="cls-7" d="M243.38,220.63a6.93,6.93,0,0,1,1.11-.61c.21.12.45.22.67.32l1.36.63,1.37.62.68.32a9,9,0,0,1,.26,1.22,8,8,0,0,1-1.1.59l-.68-.31-1.36-.62-1.36-.63c-.23-.1-.45-.22-.69-.3A8.79,8.79,0,0,1,243.38,220.63Z" transform="translate(-175.6 -192.67)"/><path class="cls-7" d="M243.45,200a7.45,7.45,0,0,1-.6-1.2c.13-.26.22-.54.34-.81l.66-1.65.66-1.64.33-.82a8.8,8.8,0,0,1,1.26-.44,8.86,8.86,0,0,1,.6,1.19l-.33.82-.67,1.64-.66,1.64c-.1.28-.23.55-.32.83A8.15,8.15,0,0,1,243.45,200Z" transform="translate(-175.6 -192.67)"/><path class="cls-8" d="M183.24,239.13c-.57-3,1.09-7.23,10.48-11.7a6,6,0,0,0,2.16-1.72c4.34-5.49,24.37-29.07,46.3-25.78a6.22,6.22,0,0,1,5.27,5.29c.63,4.75-.3,12.91-10,22.17a15.55,15.55,0,0,1-5.19,3.26C226,233,210,239.11,201.05,243.83a6.07,6.07,0,0,1-3.34.7l-8.92-.66A6,6,0,0,1,183.24,239.13Z" transform="translate(-175.6 -192.67)"/></svg>