<svg id="AnoBlur" xmlns="http://www.w3.org/2000/svg" viewBox="0 0 107.75 72.39"><defs><style>.cls-1,.cls-9{fill:#85b1aa;}.cls-1,.cls-3,.cls-9{stroke:#503a29;stroke-miterlimit:10;}.cls-1,.cls-3{stroke-width:2px;}.cls-2{fill:#f0f2f2;}.cls-3{fill:none;}.cls-4{fill:#9ed9cf;}.cls-5{fill:#fff;}.cls-6{fill:#fdffff;}.cls-7{fill:#eff4f3;}.cls-8{fill:#f2f4f4;}.cls-10{fill:#f7f7f7;}</style></defs><title>heartBacteria2</title><g id="Solid"><ellipse class="cls-1" cx="65.62" cy="16" rx="18.38" ry="15"/><path class="cls-2" d="M323.74,129a21.62,21.62,0,0,0-8.89-1.87c-10.15,0-18.37,6.71-18.37,15a12.33,12.33,0,0,0,.13,1.72C300.3,138.41,308.25,130.57,323.74,129Z" transform="translate(-248.88 -126.11)"/><ellipse class="cls-3" cx="65.62" cy="16" rx="18.38" ry="15"/><ellipse class="cls-4" cx="70.08" cy="14.8" rx="11.76" ry="8.31"/><ellipse class="cls-1" cx="22.76" cy="47.44" rx="21.76" ry="14.81"/><ellipse class="cls-4" cx="22.35" cy="50.44" rx="10.25" ry="6.58"/><path class="cls-5" d="M264.82,159.44c-8.68,1.95-14.94,7.51-14.94,14.07,0,4.35,2.76,8.26,7.15,11C256.29,177.24,257,166.92,264.82,159.44Z" transform="translate(-248.88 -126.11)"/><ellipse class="cls-3" cx="22.76" cy="47.44" rx="21.76" ry="14.81"/><ellipse class="cls-1" cx="47.58" cy="62.25" rx="13.08" ry="9"/><path class="cls-5" d="M284.56,191.42c2,3.28,6.64,5.59,12.1,5.59,5.13,0,9.56-2,11.7-5A35.68,35.68,0,0,1,284.56,191.42Z" transform="translate(-248.88 -126.11)"/><ellipse class="cls-3" cx="47.58" cy="62.39" rx="13.08" ry="9"/><ellipse class="cls-1" cx="89.44" cy="25.5" rx="17.31" ry="14.75"/><ellipse class="cls-4" cx="87.71" cy="24.07" rx="7.47" ry="5.38"/><path class="cls-5" d="M354.53,157.35a12.78,12.78,0,0,0,1.1-5.14c0-8.14-7.75-14.75-17.31-14.75a19.82,19.82,0,0,0-6.42,1.06C337.49,139.45,347.76,143.14,354.53,157.35Z" transform="translate(-248.88 -126.11)"/><ellipse class="cls-3" cx="89.44" cy="25.5" rx="17.31" ry="14.75"/><ellipse class="cls-4" cx="48.32" cy="62.04" rx="5.49" ry="3.1"/><ellipse class="cls-1" cx="32.11" cy="22.13" rx="30.28" ry="20.25"/><path class="cls-6" d="M250.71,148.11c0,4.27,2,8.23,5.37,11.5,1.74-6,7.27-15.83,21.55-31.63C262.49,129.1,250.71,137.68,250.71,148.11Z" transform="translate(-248.88 -126.11)"/><ellipse class="cls-3" cx="32.11" cy="22.13" rx="30.28" ry="20.25"/><ellipse class="cls-4" cx="36.41" cy="16.77" rx="13.47" ry="6.94"/><ellipse class="cls-1" cx="302.72" cy="162.32" rx="24.83" ry="37" transform="translate(-118.42 333.39) rotate(-88.1)"/><path class="cls-7" d="M280.33,142.11c-8.24,3.89-13.93,11.71-14.16,21-.24,10.27,6.55,15.33,16.08,19.54C278.5,173.76,272.61,159.48,280.33,142.11Z" transform="translate(-248.88 -126.11)"/><ellipse class="cls-3" cx="302.7" cy="163.05" rx="24.83" ry="37" transform="matrix(0.03, -1, 1, 0.03, -119.17, 334.07)"/><ellipse class="cls-4" cx="65.51" cy="35.63" rx="19.92" ry="13.28"/><ellipse class="cls-1" cx="74.19" cy="41.23" rx="30.06" ry="21.02"/><path class="cls-8" d="M320.62,147.36c-15.08,1.13-26.83,10-26.83,20.9a15.84,15.84,0,0,0,2.79,8.84C297.84,169.5,303.4,159,320.62,147.36Z" transform="translate(-248.88 -126.11)"/><ellipse class="cls-3" cx="74.31" cy="41.38" rx="30.06" ry="21.02"/><ellipse class="cls-4" cx="85.05" cy="41.23" rx="15.69" ry="10.31"/><ellipse class="cls-9" cx="42.11" cy="37.38" rx="16.99" ry="11.54"/><path class="cls-10" d="M289,152.46a.24.24,0,0,0-.12-.45c-8.5.63-15.13,5.51-15.13,11.45a8.87,8.87,0,0,0,2.27,5.74.23.23,0,0,0,.41-.12C277.1,164.45,279.65,157,289,152.46Z" transform="translate(-248.88 -126.11)"/><ellipse class="cls-3" cx="41.62" cy="37.38" rx="16.99" ry="11.54"/><ellipse class="cls-4" cx="290.41" cy="162.64" rx="4.97" ry="8.89" transform="translate(-130.64 321.4) rotate(-88.1)"/></g></svg>