<svg xmlns="http://www.w3.org/2000/svg" viewBox="0 0 137.43 92.82"><defs><style>.cls-1{fill:#6d9793;}.cls-2{fill:#7db1af;}.cls-3{fill:#f9f9f9;}.cls-4{fill:none;stroke:#4d3a1d;stroke-miterlimit:10;}</style></defs><title>heartBacteria</title><g id="OutLine"><path class="cls-1" d="M219.3,94.05a5.61,5.61,0,0,0-4.85,2.81h-.08l-15,.75a23.54,23.54,0,0,0-1.92-6.14l12.82-3.2c1.65-.41,2.8-1.48,2.57-2.39s-1.74-1.31-3.39-.9L195.8,88.4a27.69,27.69,0,0,0-2-2.68l10-4.24.06,0a4.5,4.5,0,0,0,5,.62c2.31-1,3.59-3.18,2.85-4.9s-3.19-2.31-5.5-1.33a4.73,4.73,0,0,0-3,3.61l-.06,0-10.76,4.58a36.4,36.4,0,0,0-5.35-4.6l12.26-8c1.71-1.11,2.68-2.65,2.16-3.43s-2.3-.53-4,.58L183.9,77.45a48.7,48.7,0,0,0-5.21-2.61L184,66.43l0-.05a4.09,4.09,0,0,0,4.45-1.95,3.69,3.69,0,1,0-6.21-3.88,4.17,4.17,0,0,0-.09,4.49l0,0L176.54,74a53.37,53.37,0,0,0-7.18-2.08l.46-6.14v0c2.39-.23,4.25-1.51,4.37-3.19.15-2-2.19-3.82-5.22-4s-5.61,1.22-5.76,3.22c-.11,1.53,1.22,2.94,3.21,3.62v.06L166,71.28a58.73,58.73,0,0,0-9-.7c-1.35,0-2.68.06-4,.14l-1.09-10.46c-.17-1.6-1.27-2.81-2.45-2.68s-2,1.52-1.84,3.13l1.1,10.46a56.38,56.38,0,0,0-9,2l-6.64-11.87,0-.06c1.9-1.7,2.57-4.24,1.46-6.21-1.32-2.33-4.64-2.95-7.42-1.38s-3.95,4.73-2.63,7.07a4.94,4.94,0,0,0,5.38,2.13l0,.06,6.42,11.48a48.62,48.62,0,0,0-4.61,2.12l-11-9.61c-1.38-1.21-3-1.62-3.62-.91s0,2.26,1.39,3.47l10.12,8.85a38.74,38.74,0,0,0-5,3.78l-.1-.08-13.47-7h0A4.15,4.15,0,0,1,107.83,72c-.11-.8-.6-1.51-2.15-2.31a10.31,10.31,0,0,0-2.53-.91c-3.79,1.15-3.67,4.41-3.41,5.86.2.19.4.38.62.56a9.85,9.85,0,0,0,1.85,1.21c1.2.62,1.71.66,2.1.44a3.64,3.64,0,0,1,3.34-.24l.93.42.21.1,13,6.7a31,31,0,0,0-3.62,4.56l-15.68-5.43c-2.11-.72-4.44-.55-5.21.39s.31,2.3,2.41,3l16.49,5.71a22.88,22.88,0,0,0-1.75,6.22l-14.14-.1h-.09c-.66-1.78-3-3.1-5.72-3.13-3.28,0-6,1.8-6,4.07s2.63,4.13,5.91,4.16c2.51,0,4.65-1,5.54-2.55H100l14.19.11c0,.11,0,.22,0,.33a22.21,22.21,0,0,0,1.06,6.75l-15.18,1.59c-2.17.23-3.81,1.15-3.67,2s2,1.46,4.18,1.23l15.93-1.67a26.8,26.8,0,0,0,2,3.46l-13.75,6.28c-2,.92-3.59,2.66-3.5,3.87s1.81,1.46,3.84.53l16.08-7.34a36,36,0,0,0,6.58,5.58l-4.48,5.76c-1.18,1.52-1.68,3.47-1.11,4.36s2,.38,3.17-1.14l5.52-7.09a50.16,50.16,0,0,0,13.37,5l-1.34,3.6,0,.07a5.29,5.29,0,0,0-5.16,3.6,5.1,5.1,0,0,0,2.62,6.69c2.47.92,5.31-.59,6.34-3.36a5.37,5.37,0,0,0-1.09-5.71l0-.07,1.58-4.26a59.26,59.26,0,0,0,18.45.17l.41,1.6,0,.07a4.72,4.72,0,1,0,2.9-.56l0-.07-.39-1.55a53.37,53.37,0,0,0,9.19-2.73l9.71,7.77c1.48,1.19,3.4,1.71,4.29,1.18s.41-1.93-1.07-3.12l-9.32-7.46a41.6,41.6,0,0,0,7.91-5.1l9.41,6.1c1.64,1.07,3.68,1.41,4.54.76s.22-2-1.42-3.1l-9.75-6.32a28.89,28.89,0,0,0,4.92-6.69l12,4.21.08,0c.11,1.45,1.71,3.06,4,3.87,2.74,1,5.42.43,6-1.19s-1.2-3.7-3.94-4.66c-2.09-.74-4.14-.6-5.25.22l-.08,0-12-4.21a22.57,22.57,0,0,0,1.88-9c0-.36,0-.71,0-1.07l14.64-.73h.08c.7,1.69,2.86,2.85,5.36,2.71,3-.17,5.29-2.1,5.16-4.32S222.28,93.88,219.3,94.05Z" transform="translate(-87.99 -52.29)"/><path class="cls-1" d="M155.67,117c0-2.85-3.12-5.16-6.95-5.16s-6.95,2.31-6.95,5.16a4.07,4.07,0,0,0,.64,2.16,48.18,48.18,0,0,0,9.16.87c1,0,1.91,0,2.86-.09A4.29,4.29,0,0,0,155.67,117Z" transform="translate(-87.99 -52.29)"/><path class="cls-1" d="M134.84,105.19c0-3.14-3.39-5.69-7.58-5.69-3.14,0-5.83,1.43-7,3.46a18.11,18.11,0,0,0,4.68,7.65,10.15,10.15,0,0,0,2.31.27C131.45,110.88,134.84,108.33,134.84,105.19Z" transform="translate(-87.99 -52.29)"/><path class="cls-1" d="M124.11,95.42a3.43,3.43,0,1,0,0-6.82,3.94,3.94,0,0,0-.77.08,18.91,18.91,0,0,0-2.67,4.78A3.87,3.87,0,0,0,124.11,95.42Z" transform="translate(-87.99 -52.29)"/><path class="cls-1" d="M176.8,84.71a3.59,3.59,0,0,0,2.94-1.52,30.1,30.1,0,0,0-6.11-3.8,3.54,3.54,0,0,0-.45,1.71A3.62,3.62,0,0,0,176.8,84.71Z" transform="translate(-87.99 -52.29)"/><path class="cls-2" d="M173.88,100.4c0-3,3.39-5.4,7.57-5.4a9.23,9.23,0,0,1,5.37,1.6c0-5.18-2.65-9.81-7.08-13.41a3.61,3.61,0,0,1-6.56-2.09,3.54,3.54,0,0,1,.45-1.71,45.08,45.08,0,0,0-21.44-3.81c-12.73.68-23.48,6-28.85,13.1a3.94,3.94,0,0,1,.77-.08,3.43,3.43,0,1,1,0,6.82,3.87,3.87,0,0,1-3.44-2,15.25,15.25,0,0,0-1,5.41,14.77,14.77,0,0,0,.6,4.09c1.16-2,3.85-3.46,7-3.46,4.19,0,7.58,2.55,7.58,5.69s-3.39,5.69-7.58,5.69a10.15,10.15,0,0,1-2.31-.27c4,4.06,10.17,7.13,17.46,8.54a4.07,4.07,0,0,1-.64-2.16c0-2.85,3.11-5.16,6.95-5.16s6.95,2.31,6.95,5.16a4.29,4.29,0,0,1-1.24,2.94c13.22-.73,24.76-6.52,29.76-14.51a10.08,10.08,0,0,1-2.74.37C177.27,105.79,173.88,103.38,173.88,100.4Z" transform="translate(-87.99 -52.29)"/><circle class="cls-1" cx="68.45" cy="52.25" r="3.21"/><path class="cls-1" d="M186.82,96.6a9.23,9.23,0,0,0-5.37-1.6c-4.18,0-7.57,2.42-7.57,5.4s3.39,5.39,7.57,5.39a10.08,10.08,0,0,0,2.74-.37,16.67,16.67,0,0,0,2.64-8.35C186.83,96.91,186.83,96.76,186.82,96.6Z" transform="translate(-87.99 -52.29)"/><path class="cls-3" d="M101.6,76.17s-1-7.63,3.87-6.46c0,0-4.22-1.58-5.68,1.4C99.79,71.11,98.74,73.19,101.6,76.17Z" transform="translate(-87.99 -52.29)"/><path class="cls-3" d="M117.6,68.57s-1-2.75,1.88-2.48c0,0-1.6-.94-2.42-.09C117.06,66,116.22,66.78,117.6,68.57Z" transform="translate(-87.99 -52.29)"/><path class="cls-3" d="M125.81,62.18s2-9,6.57-9c0,0-4.53-2.05-7.82,3A4.48,4.48,0,0,0,125.81,62.18Z" transform="translate(-87.99 -52.29)"/><path class="cls-3" d="M147.56,60.36s2.28-2.25,4-1.31c0,0-.87-1.84-2.35-1.43C149.19,57.62,147.56,58,147.56,60.36Z" transform="translate(-87.99 -52.29)"/><path class="cls-3" d="M163.54,60.65s9.19-1,9.45,3.92c0,0,3.64-3-1.83-5.61,0,0-4-1.58-7,.92Z" transform="translate(-87.99 -52.29)"/><path class="cls-3" d="M182.14,60.69s6.05-1.95,7,.83a3.43,3.43,0,0,0-3.88-3A4.17,4.17,0,0,0,182.14,60.69Z" transform="translate(-87.99 -52.29)"/><path class="cls-3" d="M198.79,68.16s2.38-.23,2.05,2c0,0,.86-1,.34-1.88C201.18,68.28,200.52,67.5,198.79,68.16Z" transform="translate(-87.99 -52.29)"/><path class="cls-3" d="M208.31,75.37s1.55,6.08-.95,7.12c0,0,4.4-.56,4.58-4.49C211.94,78,211.87,75.37,208.31,75.37Z" transform="translate(-87.99 -52.29)"/><path class="cls-3" d="M211.17,84.84l-2.34,3.81s5.17-1,3.88-3.13A2.75,2.75,0,0,0,211.17,84.84Z" transform="translate(-87.99 -52.29)"/><path class="cls-3" d="M219.44,94.05s3.38,4.72,1.19,7.93c0,0,5.06-.92,4.15-5C224.78,97,223.62,93.87,219.44,94.05Z" transform="translate(-87.99 -52.29)"/><path class="cls-3" d="M216.79,114.92c-1.7-1.71,1,5.32-2.88,5.32,0,0,3.91,1.09,5.19-1.43C219.1,118.81,219.86,116.75,216.79,114.92Z" transform="translate(-87.99 -52.29)"/><path class="cls-3" d="M199.47,127.67s3.39-1.06,2.36-2.77c0,0,2.32,1.41,1.65,2.86C203.48,127.76,202.58,129.08,199.47,127.67Z" transform="translate(-87.99 -52.29)"/><path class="cls-3" d="M188.1,136.08s2.94.48,2.61-2.38c0,0,2.66,2.26.9,3.2C191.61,136.9,190.33,137.5,188.1,136.08Z" transform="translate(-87.99 -52.29)"/><path class="cls-3" d="M164.2,139.1c0,2.59,7.15-3.82,8.9-2.07a5,5,0,0,1-4,4.41A4.79,4.79,0,0,1,164.2,139.1Z" transform="translate(-87.99 -52.29)"/><path class="cls-3" d="M146.33,141.79c-.66,1.83-7.09-4.64-8.91-2.82a5,5,0,0,0,3.19,5.45A5.15,5.15,0,0,0,146.33,141.79Z" transform="translate(-87.99 -52.29)"/><path class="cls-3" d="M122.69,130.48s-1,3.77,2,2.72c0,0-1.28,1.21-2.2.16A3.4,3.4,0,0,1,122.69,130.48Z" transform="translate(-87.99 -52.29)"/><path class="cls-3" d="M102,123s1.88,2.51,4.54,1.64c0,0-3.5,1.88-4.77,1C101.78,125.56,100.54,124.85,102,123Z" transform="translate(-87.99 -52.29)"/><path class="cls-3" d="M97.71,110.12c-.86.26,3.66,2.72,1.66,2.72,0,0-2.44-.06-2.9-1.1C96.47,111.74,96,111,97.71,110.12Z" transform="translate(-87.99 -52.29)"/><path class="cls-3" d="M88.41,99.08c.29,3.26,4.25,4,4.25,4-4.88-2.62-.71-7.66-.71-7.66A4.74,4.74,0,0,0,88.41,99.08Z" transform="translate(-87.99 -52.29)"/><path class="cls-3" d="M100.31,82.5s1.85,2.68-1.36,3.56c0,0-2.31-1-1.87-2.42C97.08,83.64,97.55,82.39,100.31,82.5Z" transform="translate(-87.99 -52.29)"/><path class="cls-4" d="M219.3,94.05a5.61,5.61,0,0,0-4.85,2.81h-.08l-15,.75a23.54,23.54,0,0,0-1.92-6.14l12.82-3.2c1.65-.41,2.8-1.48,2.57-2.39s-1.74-1.31-3.39-.9L195.8,88.4a27.69,27.69,0,0,0-2-2.68l10-4.24.06,0a4.5,4.5,0,0,0,5,.62c2.31-1,3.59-3.18,2.85-4.9s-3.19-2.31-5.5-1.33a4.73,4.73,0,0,0-3,3.61l-.06,0-10.76,4.58a36.4,36.4,0,0,0-5.35-4.6l12.26-8c1.71-1.11,2.68-2.65,2.16-3.43s-2.3-.53-4,.58L183.9,77.45a48.7,48.7,0,0,0-5.21-2.61L184,66.43l0-.05a4.09,4.09,0,0,0,4.45-1.95,3.69,3.69,0,1,0-6.21-3.88,4.17,4.17,0,0,0-.09,4.49l0,0L176.54,74a53.37,53.37,0,0,0-7.18-2.08l.46-6.14v0c2.39-.23,4.25-1.51,4.37-3.19.15-2-2.19-3.82-5.22-4s-5.61,1.22-5.76,3.22c-.11,1.53,1.22,2.94,3.21,3.62v.06L166,71.28a58.73,58.73,0,0,0-9-.7c-1.35,0-2.68.06-4,.14l-1.09-10.46c-.17-1.6-1.27-2.81-2.45-2.68s-2,1.52-1.84,3.13l1.1,10.46a56.38,56.38,0,0,0-9,2l-6.64-11.87,0-.06c1.9-1.7,2.57-4.24,1.46-6.21-1.32-2.33-4.64-2.95-7.42-1.38s-3.95,4.73-2.63,7.07a4.94,4.94,0,0,0,5.38,2.13l0,.06,6.42,11.48a48.62,48.62,0,0,0-4.61,2.12l-11-9.61c-1.38-1.21-3-1.62-3.62-.91s0,2.26,1.39,3.47l10.12,8.85a38.74,38.74,0,0,0-5,3.78l-.1-.08-13.47-7h0A4.15,4.15,0,0,1,107.83,72c-.11-.8-.6-1.51-2.15-2.31a10.31,10.31,0,0,0-2.53-.91c-3.79,1.15-3.67,4.41-3.41,5.86.2.19.4.38.62.56a9.85,9.85,0,0,0,1.85,1.21c1.2.62,1.71.66,2.1.44a3.64,3.64,0,0,1,3.34-.24l.93.42.21.1,13,6.7a31,31,0,0,0-3.62,4.56l-15.68-5.43c-2.11-.72-4.44-.55-5.21.39s.31,2.3,2.41,3l16.49,5.71a22.88,22.88,0,0,0-1.75,6.22l-14.14-.1h-.09c-.66-1.78-3-3.1-5.72-3.13-3.28,0-6,1.8-6,4.07s2.63,4.13,5.91,4.16c2.51,0,4.65-1,5.54-2.55H100l14.19.11c0,.11,0,.22,0,.33a22.21,22.21,0,0,0,1.06,6.75l-15.18,1.59c-2.17.23-3.81,1.15-3.67,2s2,1.46,4.18,1.23l15.93-1.67a26.8,26.8,0,0,0,2,3.46l-13.75,6.28c-2,.92-3.59,2.66-3.5,3.87s1.81,1.46,3.84.53l16.08-7.34a36,36,0,0,0,6.58,5.58l-4.48,5.76c-1.18,1.52-1.68,3.47-1.11,4.36s2,.38,3.17-1.14l5.52-7.09a50.16,50.16,0,0,0,13.37,5l-1.34,3.6,0,.07a5.29,5.29,0,0,0-5.16,3.6,5.1,5.1,0,0,0,2.62,6.69c2.47.92,5.31-.59,6.34-3.36a5.37,5.37,0,0,0-1.09-5.71l0-.07,1.58-4.26a59.26,59.26,0,0,0,18.45.17l.41,1.6,0,.07a4.72,4.72,0,1,0,2.9-.56l0-.07-.39-1.55a53.37,53.37,0,0,0,9.19-2.73l9.71,7.77c1.48,1.19,3.4,1.71,4.29,1.18s.41-1.93-1.07-3.12l-9.32-7.46a41.6,41.6,0,0,0,7.91-5.1l9.41,6.1c1.64,1.07,3.68,1.41,4.54.76s.22-2-1.42-3.1l-9.75-6.32a28.89,28.89,0,0,0,4.92-6.69l12,4.21.08,0c.11,1.45,1.71,3.06,4,3.87,2.74,1,5.42.43,6-1.19s-1.2-3.7-3.94-4.66c-2.09-.74-4.14-.6-5.25.22l-.08,0-12-4.21a22.57,22.57,0,0,0,1.88-9c0-.36,0-.71,0-1.07l14.64-.73h.08c.7,1.69,2.86,2.85,5.36,2.71,3-.17,5.29-2.1,5.16-4.32S222.28,93.88,219.3,94.05Z" transform="translate(-87.99 -52.29)"/></g></svg>