<svg id="Layer_1" data-name="Layer 1" xmlns="http://www.w3.org/2000/svg" viewBox="0 0 249.56 190.94"><defs><style>.cls-1{fill:#a00a2e;}.cls-2,.cls-3{fill:#fff;}.cls-2{opacity:0.51;}.cls-3{opacity:0.54;}</style></defs><title>HeartMeter</title><path class="cls-1" d="M635.52,621.94S513.81,548.85,511.67,503c0,0-8.29-42.54,33.44-65,0,0,46.27-26.66,90.41,24,0,0,39.32-50.33,93.35-21.87,0,0,47.88,25.46,25.94,78.49C754.81,518.6,740.1,557.24,635.52,621.94Z" transform="translate(-511 -431)"/><path class="cls-2" d="M517.08,486.34s6.67-44.7,66.72-36.82a5.33,5.33,0,0,0,2.41-.22c2.77-.93,8.81-3.61,4.43-8.15a9.33,9.33,0,0,0-6.67-2.77C571.17,438.24,523.6,440.82,517.08,486.34Z" transform="translate(-511 -431)"/><circle class="cls-2" cx="91.75" cy="22.91" r="4.98"/><path class="cls-3" d="M705,438.37s46.68.21,52.43,51.73C757.47,490.1,747.52,446.57,705,438.37Z" transform="translate(-511 -431)"/></svg>