<svg id="redEnemy" xmlns="http://www.w3.org/2000/svg" viewBox="0 0 78.83 58.83"><defs><style>.cls-1{fill:#873c33;}.cls-2{fill:#bc493d;}.cls-3{fill:#f7fffc;}.cls-4{fill:#d36b2e;}.cls-5{fill:#fdfffd;}.cls-6,.cls-8{fill:none;stroke-miterlimit:10;}.cls-6{stroke:#5c4233;}.cls-7{fill:#3e3123;}.cls-8{stroke:#503a29;stroke-width:2px;}</style></defs><title>heartBacteria3</title><g id="body"><path class="cls-1" d="M242.74,209.41a5.54,5.54,0,0,0-4.73-4.69c-19.67-2.93-37.63,18-41.52,22.91a5.37,5.37,0,0,1-1.94,1.53c-8.42,4-9.91,7.73-9.4,10.41a5.39,5.39,0,0,0,5,4.2l8,.6a6.12,6.12,0,0,0,3.08-.71c8.63-4.54,23.72-10.38,30.42-12.9a14.48,14.48,0,0,0,2.11-1.63C242.47,220.9,243.3,213.64,242.74,209.41Z" transform="translate(-175.75 -192.5)"/><g id="SolidColor"><ellipse class="cls-2" cx="33.77" cy="33.36" rx="4.23" ry="2.64"/><ellipse class="cls-2" cx="24.95" cy="39.89" rx="2.7" ry="2.2"/><ellipse class="cls-2" cx="36.96" cy="24.2" rx="2.94" ry="2.2"/><ellipse class="cls-2" cx="224.56" cy="210.54" rx="1.78" ry="2.26" transform="translate(-177.23 226.99) rotate(-85.9)"/><ellipse class="cls-2" cx="20.38" cy="47.47" rx="2.94" ry="2.2"/><ellipse class="cls-2" cx="15.09" cy="43.69" rx="2.13" ry="1.59"/><ellipse class="cls-2" cx="32.28" cy="43.08" rx="2.27" ry="1.7"/><ellipse class="cls-2" cx="46.69" cy="36.84" rx="2.94" ry="2.2"/><ellipse class="cls-2" cx="61.01" cy="15.78" rx="3.8" ry="2.91"/><ellipse class="cls-2" cx="61.21" cy="24.66" rx="2.94" ry="2.2"/></g><path class="cls-3" d="M224.56,211.69c-5.59,0-10.12,3.2-10.12,7.15,0,.18,0,.35,0,.52.38-3.14,4.09-5.61,8.63-5.61,4.79,0,8.67,2.74,8.67,6.13,0,3.2-3.49,5.83-7.94,6.09.24,0,.49,0,.73,0,5.59,0,10.13-3.2,10.13-7.16S230.15,211.69,224.56,211.69Z" transform="translate(-175.75 -192.5)"/><path class="cls-4" d="M214.47,219.36a4.41,4.41,0,0,0,0,.52c0,3.38,3.88,6.12,8.66,6.12.25,0,.49,0,.73,0C218.82,225.72,214.83,222.9,214.47,219.36Z" transform="translate(-175.75 -192.5)"/><path class="cls-4" d="M231.77,219.88c0-3.39-3.88-6.13-8.67-6.13-4.54,0-8.25,2.47-8.63,5.61.36,3.54,4.35,6.36,9.36,6.61C228.28,225.71,231.77,223.08,231.77,219.88Z" transform="translate(-175.75 -192.5)"/><path class="cls-1" d="M198.12,244.37h0a5.6,5.6,0,0,0,3-.63c8-4.19,22.33-9.63,28-11.72a14,14,0,0,0,2.54-1.26c-6.7,2.52-21.79,8.36-30.42,12.9A6.12,6.12,0,0,1,198.12,244.37Z" transform="translate(-175.75 -192.5)"/><path class="cls-5" d="M247.6,205.05a6.22,6.22,0,0,0-5.27-5.29c-21.93-3.29-42,20.29-46.3,25.78a6.13,6.13,0,0,1-2.16,1.72c-9.39,4.48-11.05,8.69-10.48,11.7a6,6,0,0,0,5.55,4.74l8.92.66h.26l-8-.6a5.39,5.39,0,0,1-5-4.2c-.51-2.68,1-6.43,9.4-10.41a5.37,5.37,0,0,0,1.94-1.53c3.89-4.88,21.85-25.84,41.52-22.91a5.54,5.54,0,0,1,4.73,4.69c.56,4.23-.27,11.49-9,19.72a14.48,14.48,0,0,1-2.11,1.63l.75-.28a15.55,15.55,0,0,0,5.19-3.26C247.3,218,248.23,209.8,247.6,205.05Z" transform="translate(-175.75 -192.5)"/><ellipse class="cls-6" cx="48.58" cy="26.41" rx="10.36" ry="7.72"/></g><g id="outLine"><path class="cls-7" d="M241.24,223.67a7.75,7.75,0,0,1,1.15-.58c.24.13.48.23.72.35l1.44.68,1.44.67.72.34a9.19,9.19,0,0,1,.3,1.25,8.6,8.6,0,0,1-1.15.56l-.72-.34-1.44-.67-1.44-.68c-.24-.11-.48-.24-.72-.33A7.41,7.41,0,0,1,241.24,223.67Z" transform="translate(-175.75 -192.5)"/><path class="cls-7" d="M238.92,226.38a6.57,6.57,0,0,1,1.15-.51c.21.14.43.25.64.38L242,227l1.3.74.65.37a8.7,8.7,0,0,1,.16,1.24,8.37,8.37,0,0,1-1.15.5l-.65-.37-1.3-.74-1.31-.74c-.22-.12-.43-.26-.65-.37A7.26,7.26,0,0,1,238.92,226.38Z" transform="translate(-175.75 -192.5)"/><path class="cls-7" d="M236,228.5a6.83,6.83,0,0,1,1.22-.31c.18.17.38.31.57.47l1.15.94,1.15.94.57.47a9,9,0,0,1-.05,1.24,10.29,10.29,0,0,1-1.21.31l-.58-.47-1.15-.94-1.15-.94c-.19-.15-.38-.32-.58-.46A7.94,7.94,0,0,1,236,228.5Z" transform="translate(-175.75 -192.5)"/><path class="cls-7" d="M232.58,230.76a7.17,7.17,0,0,1,1.24-.23c.17.18.36.34.54.52l1.09,1,1.1,1,.54.51a8.31,8.31,0,0,1-.13,1.24,9.32,9.32,0,0,1-1.23.23l-.55-.51-1.09-1-1.09-1c-.19-.17-.36-.35-.56-.5A7.46,7.46,0,0,1,232.58,230.76Z" transform="translate(-175.75 -192.5)"/><path class="cls-7" d="M228.46,232.25a7,7,0,0,1,1.29-.13c.17.2.37.38.55.58l1.12,1.14,1.13,1.15.56.57a8.89,8.89,0,0,1-.15,1.27,8.81,8.81,0,0,1-1.28.13l-.56-.57L230,235.24l-1.13-1.14c-.19-.19-.36-.39-.57-.57A8,8,0,0,1,228.46,232.25Z" transform="translate(-175.75 -192.5)"/><path class="cls-7" d="M225.08,234.08a7.72,7.72,0,0,1,1.19-.1c.11.18.25.34.37.51l.76,1,.76,1,.38.51a8.59,8.59,0,0,1-.41,1.11,8.67,8.67,0,0,1-1.18.09l-.38-.5-.76-1-.77-1c-.13-.17-.24-.35-.38-.5A8,8,0,0,1,225.08,234.08Z" transform="translate(-175.75 -192.5)"/><path class="cls-7" d="M220.76,235.2a6.68,6.68,0,0,1,1.24.09c.12.21.26.41.38.62l.77,1.25.77,1.24.38.62a8,8,0,0,1-.47,1.15,8.87,8.87,0,0,1-1.23-.1l-.39-.62-.76-1.24-.77-1.25c-.13-.2-.25-.41-.39-.61A7,7,0,0,1,220.76,235.2Z" transform="translate(-175.75 -192.5)"/><path class="cls-7" d="M216.65,236.83a6.86,6.86,0,0,1,1.23,0c.1.2.24.39.36.59l.76,1.18.75,1.17.38.59a9,9,0,0,1-.46,1.13,9.25,9.25,0,0,1-1.22,0l-.38-.59-.75-1.17-.76-1.18c-.13-.19-.24-.4-.38-.58A6.42,6.42,0,0,1,216.65,236.83Z" transform="translate(-175.75 -192.5)"/><path class="cls-7" d="M212.21,239.19a7.18,7.18,0,0,1,1.15-.22,5.32,5.32,0,0,0,.38.45l.77.89.77.89.38.45a7.91,7.91,0,0,1-.37,1.1,9.65,9.65,0,0,1-1.14.21l-.39-.45-.77-.89-.77-.89c-.13-.14-.25-.3-.39-.44A7.64,7.64,0,0,1,212.21,239.19Z" transform="translate(-175.75 -192.5)"/><path class="cls-7" d="M208.13,240.38a6.26,6.26,0,0,1,1.19-.18c.14.18.3.34.44.5l.9,1,.9,1,.44.5a8,8,0,0,1-.29,1.17,10,10,0,0,1-1.19.17l-.45-.5-.9-1-.89-1c-.16-.16-.29-.34-.46-.49A6.2,6.2,0,0,1,208.13,240.38Z" transform="translate(-175.75 -192.5)"/><path class="cls-7" d="M204.25,242.58a7,7,0,0,1,1.18-.27c.15.17.32.31.48.46l1,.92,1,.92.49.46a10,10,0,0,1-.2,1.18,9.27,9.27,0,0,1-1.18.27l-.48-.46-1-.92-1-.91a5.23,5.23,0,0,0-.49-.45A7.8,7.8,0,0,1,204.25,242.58Z" transform="translate(-175.75 -192.5)"/><path class="cls-7" d="M200.29,244.42a7.89,7.89,0,0,1,1.23-.19c.15.19.32.35.48.53l1,1,1,1,.5.51a10.58,10.58,0,0,1-.23,1.21,8.38,8.38,0,0,1-1.22.18l-.49-.52-1-1-1-1c-.17-.17-.32-.35-.5-.51A7.93,7.93,0,0,1,200.29,244.42Z" transform="translate(-175.75 -192.5)"/><path class="cls-7" d="M196.13,244.37a7.44,7.44,0,0,1,1.28.4c.11.28.24.55.36.83l.74,1.63.73,1.64.37.82a9.19,9.19,0,0,1-.55,1.23,9.18,9.18,0,0,1-1.28-.41l-.36-.82-.74-1.64-.73-1.63c-.13-.28-.24-.55-.38-.82A7.66,7.66,0,0,1,196.13,244.37Z" transform="translate(-175.75 -192.5)"/><path class="cls-7" d="M192.71,244.37a7.56,7.56,0,0,1,1,.87c0,.29,0,.58,0,.87v4.35a9.91,9.91,0,0,1-1,.87,8.92,8.92,0,0,1-1-.87v-4.35c0-.29,0-.58,0-.87A7.56,7.56,0,0,1,192.71,244.37Z" transform="translate(-175.75 -192.5)"/><path class="cls-7" d="M190,243.83a10.19,10.19,0,0,1,.5,1.22c-.15.25-.27.5-.41.75l-.79,1.5-.79,1.5-.4.75a8.4,8.4,0,0,1-1.28.28,9.6,9.6,0,0,1-.49-1.21l.4-.75.79-1.5.79-1.5c.13-.26.27-.5.39-.76A8,8,0,0,1,190,243.83Z" transform="translate(-175.75 -192.5)"/><path class="cls-7" d="M186.61,243.06a7.65,7.65,0,0,1,.1,1.29,7.43,7.43,0,0,0-.59.53L184.94,246,183.77,247l-.59.54a9,9,0,0,1-1.26-.19,8.54,8.54,0,0,1-.09-1.28l.58-.54,1.18-1.08,1.17-1.07c.2-.19.4-.36.58-.55A8.08,8.08,0,0,1,186.61,243.06Z" transform="translate(-175.75 -192.5)"/><path class="cls-7" d="M184.64,241.54a8,8,0,0,1-.48,1.29c-.3.11-.58.24-.87.35l-1.73.72-1.74.72L179,245a9,9,0,0,1-1.25-.56,9.17,9.17,0,0,1,.48-1.29l.87-.36,1.73-.71,1.73-.72c.29-.13.58-.23.86-.37A7.61,7.61,0,0,1,184.64,241.54Z" transform="translate(-175.75 -192.5)"/><path class="cls-7" d="M184.27,238.8a9.56,9.56,0,0,1-.84,1.1c-.32,0-.63.06-1,.09l-1.88.19-1.89.2-.94.1a10.31,10.31,0,0,1-1.05-.9,10.33,10.33,0,0,1,.84-1.09l.95-.1,1.88-.2,1.89-.19c.31,0,.63-.06.94-.11A7.55,7.55,0,0,1,184.27,238.8Z" transform="translate(-175.75 -192.5)"/><path class="cls-7" d="M183.29,236.42a8.9,8.9,0,0,1-1,1c-.32,0-.63,0-.95,0l-1.88-.08-1.89-.08-.94,0a8.76,8.76,0,0,1-.9-1,10.94,10.94,0,0,1,1-1l1,0,1.88.08,1.89.08c.31,0,.63,0,.94,0A8.16,8.16,0,0,1,183.29,236.42Z" transform="translate(-175.75 -192.5)"/><path class="cls-7" d="M184.55,233.78a7.8,7.8,0,0,1-1.13.72c-.27-.1-.56-.17-.84-.25l-1.69-.49-1.68-.49-.85-.25a10.4,10.4,0,0,1-.56-1.2,8.06,8.06,0,0,1,1.12-.72l.84.25,1.69.49,1.69.49c.28.07.56.17.84.23A7.74,7.74,0,0,1,184.55,233.78Z" transform="translate(-175.75 -192.5)"/><path class="cls-7" d="M186.91,231.75a7.63,7.63,0,0,1-1.17.48c-.21-.15-.44-.27-.66-.4l-1.32-.78-1.33-.78-.66-.39a11,11,0,0,1-.15-1.25,9.06,9.06,0,0,1,1.17-.48l.66.4,1.32.78,1.33.78c.22.12.43.27.66.38A7.51,7.51,0,0,1,186.91,231.75Z" transform="translate(-175.75 -192.5)"/><path class="cls-7" d="M189.46,229.54a7,7,0,0,1-1.2.37c-.19-.16-.4-.3-.6-.45l-1.2-.88-1.21-.89-.6-.44a8.58,8.58,0,0,1,0-1.25,7.19,7.19,0,0,1,1.19-.36l.6.44,1.21.88,1.2.89c.21.14.4.3.61.43A7.48,7.48,0,0,1,189.46,229.54Z" transform="translate(-175.75 -192.5)"/><path class="cls-7" d="M193.19,227.14a7.29,7.29,0,0,1-1.22.41c-.21-.16-.43-.29-.65-.44l-1.32-.87-1.32-.87-.65-.43a8.12,8.12,0,0,1-.11-1.27,7.76,7.76,0,0,1,1.21-.4l.65.43,1.32.87,1.32.87c.22.14.43.3.66.42A7.1,7.1,0,0,1,193.19,227.14Z" transform="translate(-175.75 -192.5)"/><path class="cls-7" d="M196.38,224.4a8.34,8.34,0,0,1-1.21.51c-.23-.15-.48-.27-.72-.4l-1.46-.78-1.45-.78-.73-.39a10.14,10.14,0,0,1-.26-1.27,10.14,10.14,0,0,1,1.2-.49l.73.39,1.45.78,1.46.77c.25.13.48.27.73.38A7.41,7.41,0,0,1,196.38,224.4Z" transform="translate(-175.75 -192.5)"/><path class="cls-7" d="M199.42,221.42a8.26,8.26,0,0,1-1.17.61c-.25-.13-.51-.22-.77-.33l-1.56-.65-1.56-.64-.78-.32a8.79,8.79,0,0,1-.39-1.25,8.59,8.59,0,0,1,1.16-.6l.78.32,1.55.65,1.56.64c.26.1.52.22.78.31A6.93,6.93,0,0,1,199.42,221.42Z" transform="translate(-175.75 -192.5)"/><path class="cls-7" d="M201.9,218.84a7.24,7.24,0,0,1-1.24.51c-.26-.15-.53-.27-.79-.41l-1.59-.79-1.59-.79-.8-.4a10,10,0,0,1-.35-1.29,9.19,9.19,0,0,1,1.24-.5l.8.4,1.59.79,1.59.79c.27.13.53.28.8.39A7.22,7.22,0,0,1,201.9,218.84Z" transform="translate(-175.75 -192.5)"/><path class="cls-7" d="M204.71,215.67a7.62,7.62,0,0,1-1.21.57c-.26-.13-.53-.23-.79-.35l-1.61-.7-1.6-.7-.81-.35a10.43,10.43,0,0,1-.4-1.26,8,8,0,0,1,1.2-.57l.8.35,1.61.69,1.6.7c.27.11.53.24.81.34A7.44,7.44,0,0,1,204.71,215.67Z" transform="translate(-175.75 -192.5)"/><path class="cls-7" d="M207.47,213.51a8.83,8.83,0,0,1-1.27.41c-.24-.17-.5-.31-.74-.47l-1.49-.9-1.5-.91-.74-.46a9.19,9.19,0,0,1-.23-1.3,8.44,8.44,0,0,1,1.27-.41l.74.46,1.5.91,1.49.91c.25.14.49.31.75.44A7.89,7.89,0,0,1,207.47,213.51Z" transform="translate(-175.75 -192.5)"/><path class="cls-7" d="M210.08,210.75a7.18,7.18,0,0,1-1.26.36c-.22-.17-.47-.32-.7-.48l-1.4-.95-1.4-1-.7-.47a8.41,8.41,0,0,1-.13-1.3,8.68,8.68,0,0,1,1.26-.36l.7.48,1.4.95,1.39.94c.24.16.47.33.71.47A7.26,7.26,0,0,1,210.08,210.75Z" transform="translate(-175.75 -192.5)"/><path class="cls-7" d="M213.75,208.28a7.54,7.54,0,0,1-1.29.37c-.23-.18-.48-.33-.73-.49l-1.46-1-1.47-1-.74-.49a8.29,8.29,0,0,1-.18-1.31,9.28,9.28,0,0,1,1.28-.36l.73.48,1.47,1,1.47,1c.25.16.48.33.74.48A8.1,8.1,0,0,1,213.75,208.28Z" transform="translate(-175.75 -192.5)"/><path class="cls-7" d="M216.83,206a7.11,7.11,0,0,1-1.2.38c-.2-.16-.41-.3-.62-.45l-1.24-.89-1.24-.88-.62-.44a8.59,8.59,0,0,1,0-1.26,8.13,8.13,0,0,1,1.2-.37l.62.44,1.24.89,1.23.88c.21.15.41.31.63.44A7.34,7.34,0,0,1,216.83,206Z" transform="translate(-175.75 -192.5)"/><path class="cls-7" d="M220.38,204.27a7.45,7.45,0,0,1-1.24.24c-.18-.18-.38-.34-.56-.51l-1.13-1-1.12-1-.56-.51a7.13,7.13,0,0,1,.11-1.25,9.14,9.14,0,0,1,1.23-.24l.56.51,1.13,1,1.12,1c.19.17.37.35.57.5A7.41,7.41,0,0,1,220.38,204.27Z" transform="translate(-175.75 -192.5)"/><path class="cls-7" d="M223.58,202.24a8.35,8.35,0,0,1-1.19.16c-.13-.18-.28-.34-.42-.51l-.85-1-.86-1-.43-.5a8.41,8.41,0,0,1,.34-1.15,9.29,9.29,0,0,1,1.18-.15l.43.5.85,1,.86,1c.14.17.28.34.43.49A6.62,6.62,0,0,1,223.58,202.24Z" transform="translate(-175.75 -192.5)"/><path class="cls-7" d="M228,201.11a7.34,7.34,0,0,1-1.25,0c-.13-.21-.28-.4-.42-.6l-.85-1.2-.85-1.19-.43-.6a11.55,11.55,0,0,1,.39-1.18,10,10,0,0,1,1.24,0l.43.6.85,1.19.85,1.2c.15.19.28.4.43.59A8.09,8.09,0,0,1,228,201.11Z" transform="translate(-175.75 -192.5)"/><path class="cls-7" d="M231.77,199.63a7.83,7.83,0,0,1-1.21-.17c-.08-.21-.19-.41-.29-.61l-.6-1.22-.59-1.22-.3-.61a7.27,7.27,0,0,1,.6-1.05,9.45,9.45,0,0,1,1.19.17l.3.61.6,1.22.6,1.22c.1.2.19.41.31.6A8.76,8.76,0,0,1,231.77,199.63Z" transform="translate(-175.75 -192.5)"/><path class="cls-7" d="M235.66,198.93a7.33,7.33,0,0,1-1.12-.54c0-.24-.08-.48-.11-.71l-.24-1.42-.25-1.42-.12-.72a8.91,8.91,0,0,1,.87-.87,8.68,8.68,0,0,1,1.1.54l.13.71.24,1.42.24,1.42c0,.24.07.48.13.71A7.15,7.15,0,0,1,235.66,198.93Z" transform="translate(-175.75 -192.5)"/><path class="cls-7" d="M240.37,199.38a9.34,9.34,0,0,1-1.09-.76c0-.29-.05-.58-.08-.86L239,196l-.17-1.72-.09-.86a10,10,0,0,1,.91-1,8.84,8.84,0,0,1,1.08.76l.09.86.17,1.72.17,1.72c0,.28.05.57.1.86A8.08,8.08,0,0,1,240.37,199.38Z" transform="translate(-175.75 -192.5)"/><path class="cls-7" d="M245.15,201.21a8.74,8.74,0,0,1,.09-1.32c.24-.14.46-.32.69-.48l1.36-1,1.36-1,.68-.49a9,9,0,0,1,1.27.31,8.59,8.59,0,0,1-.1,1.3l-.68.5-1.36,1-1.36,1c-.22.16-.46.32-.67.5A8.53,8.53,0,0,1,245.15,201.21Z" transform="translate(-175.75 -192.5)"/><path class="cls-7" d="M247.52,203.63a7.65,7.65,0,0,1,.32-1.22c.24-.08.47-.19.71-.28l1.4-.56,1.4-.56.7-.28a8.51,8.51,0,0,1,1.07.65,8.31,8.31,0,0,1-.32,1.2l-.71.29-1.4.56-1.4.56c-.23.1-.47.18-.69.29A7.19,7.19,0,0,1,247.52,203.63Z" transform="translate(-175.75 -192.5)"/><path class="cls-7" d="M247.52,205.71a7.26,7.26,0,0,1,.83-1.05c.3,0,.59,0,.89,0l1.76-.09,1.77-.08.88,0a8.56,8.56,0,0,1,.93,1,9.23,9.23,0,0,1-.83,1l-.89,0-1.76.08-1.77.08c-.29,0-.59,0-.88.06A7.91,7.91,0,0,1,247.52,205.71Z" transform="translate(-175.75 -192.5)"/><path class="cls-7" d="M247.52,208.83c.32-.35.57-.65.86-.93.26,0,.53,0,.8,0l1.62,0,1.62,0h.81a9.9,9.9,0,0,1,.8,1,8.65,8.65,0,0,1-.83,1h-.82l-1.63,0-1.64,0c-.28,0-.55,0-.83,0A4.65,4.65,0,0,1,247.52,208.83Z" transform="translate(-175.75 -192.5)"/><path class="cls-7" d="M247.29,211.88a6.53,6.53,0,0,1,.92-.91c.27.05.54.06.81.1l1.62.19,1.61.18.81.1a7.88,7.88,0,0,1,.69,1.09,8.44,8.44,0,0,1-.92.89l-.81-.09-1.62-.19-1.61-.18c-.27,0-.54-.08-.81-.09A7.32,7.32,0,0,1,247.29,211.88Z" transform="translate(-175.75 -192.5)"/><path class="cls-7" d="M246.57,215a8.13,8.13,0,0,1,1-.8c.25.08.51.12.77.18l1.54.36,1.53.36.77.17a9.69,9.69,0,0,1,.55,1.16,9.29,9.29,0,0,1-1,.79L251,217l-1.53-.35-1.54-.36c-.26-.05-.51-.13-.78-.16A9.3,9.3,0,0,1,246.57,215Z" transform="translate(-175.75 -192.5)"/><path class="cls-7" d="M245.15,217.75a8.12,8.12,0,0,1,1.06-.73c.25.1.51.16.76.24l1.52.47,1.52.47.75.24a8,8,0,0,1,.47,1.19,10,10,0,0,1-1.06.72l-.75-.24-1.52-.47-1.52-.47c-.26-.07-.51-.16-.76-.22A6.83,6.83,0,0,1,245.15,217.75Z" transform="translate(-175.75 -192.5)"/><path class="cls-7" d="M243.53,220.46a6.93,6.93,0,0,1,1.11-.61,5.86,5.86,0,0,0,.67.32l1.36.63,1.37.62.68.32A9,9,0,0,1,249,223a8,8,0,0,1-1.1.59l-.68-.31-1.36-.62-1.36-.63c-.23-.1-.45-.22-.69-.3A8.79,8.79,0,0,1,243.53,220.46Z" transform="translate(-175.75 -192.5)"/><path class="cls-7" d="M243.6,199.81a7.45,7.45,0,0,1-.6-1.2c.12-.26.22-.54.34-.81l.66-1.64.66-1.65.33-.82a8.8,8.8,0,0,1,1.26-.44,10.22,10.22,0,0,1,.6,1.19l-.33.82-.67,1.64-.66,1.64c-.11.28-.23.55-.32.83A8.15,8.15,0,0,1,243.6,199.81Z" transform="translate(-175.75 -192.5)"/><path class="cls-8" d="M183.39,239c-.57-3,1.09-7.22,10.48-11.7a6.13,6.13,0,0,0,2.16-1.72c4.34-5.49,24.37-29.07,46.3-25.78a6.22,6.22,0,0,1,5.27,5.29c.63,4.75-.3,12.92-10,22.17a15.55,15.55,0,0,1-5.19,3.26c-6.26,2.34-22.21,8.46-31.17,13.18a6.07,6.07,0,0,1-3.34.7l-8.92-.66A6,6,0,0,1,183.39,239Z" transform="translate(-175.75 -192.5)"/></g></svg>