<svg id="redEnemy" xmlns="http://www.w3.org/2000/svg" viewBox="0 0 63.12 86.05"><defs><style>.cls-1{fill:#52797c;}.cls-2{fill:#83aeaf;}.cls-3{fill:#f7fffc;}.cls-4{fill:#d36b2e;}.cls-5{fill:#f2cb54;}.cls-6{fill:#873c33;}.cls-7{fill:#fdfffd;}.cls-10,.cls-8{fill:none;stroke-miterlimit:10;}.cls-8{stroke:#5c4233;}.cls-9{fill:#3e3123;}.cls-10{stroke:#503a29;stroke-width:2px;}</style></defs><title>heartBacteria13</title><path class="cls-1" d="M366,104.9c-3.3-.45-6.43.82-7.75,3.06-10.51,18,10.71,41.78,15.76,47.05a5.31,5.31,0,0,1,1.34,2.34c2.32,9.34,6.7,11.94,10.37,12.29,3.22.31,6.13-1.2,7.19-3.45l3.49-7.48a4.69,4.69,0,0,0,.14-3.18c-3-9.71-5.47-26-6.48-33.25a13,13,0,0,0-1.41-2.54C380.86,108.77,371.68,105.69,366,104.9Z" transform="translate(-342.13 -92.26)"/><ellipse class="cls-2" cx="376.11" cy="141.95" rx="4.35" ry="3.48" transform="translate(-280.61 299.96) rotate(-59.18)"/><ellipse class="cls-2" cx="381.63" cy="151.75" rx="3.03" ry="2.67" transform="translate(-364.51 -14.28) rotate(-11.34)"/><ellipse class="cls-2" cx="365.25" cy="135.29" rx="3.13" ry="2.81" transform="translate(-358.9 118.98) rotate(-31.57)"/><ellipse class="cls-2" cx="361.24" cy="121.98" rx="2.51" ry="2.17" transform="translate(-361.76 47.31) rotate(-21.3)"/><ellipse class="cls-2" cx="389.96" cy="159.24" rx="3.13" ry="2.81" transform="translate(-367.78 135.46) rotate(-31.57)"/><ellipse class="cls-2" cx="383.22" cy="162.4" rx="2.26" ry="2.04" transform="translate(-370.43 132.4) rotate(-31.57)"/><ellipse class="cls-2" cx="388.28" cy="145.72" rx="2.42" ry="2.18" transform="translate(-360.95 132.58) rotate(-31.57)"/><ellipse class="cls-2" cx="385.06" cy="129.93" rx="3.13" ry="2.81" transform="translate(-353.16 128.55) rotate(-31.57)"/><ellipse class="cls-2" cx="362.45" cy="109.56" rx="4.09" ry="3.68" transform="translate(-353.03 80.39) rotate(-26.41)"/><ellipse class="cls-2" cx="374.1" cy="112.16" rx="3.13" ry="2.81" transform="translate(-345.48 120.19) rotate(-31.57)"/><path class="cls-3" d="M362.74,123.06c-1.91,5.36.73,10.72,5.89,12,.23.06.45.09.68.13-4-1.34-5.92-5.69-4.38-10,1.64-4.6,6.54-7.46,10.95-6.39,4.19,1,6.43,5.18,5.25,9.53.1-.23.2-.46.29-.69,1.9-5.37-.73-10.73-5.89-12S364.65,117.69,362.74,123.06Z" transform="translate(-342.13 -92.26)"/><path class="cls-4" d="M369.31,135.15l.66.2c4.42,1.06,9.32-1.8,10.95-6.39.08-.24.15-.48.21-.71C379.1,133,374.05,135.92,369.31,135.15Z" transform="translate(-342.13 -92.26)"/><path class="cls-5" d="M375.88,118.72c-4.41-1.07-9.31,1.79-10.95,6.39-1.54,4.35.41,8.7,4.38,10,4.74.77,9.79-2.17,11.82-6.9C382.31,123.9,380.07,119.72,375.88,118.72Z" transform="translate(-342.13 -92.26)"/><path class="cls-6" d="M396.37,158.71h0a4.28,4.28,0,0,0,.21-3.07c-2.74-9-5-24.47-5.78-30.51a11.23,11.23,0,0,0-.78-2.84c1,7.22,3.49,23.54,6.48,33.25A4.69,4.69,0,0,1,396.37,158.71Z" transform="translate(-342.13 -92.26)"/><path class="cls-7" d="M361.92,98.86c-3.7-.51-7.22.9-8.69,3.4-11.77,20,12.17,46.64,17.86,52.53a5.92,5.92,0,0,1,1.52,2.62c2.63,10.42,7.57,13.33,11.7,13.73,3.61.36,6.88-1.32,8.06-3.83l3.91-8.35a2.5,2.5,0,0,0,.09-.25l-3.49,7.48c-1.06,2.25-4,3.76-7.19,3.45-3.67-.35-8.05-2.95-10.37-12.29A5.31,5.31,0,0,0,374,155c-5.05-5.27-26.27-29.1-15.76-47,1.32-2.24,4.45-3.51,7.75-3.06,5.71.79,14.89,3.87,22.65,14.84a13,13,0,0,1,1.41,2.54c0-.27-.08-.56-.11-.81a13.61,13.61,0,0,0-2.48-6C378.68,103.21,368.34,99.75,361.92,98.86Z" transform="translate(-342.13 -92.26)"/><ellipse class="cls-8" cx="372.08" cy="125.55" rx="11" ry="9.89" transform="translate(-349.94 132.71) rotate(-33.31)"/><path class="cls-9" d="M384.06,110.81a7.41,7.41,0,0,1,0-1.35c.24-.18.46-.39.69-.58l1.38-1.17,1.37-1.17.69-.58a9.92,9.92,0,0,1,1.34.18,9.6,9.6,0,0,1,0,1.34l-.69.59-1.38,1.17-1.37,1.17c-.23.19-.46.38-.68.59A7,7,0,0,1,384.06,110.81Z" transform="translate(-342.13 -92.26)"/><path class="cls-9" d="M386.8,113.9a7.6,7.6,0,0,1,.11-1.33c.25-.15.48-.33.72-.5l1.41-1,1.41-1,.71-.51a10.7,10.7,0,0,1,1.29.3,10.09,10.09,0,0,1-.12,1.32l-.71.51-1.41,1-1.42,1c-.23.17-.47.33-.7.51A7.25,7.25,0,0,1,386.8,113.9Z" transform="translate(-342.13 -92.26)"/><path class="cls-9" d="M388.59,117.34a8.13,8.13,0,0,1,.35-1.3c.28-.12.54-.27.81-.4l1.62-.81L393,114l.81-.4a8.78,8.78,0,0,1,1.26.49,10.12,10.12,0,0,1-.36,1.3l-.81.4-1.62.81-1.61.81c-.27.14-.54.26-.8.41A7,7,0,0,1,388.59,117.34Z" transform="translate(-342.13 -92.26)"/><path class="cls-9" d="M390.36,121.36a7.56,7.56,0,0,1,.46-1.3c.29-.1.56-.23.85-.35l1.7-.73,1.7-.73.85-.37a9,9,0,0,1,1.25.56,9.06,9.06,0,0,1-.46,1.28l-.85.37-1.7.73-1.7.73c-.28.12-.57.23-.85.37A7.82,7.82,0,0,1,390.36,121.36Z" transform="translate(-342.13 -92.26)"/><path class="cls-9" d="M390.9,125.78a8.3,8.3,0,0,1,.58-1.3c.32-.1.63-.24.94-.35l1.88-.72,1.88-.72.94-.36a10.25,10.25,0,0,1,1.3.58,9.09,9.09,0,0,1-.59,1.29l-.94.36-1.87.72-1.88.72c-.31.12-.63.23-.94.36A7.24,7.24,0,0,1,390.9,125.78Z" transform="translate(-342.13 -92.26)"/><path class="cls-9" d="M392.14,129.6a7.26,7.26,0,0,1,.54-1.18c.27,0,.52-.14.79-.2l1.58-.41,1.57-.41.79-.21a8,8,0,0,1,1,.76,9.24,9.24,0,0,1-.53,1.17l-.79.21-1.58.41-1.58.41c-.26.08-.52.13-.78.22A8,8,0,0,1,392.14,129.6Z" transform="translate(-342.13 -92.26)"/><path class="cls-9" d="M392.12,134.1a7.9,7.9,0,0,1,.76-1.17c.32,0,.63-.11.95-.16l1.88-.35,1.88-.35.94-.17a10.47,10.47,0,0,1,1.13.81,13,13,0,0,1-.76,1.16L398,134l-1.88.35-1.88.34c-.32.07-.63.11-.94.19A8.41,8.41,0,0,1,392.12,134.1Z" transform="translate(-342.13 -92.26)"/><path class="cls-9" d="M392.86,138.56a7.86,7.86,0,0,1,.7-1.17c.3,0,.6-.11.9-.17l1.79-.35,1.79-.35.9-.18a10,10,0,0,1,1.09.8,9.62,9.62,0,0,1-.7,1.16l-.9.18-1.79.35-1.8.36c-.29.06-.6.1-.89.18A7.28,7.28,0,0,1,392.86,138.56Z" transform="translate(-342.13 -92.26)"/><path class="cls-9" d="M394.42,143.56a7.19,7.19,0,0,1,.4-1.19c.24-.06.48-.15.71-.22l1.43-.46,1.42-.46.72-.23a9.23,9.23,0,0,1,1,.72,8.49,8.49,0,0,1-.41,1.18l-.71.23-1.43.46-1.42.46c-.24.08-.48.15-.71.24A7.28,7.28,0,0,1,394.42,143.56Z" transform="translate(-342.13 -92.26)"/><path class="cls-9" d="M394.57,147.85a9,9,0,0,1,.48-1.23c.28-.07.54-.17.81-.26l1.61-.55,1.61-.54.8-.28a9.4,9.4,0,0,1,1.13.68,9.38,9.38,0,0,1-.49,1.22l-.8.27-1.61.55-1.61.54c-.26.1-.54.18-.8.29A8.6,8.6,0,0,1,394.57,147.85Z" transform="translate(-342.13 -92.26)"/><path class="cls-9" d="M396.14,152.26a7.15,7.15,0,0,1,.37-1.25c.26-.09.51-.21.76-.31l1.53-.64,1.53-.64.76-.32a9.14,9.14,0,0,1,1.15.6,10.23,10.23,0,0,1-.37,1.24l-.77.32-1.52.64-1.53.65c-.25.11-.51.2-.76.33A7.31,7.31,0,0,1,396.14,152.26Z" transform="translate(-342.13 -92.26)"/><path class="cls-9" d="M397.18,156.64a7,7,0,0,1,.49-1.26c.29-.08.56-.2.84-.3l1.69-.63,1.68-.62.84-.32a9.22,9.22,0,0,1,1.19.63,9.88,9.88,0,0,1-.49,1.25l-.84.31-1.69.63-1.68.62c-.28.11-.56.2-.84.32A7.3,7.3,0,0,1,397.18,156.64Z" transform="translate(-342.13 -92.26)"/><path class="cls-9" d="M395.7,160.62a9.56,9.56,0,0,1,1.11-1.1c.4,0,.8-.06,1.19-.08l2.39-.19,2.39-.19L404,159a11.94,11.94,0,0,1,1.27.9,11.48,11.48,0,0,1-1.11,1.1l-1.19.09-2.39.19-2.39.19c-.39,0-.79,0-1.19.11A9,9,0,0,1,395.7,160.62Z" transform="translate(-342.13 -92.26)"/><path class="cls-9" d="M394.53,163.9a9.47,9.47,0,0,1,1.37-.71c.38.11.76.19,1.14.29l2.27.54,2.27.55,1.14.28a9.43,9.43,0,0,1,.9,1.24,9.87,9.87,0,0,1-1.37.7l-1.14-.27-2.27-.55-2.27-.55c-.38-.09-.76-.19-1.14-.26A8.49,8.49,0,0,1,394.53,163.9Z" transform="translate(-342.13 -92.26)"/><path class="cls-9" d="M392.9,166.37a8.71,8.71,0,0,1,1.44-.2c.27.22.56.42.83.63l1.69,1.23,1.69,1.23.84.62a9.46,9.46,0,0,1,.26,1.42,9.84,9.84,0,0,1-1.44.19l-.84-.61-1.69-1.24L394,168.41c-.29-.2-.56-.42-.85-.61A7.32,7.32,0,0,1,392.9,166.37Z" transform="translate(-342.13 -92.26)"/><path class="cls-9" d="M390.75,169.34a8.35,8.35,0,0,1,1.34.16c.15.26.33.49.49.74l1,1.47,1,1.46.5.74a9.31,9.31,0,0,1-.32,1.29,8.65,8.65,0,0,1-1.33-.16l-.5-.74-1-1.46-1-1.47c-.18-.24-.33-.49-.52-.72A8.37,8.37,0,0,1,390.75,169.34Z" transform="translate(-342.13 -92.26)"/><path class="cls-9" d="M388.09,170.76a7.9,7.9,0,0,1,1.17.76c0,.32.11.63.16.95l.35,1.89.35,1.88.17.95a8.47,8.47,0,0,1-.81,1.12,8.82,8.82,0,0,1-1.15-.76l-.18-.94-.35-1.89-.34-1.89c-.07-.31-.11-.63-.19-.94A8.41,8.41,0,0,1,388.09,170.76Z" transform="translate(-342.13 -92.26)"/><path class="cls-9" d="M384.38,170.25a8,8,0,0,1,.8,1.14c-.08.31-.14.63-.2.94l-.39,1.87-.39,1.87L384,177a11.48,11.48,0,0,1-1.18.74,11.08,11.08,0,0,1-.78-1.14l.19-.94.39-1.87.39-1.87c.06-.31.14-.62.18-.94A8.57,8.57,0,0,1,384.38,170.25Z" transform="translate(-342.13 -92.26)"/><path class="cls-9" d="M381,170.44a8.06,8.06,0,0,1,.56,1.28c-.15.29-.26.59-.39.89l-.74,1.78-.74,1.79-.38.89a10.51,10.51,0,0,1-1.29.51,8.09,8.09,0,0,1-.55-1.28l.37-.89.74-1.79.75-1.78c.12-.3.26-.59.36-.9A8.55,8.55,0,0,1,381,170.44Z" transform="translate(-342.13 -92.26)"/><path class="cls-9" d="M377.93,168.4a8.1,8.1,0,0,1,.17,1.38c-.22.23-.41.49-.62.73L376.27,172l-1.21,1.47-.61.73a9.83,9.83,0,0,1-1.38.1,10.27,10.27,0,0,1-.16-1.38l.61-.73,1.21-1.46,1.21-1.47c.2-.25.42-.48.6-.74A8.54,8.54,0,0,1,377.93,168.4Z" transform="translate(-342.13 -92.26)"/><path class="cls-9" d="M376.09,165.5a7.57,7.57,0,0,1-.16,1.34c-.25.15-.49.34-.74.5l-1.47,1-1.47,1-.73.51a9.11,9.11,0,0,1-1.31-.31,8.65,8.65,0,0,1,.16-1.33l.74-.51,1.47-1,1.47-1c.24-.17.49-.33.73-.52A7.52,7.52,0,0,1,376.09,165.5Z" transform="translate(-342.13 -92.26)"/><path class="cls-9" d="M374.08,162.36a8.65,8.65,0,0,1-.29,1.32c-.27.13-.53.29-.79.43l-1.57.88-1.56.88-.79.44a8.77,8.77,0,0,1-1.27-.44,9,9,0,0,1,.3-1.31l.78-.44,1.56-.88,1.57-.87c.26-.15.53-.29.78-.45A7.22,7.22,0,0,1,374.08,162.36Z" transform="translate(-342.13 -92.26)"/><path class="cls-9" d="M372.21,158a8.33,8.33,0,0,1-.25,1.35c-.28.15-.53.32-.8.48l-1.58,1-1.58,1-.79.49a8.49,8.49,0,0,1-1.33-.35,11.39,11.39,0,0,1,.26-1.34l.8-.5,1.58-1,1.58-1c.26-.17.53-.32.79-.5A6.91,6.91,0,0,1,372.21,158Z" transform="translate(-342.13 -92.26)"/><path class="cls-9" d="M369.73,154.11a7,7,0,0,1-.15,1.37c-.26.18-.5.38-.76.57l-1.51,1.16-1.51,1.15-.76.57a10.78,10.78,0,0,1-1.36-.21,9.4,9.4,0,0,1,.15-1.38l.76-.57,1.51-1.15,1.51-1.16c.25-.19.51-.37.75-.58A7.53,7.53,0,0,1,369.73,154.11Z" transform="translate(-342.13 -92.26)"/><path class="cls-9" d="M366.87,150.25a7.93,7.93,0,0,1,0,1.38c-.24.2-.46.43-.69.64l-1.37,1.29-1.37,1.29-.68.65a11.13,11.13,0,0,1-1.37-.08,9.07,9.07,0,0,1,0-1.38l.68-.64,1.37-1.3,1.37-1.29c.23-.22.46-.42.68-.65A7.59,7.59,0,0,1,366.87,150.25Z" transform="translate(-342.13 -92.26)"/><path class="cls-9" d="M364.36,147.05a7.51,7.51,0,0,1-.16,1.42c-.27.2-.53.43-.79.64l-1.58,1.27-1.58,1.28-.79.64a10.8,10.8,0,0,1-1.42-.14,9.92,9.92,0,0,1,.16-1.42l.79-.64,1.58-1.27,1.58-1.28c.26-.22.53-.42.78-.65A8.49,8.49,0,0,1,364.36,147.05Z" transform="translate(-342.13 -92.26)"/><path class="cls-9" d="M361.17,143.36a9.07,9.07,0,0,1-.05,1.41c-.26.21-.49.44-.74.65l-1.46,1.32-1.45,1.32-.73.66a8.58,8.58,0,0,1-1.4-.08,10.47,10.47,0,0,1,.05-1.4l.73-.66,1.46-1.32,1.46-1.32c.24-.22.49-.43.72-.67A7.91,7.91,0,0,1,361.17,143.36Z" transform="translate(-342.13 -92.26)"/><path class="cls-9" d="M359.29,140a7.82,7.82,0,0,1-.28,1.41c-.29.18-.57.38-.85.57l-1.7,1.14-1.69,1.15-.85.57a9.64,9.64,0,0,1-1.4-.25,9.12,9.12,0,0,1,.28-1.4l.85-.58,1.69-1.14,1.7-1.15c.28-.19.57-.37.84-.58A7.84,7.84,0,0,1,359.29,140Z" transform="translate(-342.13 -92.26)"/><path class="cls-9" d="M356.58,136.66a8.22,8.22,0,0,1-.33,1.38c-.29.16-.57.35-.86.52l-1.71,1L352,140.65l-.86.52a11.74,11.74,0,0,1-1.37-.33,9.65,9.65,0,0,1,.33-1.38l.86-.52,1.71-1.05,1.72-1c.28-.18.57-.34.85-.53A8.14,8.14,0,0,1,356.58,136.66Z" transform="translate(-342.13 -92.26)"/><path class="cls-9" d="M354.61,132.36a7.67,7.67,0,0,1-.34,1.41c-.3.17-.59.36-.88.54l-1.76,1.11-1.75,1.11-.88.55a9.08,9.08,0,0,1-1.41-.29,10.22,10.22,0,0,1,.35-1.4l.87-.55,1.76-1.11,1.75-1.11c.29-.18.59-.36.87-.56A8,8,0,0,1,354.61,132.36Z" transform="translate(-342.13 -92.26)"/><path class="cls-9" d="M352.74,128.7a7.73,7.73,0,0,1-.29,1.33c-.27.13-.52.3-.79.45l-1.58.91-1.58.91-.78.45a8.29,8.29,0,0,1-1.29-.41,8,8,0,0,1,.29-1.32l.78-.45,1.58-.91,1.58-.92c.26-.15.53-.29.78-.46A7.8,7.8,0,0,1,352.74,128.7Z" transform="translate(-342.13 -92.26)"/><path class="cls-9" d="M351.63,124.74a7.72,7.72,0,0,1-.44,1.31c-.29.1-.57.24-.86.37l-1.71.76-1.71.76-.85.38a9.35,9.35,0,0,1-1.26-.54,9.23,9.23,0,0,1,.45-1.29l.85-.38,1.71-.76,1.71-.76c.28-.13.57-.24.85-.39A8.23,8.23,0,0,1,351.63,124.74Z" transform="translate(-342.13 -92.26)"/><path class="cls-9" d="M350.08,121a8.21,8.21,0,0,1-.49,1.21c-.27.07-.54.16-.8.24l-1.6.51-1.59.51-.79.25a8.69,8.69,0,0,1-1.1-.7,9.22,9.22,0,0,1,.49-1.21l.8-.25,1.59-.51,1.59-.5c.27-.09.54-.16.79-.26A6.81,6.81,0,0,1,350.08,121Z" transform="translate(-342.13 -92.26)"/><path class="cls-9" d="M350.1,116.46a8,8,0,0,1-.69,1.21c-.32,0-.62.14-.93.21l-1.85.44-1.85.44-.92.22a8.7,8.7,0,0,1-1.16-.75,9.35,9.35,0,0,1,.7-1.19l.92-.23,1.85-.44,1.85-.44c.3-.08.61-.14.92-.23A8.48,8.48,0,0,1,350.1,116.46Z" transform="translate(-342.13 -92.26)"/><path class="cls-9" d="M349.45,112.35a7.6,7.6,0,0,1-.79,1.1c-.3,0-.59.06-.89.08l-1.8.19-1.79.2-.9.09a8.92,8.92,0,0,1-1-.9,8.76,8.76,0,0,1,.79-1.09l.9-.09,1.79-.19,1.79-.2c.3,0,.6-.05.9-.1A7.43,7.43,0,0,1,349.45,112.35Z" transform="translate(-342.13 -92.26)"/><path class="cls-9" d="M349.87,108.4a8.44,8.44,0,0,1-1.08.9c-.32-.06-.64-.08-1-.12l-1.94-.22-1.94-.21-1-.11a8.37,8.37,0,0,1-.85-1.1,10.28,10.28,0,0,1,1.07-.89l1,.11,1.94.22,1.94.21c.32,0,.64.08,1,.1A8.07,8.07,0,0,1,349.87,108.4Z" transform="translate(-342.13 -92.26)"/><path class="cls-9" d="M352.06,104a8.64,8.64,0,0,1-1.31.81c-.38-.08-.77-.13-1.15-.19l-2.3-.38-2.3-.37-1.16-.19a12.07,12.07,0,0,1-1-1.18,11.07,11.07,0,0,1,1.32-.8l1.15.19,2.3.38,2.3.37c.39.06.77.14,1.15.18A8.45,8.45,0,0,1,352.06,104Z" transform="translate(-342.13 -92.26)"/><path class="cls-9" d="M356.08,100a7.1,7.1,0,0,1-1.31-.35c-.12-.28-.27-.54-.41-.81l-.82-1.62-.83-1.62-.42-.8a10.12,10.12,0,0,1,.48-1.27,8.54,8.54,0,0,1,1.31.36l.41.8.83,1.62.82,1.62c.14.27.27.54.42.8A7.21,7.21,0,0,1,356.08,100Z" transform="translate(-342.13 -92.26)"/><path class="cls-9" d="M360,98.49a7.25,7.25,0,0,1-1.12-.59c0-.26-.08-.51-.12-.76l-.26-1.53-.25-1.52-.13-.76a7.92,7.92,0,0,1,.86-.92,8.79,8.79,0,0,1,1.11.59l.13.76.25,1.52.26,1.52c.05.26.08.51.14.76A7.3,7.3,0,0,1,360,98.49Z" transform="translate(-342.13 -92.26)"/><path class="cls-9" d="M362.76,99.15A7.56,7.56,0,0,1,362,98c.1-.28.17-.58.25-.86l.5-1.72.49-1.72.25-.86a8.94,8.94,0,0,1,1.2-.59,8.84,8.84,0,0,1,.72,1.14l-.25.86L364.71,96l-.49,1.72c-.08.29-.18.57-.24.86A8.17,8.17,0,0,1,362.76,99.15Z" transform="translate(-342.13 -92.26)"/><path class="cls-9" d="M366.84,100.13c-.2-.44-.4-.77-.56-1.14.12-.24.21-.5.32-.75l.61-1.54.59-1.55.3-.78a9.75,9.75,0,0,1,1.23-.43,8.42,8.42,0,0,1,.64,1.14l-.3.78-.6,1.56L368.45,99c-.1.26-.22.52-.31.79A4.33,4.33,0,0,1,366.84,100.13Z" transform="translate(-342.13 -92.26)"/><path class="cls-9" d="M370.73,101.31a8.29,8.29,0,0,1-.5-1.22c.16-.24.28-.5.41-.74l.8-1.5.79-1.49.4-.75a10.24,10.24,0,0,1,1.28-.27,9.6,9.6,0,0,1,.49,1.21l-.4.75-.8,1.49-.79,1.5c-.13.25-.28.49-.39.75A7.31,7.31,0,0,1,370.73,101.31Z" transform="translate(-342.13 -92.26)"/><path class="cls-9" d="M374.5,103a8.14,8.14,0,0,1-.32-1.27c.18-.22.33-.46.5-.68l1-1.37,1-1.36.49-.68a8.73,8.73,0,0,1,1.31-.1,8.65,8.65,0,0,1,.31,1.27l-.49.68-1,1.37-1,1.36c-.16.23-.34.45-.49.69A7.49,7.49,0,0,1,374.5,103Z" transform="translate(-342.13 -92.26)"/><path class="cls-9" d="M377.67,105.2a7.61,7.61,0,0,1-.2-1.31c.2-.21.38-.44.57-.65l1.13-1.31,1.13-1.31.56-.66a9.82,9.82,0,0,1,1.33,0,9.62,9.62,0,0,1,.19,1.31l-.57.65-1.13,1.31-1.12,1.31c-.19.23-.39.44-.56.67A7.43,7.43,0,0,1,377.67,105.2Z" transform="translate(-342.13 -92.26)"/><path class="cls-9" d="M380.65,107.61a7.38,7.38,0,0,1,0-1.32c.23-.17.43-.37.65-.55l1.27-1.11,1.28-1.11.64-.55a8.24,8.24,0,0,1,1.3.2,8.24,8.24,0,0,1,0,1.31l-.64.55-1.27,1.11-1.28,1.11c-.21.19-.44.37-.64.57A7.59,7.59,0,0,1,380.65,107.61Z" transform="translate(-342.13 -92.26)"/><path class="cls-9" d="M353.73,101.05a7.72,7.72,0,0,1-1.48.29c-.31-.21-.63-.39-.95-.58l-1.92-1.15-1.91-1.16-1-.57a10.47,10.47,0,0,1-.44-1.43,9.3,9.3,0,0,1,1.47-.29l1,.58,1.91,1.15L352.33,99c.32.19.63.4,1,.57A7.87,7.87,0,0,1,353.73,101.05Z" transform="translate(-342.13 -92.26)"/><path class="cls-10" d="M384.31,171.14c-4.13-.4-9.07-3.31-11.7-13.73a5.92,5.92,0,0,0-1.52-2.62c-5.69-5.89-29.63-32.52-17.86-52.53,1.47-2.5,5-3.91,8.69-3.4,6.42.89,16.76,4.35,25.52,16.61a13.61,13.61,0,0,1,2.48,6c.93,6.75,3.48,24,6.59,34.06a4.68,4.68,0,0,1-.23,3.43l-3.91,8.35C391.19,169.82,387.92,171.5,384.31,171.14Z" transform="translate(-342.13 -92.26)"/></svg>