<svg id="SIDeCat" xmlns="http://www.w3.org/2000/svg" viewBox="0 0 82.21 35.36"><defs><style>.cls-1{fill:#7e519a;}.cls-2{fill:#fcf6ec;}.cls-3{fill:none;stroke:#523d2b;stroke-miterlimit:10;stroke-width:2px;}.cls-4{fill:#a871cf;}.cls-5{fill:#613877;}</style></defs><title>heartBacteria7</title><path class="cls-1" d="M466,228a31.74,31.74,0,0,0,11.12-5c9.37-6.77-1.32-6.86-6.7-6.47a23.32,23.32,0,0,0-5.13,1c-29.61,9.37-40.17-4.24-44.37-11.22a7.62,7.62,0,0,0-5.76-3.81c-6.93-.46-7.65,4.53-7.27,8a10.58,10.58,0,0,0,2.71,5.76C427.93,235.56,453.41,231,466,228Z" transform="translate(-403.13 -197.53)"/><path class="cls-2" d="M475.61,225.63a15.7,15.7,0,0,0,7.69-5.84c3.89-6.11-4.15-6.39-8.35-6.16a14.39,14.39,0,0,0-4,.84c-31.47,11.22-43.28-5.41-46.64-12.14a7.39,7.39,0,0,0-5.79-3.63c-8.55-1.09-12.19,3.06-13.73,6.4a6.72,6.72,0,0,0,.49,6.53C424.57,242.09,463.05,230.48,475.61,225.63Zm-67.7-15.12c-.38-3.45.34-8.44,7.27-8a7.62,7.62,0,0,1,5.76,3.81c4.2,7,14.76,20.59,44.37,11.22a23.32,23.32,0,0,1,5.13-1c5.38-.39,16.07-.3,6.7,6.47A31.74,31.74,0,0,1,466,228c-12.61,3-38.09,7.56-55.4-11.73A10.58,10.58,0,0,1,407.91,210.51Z" transform="translate(-403.13 -197.53)"/><path class="cls-3" d="M424.27,202.33c3.36,6.73,15.17,23.36,46.64,12.14" transform="translate(-403.13 -197.53)"/><path class="cls-4" d="M459.72,229.53c-10.5,2.42-31.76,6-46.65-10.7a9.5,9.5,0,0,1-2.38-5c-.39-2.95.12-7.21,5.94-6.73a6.7,6.7,0,0,1,4.9,3.33c3.65,6,12.77,17.76,37.39,10.12a18.48,18.48,0,0,1,4.28-.81c4.5-.26,13.45-.06,5.74,5.62a25.35,25.35,0,0,1-9.22,4.12" transform="translate(-403.13 -197.53)"/><path class="cls-3" d="M475,213.63c4.2-.23,12.24.05,8.35,6.16a15.7,15.7,0,0,1-7.69,5.84c-12.56,4.85-51,16.46-70.37-14a6.72,6.72,0,0,1-.49-6.53c1.54-3.34,5.18-7.49,13.73-6.4a7.39,7.39,0,0,1,5.79,3.63c3.36,6.73,15.17,23.36,46.64,12.14A14.39,14.39,0,0,1,475,213.63Z" transform="translate(-403.13 -197.53)"/><path class="cls-3" d="M475,213.63c4.2-.23,12.24.05,8.35,6.16a15.7,15.7,0,0,1-7.69,5.84c-12.56,4.85-51,16.46-70.37-14a6.72,6.72,0,0,1-.49-6.53c1.54-3.34,5.18-7.49,13.73-6.4a7.39,7.39,0,0,1,5.79,3.63c3.36,6.73,15.17,23.36,46.64,12.14A14.39,14.39,0,0,1,475,213.63Z" transform="translate(-403.13 -197.53)"/><path class="cls-5" d="M414.53,209.05s1.1,2.45,2.43.46a2.8,2.8,0,0,1,1.36-2.7s1.38-2.11-1.46-1.5C416.86,205.31,414,207.2,414.53,209.05Z" transform="translate(-403.13 -197.53)"/><path class="cls-5" d="M429.89,226.77s1.29-2.15-2.26-3.2a5.16,5.16,0,0,1-4.38-.94s-3.7-1.08-.59,2.12C422.66,224.75,428.25,228.2,429.89,226.77Z" transform="translate(-403.13 -197.53)"/><path class="cls-5" d="M412.9,213.28s3.13-.9.6-1.91c0,0-2.4.19-3.45-1,0,0-2.7-1.06-1.92,1.16C408.13,211.49,410.53,213.68,412.9,213.28Z" transform="translate(-403.13 -197.53)"/><path class="cls-5" d="M422.85,213.81s-.52-2.57-2.28-.8a3.13,3.13,0,0,1-2,2.46s-1.85,1.89,1.09,1.69C419.69,217.16,422.9,215.7,422.85,213.81Z" transform="translate(-403.13 -197.53)"/><path class="cls-5" d="M424.11,218.47s-2.87,1.32-.14,2c0,0,2.31-.53,3.63.53,0,0,2.9.65,1.62-1.42C429.22,219.54,426.35,217.73,424.11,218.47Z" transform="translate(-403.13 -197.53)"/><path class="cls-5" d="M439.73,220s-3,.25-1.18,1.72c0,0,2.16.28,2.65,1.66,0,0,2,1.54,2.08-.74C443.28,222.66,441.94,220.09,439.73,220Z" transform="translate(-403.13 -197.53)"/><path class="cls-5" d="M441.38,227.72s1.91-1.88-.74-1.84a4.28,4.28,0,0,1-3.38.33s-2.81.06-.78,1.69C436.48,227.9,439.77,228.92,441.38,227.72Z" transform="translate(-403.13 -197.53)"/><path class="cls-5" d="M451.24,222s-.8-2.28-2.07-.51a2.71,2.71,0,0,1-1.35,2.42s-1.33,1.89,1.17,1.43C449,225.31,451.55,223.68,451.24,222Z" transform="translate(-403.13 -197.53)"/><path class="cls-5" d="M455.32,229.54s4,.1,1.28-1.39c0,0-2.94-.49-3.84-1.76,0,0-2.93-1.58-2.65.43A9.4,9.4,0,0,0,455.32,229.54Z" transform="translate(-403.13 -197.53)"/><path class="cls-5" d="M467.2,220.78s5.57-.1,1.47,1.55c0,0-4.15.53-5.66,1.95,0,0-4.38,1.75-3.57-.49A17.14,17.14,0,0,1,467.2,220.78Z" transform="translate(-403.13 -197.53)"/><path class="cls-5" d="M474.28,224.39s2.92-2.19-.38-1.68c0,0-2.51,1.32-4.31.94,0,0-3.51.56-1.46,1.79C468.13,225.44,471.93,225.85,474.28,224.39Z" transform="translate(-403.13 -197.53)"/></svg>