<svg id="Layer_1" data-name="Layer 1" xmlns="http://www.w3.org/2000/svg" viewBox="0 0 525.67 552.4"><defs><style>.cls-1{fill:#f95642;}.cls-2{fill:#25140c;}.cls-3{fill:#733528;}.cls-4{fill:#b53636;}.cls-5{fill:#070707;}.cls-6{fill:#f9f7f7;}.cls-7{fill:#be1f47;}.cls-8{fill:#fa2c4f;}.cls-9{fill:#f68;}</style></defs><title>mainCharSVG</title><path class="cls-1" d="M445.41,429.84l8.25-1.83a7.07,7.07,0,0,1-6.7-4.82c-2.19-6.43-3.95-18.16,6.7-28.18,0,0,84.33-57.76,85.25-63.26,0,0,14.16-14.86,5.15-24.69a5.58,5.58,0,0,0-8.24,0c-5.88,6.43-20.14,17.65-24.3-3.14,0,0-4.61-15.88,30.15-6.33a7.51,7.51,0,0,1,2,.89c3.85,2.49,16.25,12.44,6.34,32.65a3.6,3.6,0,0,0,3.84,5.09c8.39-1.21,24.42-6.55,47.09-27.25a9.63,9.63,0,0,0,3.08-7.08V286.49a7.27,7.27,0,0,0-3.48-6.16c-7.33-4.58-21.73-16.87,3.48-32,0,0,30.61,11.91,7.48,30a7.28,7.28,0,0,0-2.8,5.93l.82,32.84s.16,10.08,10.62-1.84c9.47-10.79,45.71-32.11,57.91-37.4a5.88,5.88,0,0,0,3.43-4.39c1.65-9.28,8.62-34,35-18.52a7.87,7.87,0,0,1,3.87,7.49c-.82,8.37-5.4,24.28-28.59,22.08a14.69,14.69,0,0,0-7.28,1.24c-8.66,3.83-29.27,13.75-36.17,24.21a9.15,9.15,0,0,0,4,13.35c4.69,2.06,11.15,2.78,14,.54,0,0,13.66-13.17,32.11-18.24a6.43,6.43,0,0,1,7.88,7.56c-.39,1.93-.74,3.94-1,5.79A5.22,5.22,0,0,0,712,324.5c11.24-3.52,35.84-11.95,47.29-21.52a7.16,7.16,0,0,0,2.24-7.64c-3-9.68-6.84-35.14,31-48.47a15,15,0,0,0,6.31-4.38c4.38-5,13.81-12.77,19.92,4.74a12.51,12.51,0,0,1-1.47,11.23c-2.85,4.13-7.77,8.13-15.07,3.6a11.61,11.61,0,0,0-8.08-1.84c-8.28,1.41-23.58,7.35-21.28,32.12a36.93,36.93,0,0,0,4.68,14.07c3.13,5.77,5.64,16-9.2,23.62a5.82,5.82,0,0,0-2.49,7.69c4.65,9.75,16,29.19,33.22,31.52a11.38,11.38,0,0,0,9.11-2.77c7.46-6.65,26.93-21.43,38.26-6A10.78,10.78,0,0,0,856.83,365c9.45-1.51,23.76-1.88,15.76,18.13,0,0-15.58,17.42-24.29-7.33,0,0-10.82-29-55.61,13.11a10.89,10.89,0,0,0-3.13,10.33c1.73,7.62,7,19.36,23,20.28a11.1,11.1,0,0,1,9.41,6.33c4.66,9.91,14.09,28.76,23.17,39.58a15.15,15.15,0,0,0,9.38,5.25,77.53,77.53,0,0,0,11.62.91,9.32,9.32,0,0,0,8.94-8.14c.93-6.2,5-13.66,20.47-5.61,0,0,9.38,16.2-11.32,19.41a28.51,28.51,0,0,0-4.2.89c-9,2.77-49.56,13-65.15-23.51,0,0,4.13,29.34,7.33,29.34,0,0,34.84,29.79,32.09,45.83a39.23,39.23,0,0,0,28.42,7.79s12.83-19.7,19.71.24c0,0,2.29,13.51-17,8,0,0-37.58,5.85-47.78-18.33a1.18,1.18,0,0,0-2.23.13c-2.43,9.07-9.15,31.36-17,33.12a1.8,1.8,0,0,0-1.29,2.57l2.25,4.52s8.82-2.52,13.92-1.3a4.5,4.5,0,0,1,3.12,2.89c1.77,5,7.88,19.56,17.8,17.66,0,0,17.4-1.28,21.16,14.55a5.33,5.33,0,0,0,1.78,3c3.69,3,12.85,11.78,4.41,20.72a7.7,7.7,0,0,1-7.64,2.12c-6.53-1.77-17.47-6.69-7.05-18.6a5.54,5.54,0,0,0-.11-7.23c-2.91-3.39-7.69-7.4-13.47-6.3,0,0-23.37,3.66-22.46-15.13,0,0,2.43-11.71-12.06-6.7a3.41,3.41,0,0,0-2.16,4.13c1.75,6.23,4.82,20.62-2.28,25.95,0,0-19.71,12.83-10.54,24.75,0,0,18.33,1.37,20.17,11.92,0,0,3,26.2,18.61,23a5.7,5.7,0,0,1,4.55,1.13c5.14,3.86,14.77,13.82-3.45,24.9,0,0-18.72,5.82-17.33-18.19a8.31,8.31,0,0,0-2.49-6.45c-5.13-5-14.93-15.9-10-22.11,0,0-14.21-12.38-22.46,3.21,0,0-16,10.54-12.37,16.5,0,0,3.34,17.53,16.39,22.71a8,8,0,0,1,3.59,2.59c1.85,2.48,4.45,7.17,3.39,12.88a20.35,20.35,0,0,0-.25,6.37c.8,5.87.37,17.21-15.79,14.12,0,0-15.58-15.13,8.25-19.71,0,0,6.67-6.32-.57-11.28a11.24,11.24,0,0,0-6.78-1.74c-4.76.16-14.25-1-16.86-12.11a1.62,1.62,0,0,0-2.78-.76c-7,7.77-28.45,31-39,34.25a5.16,5.16,0,0,0-3.6,4.3c-.64,4.89-.29,12.55,8.14,12.55,0,0,14.21-2.3,15.13,3.66l1.14,5.05a11.67,11.67,0,0,0,4.61,7c3.47,2.46,7.44,7.13.67,13.41a7.83,7.83,0,0,1-8.22,1.68c-3.38-1.37-6.79-4.87-4.16-13.81,0,0,6-12.38-1.83-11.46,0,0-22.23,1-29.16-4.48a4.38,4.38,0,0,0-5.45.19c-8.4,7-33.7,20.69-92.34,2.68a21,21,0,0,0-10.6-.4h0a5,5,0,0,0-3.74,6.05l5.7,22.49a13,13,0,0,0,2.85,5.4c5,5.65,16.35,20.82-2.94,24.9,0,0-15.58,1.44-12.84-13.24a21,21,0,0,1,3.85-8.41c2.35-3.24,5.33-9.08.29-13.18,0,0-9-8.28-9.09-15.83a5.4,5.4,0,0,0-4.32-5c-14.74-3.36-57.09-14.49-74.09-34.53a7.78,7.78,0,0,0-5.5-2.63h0a3.69,3.69,0,0,0-3.92,3.49l-1.86,33.86a9.23,9.23,0,0,0,2.33,6.69c4.86,5.43,13.33,18.28-5.77,26.77,0,0-26.57-10.63-7.13-26.87a11.14,11.14,0,0,0,3.85-8.71l-.33-23.83a7.71,7.71,0,0,0-3.68-6.48c-8.35-5.13-28-18-24.33-23,0,0-5.71,29.34-17.07,29.79,0,0,4.23,19.25-18.69,11,0,0-11-21.08,13.3-17,0,0,21.08-5.95,13.29-27.95,0,0-20.63-72.42-17.42-76.55,0,0-2-10.35-9.43,2.29a35.32,35.32,0,0,0-4.42,14c-.76,6.9-4.4,18.4-19.89,21.3a8.75,8.75,0,0,0-4.84,2.84c-2.69,3-8,7.44-14.27,5.27-5.68-2-8.11-9.19-4.27-13.82,2.55-3.07,7.33-4.77,16.28-.06a6.24,6.24,0,0,0,6,0c5.21-3,14.91-9.63,14.39-18.2a39.25,39.25,0,0,1,.09-8.11c2.13-14.82,8.67-57.41,13.95-62.33C429.36,540.3,421.57,445.2,445.41,429.84Z" transform="translate(-376.8 -236.37)"/><path class="cls-2" d="M656.68,381.18s-24.75,101.75-11.92,158.59c0,0,61.42,33,77.92,15.58,0,0,27.5-69.67,4.59-178.76Z" transform="translate(-376.8 -236.37)"/><path class="cls-2" d="M548.09,392.46s-27.51,66-18.34,128.34h56.84s15.58-41.26,22-128.34Z" transform="translate(-376.8 -236.37)"/><path class="cls-3" d="M730.68,377.79c-.34-2.73-31.17-10.09-30.25,103.59,0,0,3.67,39.42,30.25,39.42C730.68,520.8,743.52,480.46,730.68,377.79Z" transform="translate(-376.8 -236.37)"/><path class="cls-3" d="M595.75,498s-34.39,21.74-26.53-45.43c0,0,21.54-96.39,39.47-44.92Z" transform="translate(-376.8 -236.37)"/><path class="cls-4" d="M731.06,382l-99.45.19s-.1-3.67,12.86-5.23c0,0,43.86-62.3,89.65-2.38" transform="translate(-376.8 -236.37)"/><path class="cls-4" d="M606.11,358.53s18.94,29.94,0,44.92l-78.23,2.44v-7.33L539.8,398S559.05,357,606.11,358.53Z" transform="translate(-376.8 -236.37)"/><path class="cls-5" d="M718.4,590.1a254.51,254.51,0,0,0-66-23.9C633.69,589,592.55,625.62,558,562.11c-30,3.52-49.24,10.27-49.24,10.27-3.71,43.06,10.73,67.21,30.67,80.49l.13-1.13a94,94,0,0,1,15.25-19.93,92.42,92.42,0,0,1,18.45-14.55c15.92-9.49,37.62-15.31,65.39-7.77a127.31,127.31,0,0,1,21.9,8.26,189.57,189.57,0,0,1,28.85,17.54C715.74,613,718.4,590.1,718.4,590.1Z" transform="translate(-376.8 -236.37)"/><path class="cls-6" d="M652.4,566.2A291.24,291.24,0,0,0,558,562.11C592.55,625.62,633.69,589,652.4,566.2Z" transform="translate(-376.8 -236.37)"/><path class="cls-7" d="M554.83,631.81a94,94,0,0,0-15.25,19.93l-.13,1.13c29.8,19.84,71.88,15.44,84.2,13.6,6.49-1.53,12.82-3.37,18.88-5.37,20.78-7.35,35.89-16.52,46.89-25.81a189.57,189.57,0,0,0-28.85-17.54C615.22,651.75,574.38,640.8,554.83,631.81Z" transform="translate(-376.8 -236.37)"/><path class="cls-8" d="M660.57,617.75a127.31,127.31,0,0,0-21.9-8.26c-27.51,12.83-50.84,11.27-65.39,7.77a92.42,92.42,0,0,0-18.45,14.55C574.38,640.8,615.22,651.75,660.57,617.75Z" transform="translate(-376.8 -236.37)"/><path class="cls-9" d="M638.67,609.49c-27.77-7.54-49.47-1.72-65.39,7.77C587.83,620.76,611.16,622.32,638.67,609.49Z" transform="translate(-376.8 -236.37)"/></svg>